Mont_SC_170822_Light.ufo
<glyph name="exclam" format="1">
  <advance width="149.587338872"/>
  <unicode hex="0021"/>
  <outline>
    <contour>
      <point x="81.9339036029" y="152.129602905" type="line"/>
      <point x="85.8996216935" y="559.300010681" type="line"/>
      <point x="63.6877171789" y="559.300010681" type="line"/>
      <point x="67.6534352695" y="152.129602905" type="line"/>
    </contour>
    <contour>
      <point x="97.7142579094" y="20.4623903908" type="curve" smooth="yes"/>
      <point x="97.7142579094" y="32.9188006287"/>
      <point x="87.258741696" y="43.4416308296"/>
      <point x="74.7936694362" y="43.4416308296" type="curve" smooth="yes"/>
      <point x="62.3285971764" y="43.4416308296"/>
      <point x="51.873080963" y="32.9188006287"/>
      <point x="51.873080963" y="20.4623903908" type="curve" smooth="yes"/>
      <point x="51.873080963" y="8.02995015335"/>
      <point x="62.3285971764" y="-2.56479004898"/>
      <point x="74.7936694362" y="-2.56479004898" type="curve" smooth="yes"/>
      <point x="87.258741696" y="-2.56479004898"/>
      <point x="97.7142579094" y="8.02995015335"/>
    </contour>
  </outline>
</glyph>
<glyph name="numbersign" format="1">
  <advance width="552.770294448"/>
  <unicode hex="0023"/>
  <outline>
    <contour>
      <point x="356.086210754" y="0.0" type="line"/>
      <point x="425.678010067" y="559.300010681" type="line"/>
      <point x="407.006289661" y="559.300010681" type="line"/>
      <point x="337.414490348" y="0.0" type="line"/>
    </contour>
    <contour>
      <point x="499.714455455" y="166.040193171" type="line"/>
      <point x="498.92325344" y="184.361263521" type="line"/>
      <point x="27.9234445182" y="184.361263521" type="line"/>
      <point x="28.7146465327" y="166.040193171" type="line"/>
    </contour>
    <contour>
      <point x="145.764004787" y="0.0" type="line"/>
      <point x="215.3558041" y="559.300010681" type="line"/>
      <point x="196.684083694" y="559.300010681" type="line"/>
      <point x="127.092284381" y="0.0" type="line"/>
    </contour>
    <contour>
      <point x="524.84684993" y="374.93874716" type="line"/>
      <point x="524.055647916" y="393.25981751" type="line"/>
      <point x="53.0558389934" y="393.25981751" type="line"/>
      <point x="53.8470410079" y="374.93874716" type="line"/>
    </contour>
  </outline>
</glyph>
<glyph name="dollar" format="1">
  <advance width="487.205697211"/>
  <unicode hex="0024"/>
  <outline>
    <contour>
      <point x="253.378804818" y="-95.8800018311" type="line"/>
      <point x="253.378804818" y="655.180012512" type="line"/>
      <point x="235.83644844" y="655.180012512" type="line"/>
      <point x="235.83644844" y="-95.8800018311" type="line"/>
    </contour>
    <contour>
      <point x="441.084606358" y="138.578562646" type="curve" smooth="yes"/>
      <point x="441.084606358" y="340.845416509"/>
      <point x="82.1118836101" y="234.538464479"/>
      <point x="82.1118836101" y="419.459028011" type="curve" smooth="yes"/>
      <point x="82.1118836101" y="487.461919309"/>
      <point x="136.305176614" y="542.968450369"/>
      <point x="253.839934801" y="542.968450369" type="curve" smooth="yes"/>
      <point x="304.771339761" y="542.968450369"/>
      <point x="362.894754855" y="527.060360065"/>
      <point x="408.430129719" y="494.445179443" type="curve"/>
      <point x="418.39700993" y="510.944529758" type="line"/>
      <point x="376.746453136" y="542.153470354"/>
      <point x="314.097491946" y="562.008620733"/>
      <point x="253.084328788" y="562.008620733" type="curve" smooth="yes"/>
      <point x="119.465032247" y="562.008620733"/>
      <point x="62.1409091512" y="494.365279441"/>
      <point x="62.1409091512" y="419.94641802" type="curve" smooth="yes"/>
      <point x="62.1409091512" y="213.732504082"/>
      <point x="421.1136319" y="322.388516157"/>
      <point x="421.1136319" y="138.147102638" type="curve" smooth="yes"/>
      <point x="421.1136319" y="70.9192413544"/>
      <point x="366.884742894" y="16.3315603119"/>
      <point x="245.429570636" y="16.3315603119" type="curve" smooth="yes"/>
      <point x="166.521327155" y="16.3315603119"/>
      <point x="94.5381237982" y="48.7070409302"/>
      <point x="58.5505671109" y="89.9434317177" type="curve"/>
      <point x="46.1210908525" y="75.7452014465" type="line"/>
      <point x="84.5534455863" y="29.7627505684"/>
      <point x="163.400205082" y="-2.70861005173"/>
      <point x="246.185176649" y="-2.70861005173" type="curve" smooth="yes"/>
      <point x="381.386877219" y="-2.70861005173"/>
      <point x="441.084606358" y="63.4326112114"/>
    </contour>
  </outline>
</glyph>
<glyph name="percent" format="1">
  <advance width="649.282378291"/>
  <unicode hex="0025"/>
  <outline>
    <contour>
      <point x="141.49733872" y="0.0" type="line"/>
      <point x="528.199346013" y="559.300010681" type="line"/>
      <point x="507.785039572" y="559.300010681" type="line"/>
      <point x="121.083032278" y="0.0" type="line"/>
    </contour>
    <contour>
      <point x="282.172733336" y="411.485007858" type="curve" smooth="yes"/>
      <point x="282.172733336" y="502.810709602"/>
      <point x="231.729964378" y="561.86480073"/>
      <point x="161.044397039" y="561.86480073" type="curve" smooth="yes"/>
      <point x="90.3588296989" y="561.86480073"/>
      <point x="39.9160607413" y="502.810709602"/>
      <point x="39.9160607413" y="411.485007858" type="curve" smooth="yes"/>
      <point x="39.9160607413" y="320.135336114"/>
      <point x="90.3588296989" y="261.105214986"/>
      <point x="161.044397039" y="261.105214986" type="curve" smooth="yes"/>
      <point x="231.729964378" y="261.105214986"/>
      <point x="282.172733336" y="320.135336114"/>
    </contour>
    <contour>
      <point x="58.1962251316" y="411.485007858" type="curve" smooth="yes"/>
      <point x="58.1962251316" y="494.469149443"/>
      <point x="100.521487918" y="544.550470399"/>
      <point x="161.044397039" y="544.550470399" type="curve" smooth="yes"/>
      <point x="221.567306159" y="544.550470399"/>
      <point x="263.892568946" y="494.469149443"/>
      <point x="263.892568946" y="411.485007858" type="curve" smooth="yes"/>
      <point x="263.892568946" y="328.500866273"/>
      <point x="221.567306159" y="278.419545317"/>
      <point x="161.044397039" y="278.419545317" type="curve" smooth="yes"/>
      <point x="100.521487918" y="278.419545317"/>
      <point x="58.1962251316" y="328.500866273"/>
    </contour>
    <contour>
      <point x="609.36631755" y="147.815002823" type="curve" smooth="yes"/>
      <point x="609.36631755" y="239.140704567"/>
      <point x="558.923548593" y="298.194795695"/>
      <point x="488.237981253" y="298.194795695" type="curve" smooth="yes"/>
      <point x="417.552413913" y="298.194795695"/>
      <point x="367.109644955" y="239.140704567"/>
      <point x="367.109644955" y="147.815002823" type="curve" smooth="yes"/>
      <point x="367.109644955" y="56.4653310783"/>
      <point x="417.552413913" y="-2.56479004898"/>
      <point x="488.237981253" y="-2.56479004898" type="curve" smooth="yes"/>
      <point x="558.923548593" y="-2.56479004898"/>
      <point x="609.36631755" y="56.4653310783"/>
    </contour>
    <contour>
      <point x="385.389809346" y="147.815002823" type="curve" smooth="yes"/>
      <point x="385.389809346" y="230.799144408"/>
      <point x="427.715072132" y="280.880465364"/>
      <point x="488.237981253" y="280.880465364" type="curve" smooth="yes"/>
      <point x="548.760890373" y="280.880465364"/>
      <point x="591.08615316" y="230.799144408"/>
      <point x="591.08615316" y="147.815002823" type="curve" smooth="yes"/>
      <point x="591.08615316" y="64.8308612381"/>
      <point x="548.760890373" y="14.7495402817"/>
      <point x="488.237981253" y="14.7495402817" type="curve" smooth="yes"/>
      <point x="427.715072132" y="14.7495402817"/>
      <point x="385.389809346" y="64.8308612381"/>
    </contour>
  </outline>
</glyph>
<glyph name="ampersand" format="1">
  <advance width="515.201951767"/>
  <unicode hex="0026"/>
  <outline>
    <contour>
      <point x="468.236264898" y="229.760444388" type="curve"/>
      <point x="451.56439252" y="234.154944472" type="line"/>
      <point x="422.600573977" y="84.82983162"/>
      <point x="341.753966454" y="14.4938602768"/>
      <point x="222.085066215" y="14.4938602768" type="curve" smooth="yes"/>
      <point x="129.184358484" y="14.4938602768"/>
      <point x="64.527459283" y="62.417881192"/>
      <point x="64.527459283" y="135.334622585" type="curve" smooth="yes"/>
      <point x="64.527459283" y="192.894583684"/>
      <point x="97.5184799014" y="233.915244467"/>
      <point x="212.102006039" y="301.310895754" type="curve" smooth="yes"/>
      <point x="323.975382154" y="367.028647009"/>
      <point x="359.278524831" y="404.214107719"/>
      <point x="359.278524831" y="460.7912988" type="curve" smooth="yes"/>
      <point x="359.278524831" y="523.832400004"/>
      <point x="314.107199964" y="561.912740731"/>
      <point x="243.625500615" y="561.912740731" type="curve" smooth="yes"/>
      <point x="167.391811156" y="561.912740731"/>
      <point x="119.775688243" y="518.215429897"/>
      <point x="119.775688243" y="452.753358646" type="curve" smooth="yes"/>
      <point x="119.775688243" y="410.262537835"/>
      <point x="133.760062511" y="379.445107246"/>
      <point x="191.110073591" y="318.425476081" type="curve" smooth="yes"/>
      <point x="489.027565232" y="-1.08664002075" type="line"/>
      <point x="510.961173683" y="3.74731007156" type="line"/>
      <point x="208.50195598" y="327.462166254" type="line" smooth="yes"/>
      <point x="152.858934935" y="387.562947401"/>
      <point x="139.177126678" y="415.072517927"/>
      <point x="139.177126678" y="452.825268648" type="curve" smooth="yes"/>
      <point x="139.177126678" y="506.85364968"/>
      <point x="177.457389388" y="543.687550383"/>
      <point x="243.678894617" y="543.687550383" type="curve" smooth="yes"/>
      <point x="305.890995771" y="543.687550383"/>
      <point x="340.953056421" y="510.776739754"/>
      <point x="340.953056421" y="460.671448798" type="curve" smooth="yes"/>
      <point x="340.953056421" y="408.848307808"/>
      <point x="307.170833788" y="377.175947203"/>
      <point x="200.161165783" y="315.037716016" type="curve" smooth="yes"/>
      <point x="83.3447995724" y="246.898994715"/>
      <point x="44.8412528357" y="197.145263765"/>
      <point x="44.8412528357" y="134.927132577" type="curve" smooth="yes"/>
      <point x="44.8412528357" y="52.0548509941"/>
      <point x="118.398770239" y="-2.70861005173"/>
      <point x="221.835894205" y="-2.70861005173" type="curve" smooth="yes"/>
      <point x="349.720998636" y="-2.70861005173"/>
      <point x="437.351880312" y="71.3427113625"/>
    </contour>
  </outline>
</glyph>
<glyph name="quotesingle" format="1">
  <advance width="150.101862858"/>
  <unicode hex="0027"/>
  <outline>
    <contour>
      <point x="83.5955896176" y="358.351506844" type="line"/>
      <point x="85.4449636575" y="559.300010681" type="line"/>
      <point x="64.6568992006" y="559.300010681" type="line"/>
      <point x="66.5062732405" y="358.351506844" type="line"/>
    </contour>
  </outline>
</glyph>
<glyph name="parenleft" format="1">
  <advance width="252.844864796"/>
  <unicode hex="0028"/>
  <outline>
    <contour>
      <point x="207.222117964" y="-155.00600296" type="line"/>
      <point x="145.488944794" y="-51.9669609924"/>
      <point x="117.911752272" y="71.686281369"/>
      <point x="117.911752272" y="218.926004181" type="curve" smooth="yes"/>
      <point x="117.911752272" y="366.165726993"/>
      <point x="145.488944794" y="489.818969354"/>
      <point x="207.222117964" y="592.858011322" type="curve"/>
      <point x="188.344911532" y="592.858011322" type="line"/>
      <point x="130.638940437" y="498.528069521"/>
      <point x="98.154353822" y="366.693067003"/>
      <point x="98.154353822" y="218.926004181" type="curve" smooth="yes"/>
      <point x="98.154353822" y="71.1589413589"/>
      <point x="130.638940437" y="-58.3509711143"/>
      <point x="188.344911532" y="-155.00600296" type="curve"/>
    </contour>
  </outline>
</glyph>
<glyph name="parenright" format="1">
  <advance width="252.844864796"/>
  <unicode hex="0029"/>
  <outline>
    <contour>
      <point x="154.690510974" y="218.926004181" type="curve" smooth="yes"/>
      <point x="154.690510974" y="366.693067003"/>
      <point x="122.205924359" y="498.528069521"/>
      <point x="64.4999532644" y="592.858011322" type="curve"/>
      <point x="45.6227468323" y="592.858011322" type="line"/>
      <point x="107.355920002" y="489.818969354"/>
      <point x="134.933112524" y="366.165726993"/>
      <point x="134.933112524" y="218.926004181" type="curve" smooth="yes"/>
      <point x="134.933112524" y="71.686281369"/>
      <point x="107.355920002" y="-51.9669609924"/>
      <point x="45.6227468323" y="-155.00600296" type="curve"/>
      <point x="64.4999532644" y="-155.00600296" type="line"/>
      <point x="122.205924359" y="-58.3509711143"/>
      <point x="154.690510974" y="71.1589413589"/>
    </contour>
  </outline>
</glyph>
<glyph name="asterisk" format="1">
  <advance width="291.668775546"/>
  <unicode hex="002A"/>
  <outline>
    <contour>
      <point x="261.850652968" y="532.054110161" type="line"/>
      <point x="147.453196821" y="466.799778915" type="line"/>
      <point x="154.085378949" y="463.459958851" type="line"/>
      <point x="154.138772952" y="592.858011322" type="line"/>
      <point x="137.512204593" y="592.858011322" type="line"/>
      <point x="137.565598595" y="463.459958851" type="line"/>
      <point x="144.197780724" y="466.799778915" type="line"/>
      <point x="29.8003245767" y="532.054110161" type="line"/>
      <point x="21.4692423968" y="516.968989873" type="line"/>
      <point x="136.889274568" y="451.786568628" type="line"/>
      <point x="136.889274568" y="460.351848792" type="line"/>
      <point x="21.4692423968" y="395.169427547" type="line"/>
      <point x="29.8003245767" y="380.084307259" type="line"/>
      <point x="144.988982739" y="445.338638505" type="line"/>
      <point x="137.565598595" y="448.678458569" type="line"/>
      <point x="137.512204593" y="319.280406097" type="line"/>
      <point x="154.138772952" y="319.280406097" type="line"/>
      <point x="154.085378949" y="448.678458569" type="line"/>
      <point x="147.453196821" y="445.338638505" type="line"/>
      <point x="261.850652968" y="380.084307259" type="line"/>
      <point x="270.199533149" y="395.169427547" type="line"/>
      <point x="155.570702992" y="460.351848792" type="line"/>
      <point x="155.570702992" y="451.786568628" type="line"/>
      <point x="270.199533149" y="516.968989873" type="line"/>
    </contour>
  </outline>
</glyph>
<glyph name="plus" format="1">
  <advance width="454.107888588"/>
  <unicode hex="002B"/>
  <outline>
    <contour>
      <point x="236.567784504" y="118.771352268" type="line"/>
      <point x="236.567784504" y="440.528658413" type="line"/>
      <point x="217.540104084" y="440.528658413" type="line"/>
      <point x="217.540104084" y="118.771352268" type="line"/>
    </contour>
    <contour>
      <point x="393.788847458" y="269.862255154" type="line"/>
      <point x="393.788847458" y="288.662725513" type="line"/>
      <point x="60.31904113" y="288.662725513" type="line"/>
      <point x="60.31904113" y="269.862255154" type="line"/>
    </contour>
  </outline>
</glyph>
<glyph name="hyphen" format="1">
  <advance width="307.597985806"/>
  <unicode hex="002D"/>
  <outline>
    <contour>
      <point x="255.368944828" y="202.522533868" type="line"/>
      <point x="255.368944828" y="221.323004227" type="line"/>
      <point x="52.2290409774" y="221.323004227" type="line"/>
      <point x="52.2290409774" y="202.522533868" type="line"/>
    </contour>
  </outline>
</glyph>
<glyph name="period" format="1">
  <advance width="149.409358865"/>
  <unicode hex="002E"/>
  <outline>
    <contour>
      <point x="97.6252679058" y="20.7020903954" type="curve" smooth="yes"/>
      <point x="97.6252679058" y="33.3982006378"/>
      <point x="87.1163576902" y="43.9210308388"/>
      <point x="74.7046794326" y="43.9210308388" type="curve" smooth="yes"/>
      <point x="62.2930011749" y="43.9210308388"/>
      <point x="51.7840909594" y="33.3982006378"/>
      <point x="51.7840909594" y="20.7020903954" type="curve" smooth="yes"/>
      <point x="51.7840909594" y="8.02995015335"/>
      <point x="62.2930011749" y="-2.56479004898"/>
      <point x="74.7046794326" y="-2.56479004898" type="curve" smooth="yes"/>
      <point x="87.1163576902" y="-2.56479004898"/>
      <point x="97.6252679058" y="8.02995015335"/>
    </contour>
  </outline>
</glyph>
<glyph name="zero" format="1">
  <advance width="528.037545972"/>
  <unicode hex="0030"/>
  <outline>
    <contour>
      <point x="480.840485093" y="279.650005341" type="curve" smooth="yes"/>
      <point x="480.840485093" y="451.067468614"/>
      <point x="393.076927429" y="562.008620733"/>
      <point x="264.018772986" y="562.008620733" type="curve" smooth="yes"/>
      <point x="134.960618542" y="562.008620733"/>
      <point x="47.1970608786" y="451.067468614"/>
      <point x="47.1970608786" y="279.650005341" type="curve" smooth="yes"/>
      <point x="47.1970608786" y="108.232542067"/>
      <point x="134.960618542" y="-2.70861005173"/>
      <point x="264.018772986" y="-2.70861005173" type="curve" smooth="yes"/>
      <point x="393.076927429" y="-2.70861005173"/>
      <point x="480.840485093" y="108.232542067"/>
    </contour>
    <contour>
      <point x="67.1680353375" y="279.650005341" type="curve" smooth="yes"/>
      <point x="67.1680353375" y="441.767108437"/>
      <point x="146.893368816" y="542.752720365"/>
      <point x="264.018772986" y="542.752720365" type="curve" smooth="yes"/>
      <point x="381.144177156" y="542.752720365"/>
      <point x="460.869510634" y="441.767108437"/>
      <point x="460.869510634" y="279.650005341" type="curve" smooth="yes"/>
      <point x="460.869510634" y="117.532902245"/>
      <point x="381.144177156" y="16.547290316"/>
      <point x="264.018772986" y="16.547290316" type="curve" smooth="yes"/>
      <point x="146.893368816" y="16.547290316"/>
      <point x="67.1680353375" y="117.532902245"/>
    </contour>
  </outline>
</glyph>
<glyph name="one" format="1">
  <advance width="278.030653273"/>
  <unicode hex="0031"/>
  <outline>
    <contour>
      <point x="171.786299299" y="0.0" type="line"/>
      <point x="171.786299299" y="559.300010681" type="line"/>
      <point x="8.00101014898" y="559.300010681" type="line"/>
      <point x="8.00101014898" y="540.307780318" type="line"/>
      <point x="161.471549056" y="540.307780318" type="line"/>
      <point x="152.553132852" y="548.809140481" type="line"/>
      <point x="152.553132852" y="0.0" type="line"/>
    </contour>
  </outline>
</glyph>
<glyph name="two" format="1">
  <advance width="449.938302507"/>
  <unicode hex="0032"/>
  <outline>
    <contour>
      <point x="408.457635737" y="0.0" type="line"/>
      <point x="408.457635737" y="19.112080365" type="line"/>
      <point x="40.4176408318" y="19.112080365" type="line"/>
      <point x="50.5705910329" y="10.946300209" type="line"/>
      <point x="286.530007443" y="246.052054699" type="line" smooth="yes"/>
      <point x="360.309190838" y="319.560056103"/>
      <point x="378.03599917" y="365.222906975"/>
      <point x="378.03599917" y="418.028817983" type="curve" smooth="yes"/>
      <point x="378.03599917" y="507.245159687"/>
      <point x="310.319461881" y="562.008620733"/>
      <point x="202.961923844" y="562.008620733" type="curve" smooth="yes"/>
      <point x="119.607416253" y="562.008620733"/>
      <point x="57.6962630763" y="535.625640229"/>
      <point x="15.6638582843" y="488.372779327" type="curve"/>
      <point x="29.8375386133" y="475.389029079" type="line"/>
      <point x="70.5625993699" y="520.572479942"/>
      <point x="125.867458402" y="542.824630367"/>
      <point x="202.570367828" y="542.824630367" type="curve" smooth="yes"/>
      <point x="303.853933706" y="542.824630367"/>
      <point x="358.065024712" y="493.494369424"/>
      <point x="358.065024712" y="416.726447958" type="curve" smooth="yes"/>
      <point x="358.065024712" y="370.424397074"/>
      <point x="343.698802445" y="329.475646292"/>
      <point x="272.427519116" y="258.644294939" type="curve" smooth="yes"/>
      <point x="28.190414529" y="15.1011002884" type="line"/>
      <point x="28.190414529" y="0.0" type="line"/>
    </contour>
  </outline>
</glyph>
<glyph name="three" format="1">
  <advance width="444.435484407"/>
  <unicode hex="0033"/>
  <outline>
    <contour>
      <point x="406.030635691" y="154.175042944" type="curve" smooth="yes"/>
      <point x="406.030635691" y="247.050804718"/>
      <point x="341.079260461" y="310.363565927"/>
      <point x="207.434075937" y="310.363565927" type="curve" smooth="yes"/>
      <point x="194.480367675" y="310.363565927" type="line"/>
      <point x="198.073945786" y="303.404275794" type="line"/>
      <point x="384.783059286" y="544.198910393" type="line"/>
      <point x="384.783059286" y="559.300010681" type="line"/>
      <point x="40.885242763" y="559.300010681" type="line"/>
      <point x="40.885242763" y="540.307780318" type="line"/>
      <point x="365.87996487" y="540.307780318" type="line"/>
      <point x="363.923802826" y="547.626620458" type="line"/>
      <point x="177.214689326" y="306.83198586" type="line"/>
      <point x="177.214689326" y="291.730885571" type="line"/>
      <point x="207.353175916" y="291.730885571" type="line" smooth="yes"/>
      <point x="329.474964184" y="291.730885571"/>
      <point x="386.059661233" y="237.822354542"/>
      <point x="386.059661233" y="154.175042944" type="curve" smooth="yes"/>
      <point x="386.059661233" y="70.3839113441"/>
      <point x="328.416792158" y="16.4753803146"/>
      <point x="217.4964181" y="16.4753803146" type="curve" smooth="yes"/>
      <point x="134.95252856" y="16.4753803146"/>
      <point x="66.4722952742" y="48.6351309288"/>
      <point x="34.547536664" y="89.7756417145" type="curve"/>
      <point x="22.9092624201" y="75.5294714424" type="line"/>
      <point x="57.4567990841" y="29.5709905647"/>
      <point x="132.87178051" y="-2.70861005173"/>
      <point x="217.638802105" y="-2.70861005173" type="curve" smooth="yes"/>
      <point x="340.252462445" y="-2.70861005173"/>
      <point x="406.030635691" y="61.3951611725"/>
    </contour>
  </outline>
</glyph>
<glyph name="four" format="1">
  <advance width="522.206273876"/>
  <unicode hex="0034"/>
  <outline>
    <contour>
      <point x="508.684647626" y="164.082643134" type="line"/>
      <point x="508.684647626" y="183.194723499" type="line"/>
      <point x="48.0529829484" y="183.194723499" type="line"/>
      <point x="60.2963892167" y="179.303593424" type="line"/>
      <point x="377.120211151" y="559.300010681" type="line"/>
      <point x="353.824246627" y="559.300010681" type="line"/>
      <point x="36.8046466853" y="179.303593424" type="line"/>
      <point x="36.8046466853" y="164.082643134" type="line"/>
    </contour>
    <contour>
      <point x="383.601919291" y="0.0" type="line"/>
      <point x="383.601919291" y="327.590006256" type="line"/>
      <point x="363.82672284" y="327.590006256" type="line"/>
      <point x="363.82672284" y="183.194723499" type="line"/>
      <point x="363.702136835" y="164.082643134" type="line"/>
      <point x="363.702136835" y="0.0" type="line"/>
    </contour>
  </outline>
</glyph>
<glyph name="five" format="1">
  <advance width="444.435484407"/>
  <unicode hex="0035"/>
  <outline>
    <contour>
      <point x="408.564423742" y="154.318862947" type="curve" smooth="yes"/>
      <point x="408.564423742" y="244.869534676"/>
      <point x="352.583240682" y="303.044725787"/>
      <point x="178.844015409" y="303.044725787" type="curve" smooth="yes"/>
      <point x="73.8778814166" y="303.044725787" type="line"/>
      <point x="80.7430555897" y="292.873455593" type="line"/>
      <point x="110.391288143" y="548.928990483" type="line"/>
      <point x="102.734911955" y="540.307780318" type="line"/>
      <point x="380.0536452" y="540.307780318" type="line"/>
      <point x="380.0536452" y="559.300010681" type="line"/>
      <point x="92.5544557353" y="559.300010681" type="line"/>
      <point x="61.0746471431" y="284.052495425" type="line"/>
      <point x="177.038327354" y="284.052495425" type="line" smooth="yes"/>
      <point x="339.165166366" y="284.052495425"/>
      <point x="388.593449283" y="234.746204483"/>
      <point x="388.593449283" y="154.199012945" type="curve" smooth="yes"/>
      <point x="388.593449283" y="70.4078813446"/>
      <point x="330.950580209" y="16.4034703133"/>
      <point x="220.03020615" y="16.4034703133" type="curve" smooth="yes"/>
      <point x="137.48631661" y="16.4034703133"/>
      <point x="69.0060833243" y="48.6351309288"/>
      <point x="37.0813247141" y="89.7756417145" type="curve"/>
      <point x="25.4430504702" y="75.5294714424" type="line"/>
      <point x="59.9905871342" y="29.5709905647"/>
      <point x="135.40556856" y="-2.70861005173"/>
      <point x="220.172590155" y="-2.70861005173" type="curve" smooth="yes"/>
      <point x="342.786250495" y="-2.70861005173"/>
      <point x="408.564423742" y="61.4191311729"/>
    </contour>
  </outline>
</glyph>
<glyph name="six" format="1">
  <advance width="480.013687077"/>
  <unicode hex="0036"/>
  <outline>
    <contour>
      <point x="450.525636531" y="162.045193095" type="curve" smooth="yes"/>
      <point x="450.525636531" y="261.432804993"/>
      <point x="377.359675143" y="325.520596217"/>
      <point x="264.331047016" y="325.520596217" type="curve" smooth="yes"/>
      <point x="160.52178307" y="325.520596217"/>
      <point x="78.7690955447" y="263.38236503"/>
      <point x="74.9101654584" y="159.448443045" type="curve"/>
      <point x="82.2008736137" y="170.139063249" type="line"/>
      <point x="69.5416413811" y="210.144994013"/>
      <point x="67.1680353375" y="254.777134866"/>
      <point x="67.1680353375" y="281.607555378" type="curve" smooth="yes"/>
      <point x="67.1680353375" y="455.477948698"/>
      <point x="155.285934981" y="542.896540368"/>
      <point x="289.898683491" y="542.896540368" type="curve" smooth="yes"/>
      <point x="333.406704308" y="542.896540368"/>
      <point x="373.714321065" y="535.729510231"/>
      <point x="402.136109604" y="517.983719892" type="curve"/>
      <point x="411.489767808" y="535.114280219" type="line"/>
      <point x="378.124989174" y="555.328980605"/>
      <point x="335.55864436" y="562.008620733"/>
      <point x="289.791895487" y="562.008620733" type="curve" smooth="yes"/>
      <point x="144.899992735" y="562.008620733"/>
      <point x="47.1970608786" y="467.127368921"/>
      <point x="47.1970608786" y="279.122665331" type="curve" smooth="yes"/>
      <point x="47.1970608786" y="105.452022014"/>
      <point x="121.599174299" y="-2.70861005173"/>
      <point x="269.121945088" y="-2.70861005173" type="curve" smooth="yes"/>
      <point x="374.736897089" y="-2.70861005173"/>
      <point x="450.525636531" y="62.3459711906"/>
    </contour>
    <contour>
      <point x="91.8910757961" y="160.23146306" type="curve" smooth="yes"/>
      <point x="91.8910757961" y="241.889264619"/>
      <point x="161.259591082" y="306.887915861"/>
      <point x="263.280964974" y="306.887915861" type="curve" smooth="yes"/>
      <point x="366.884742894" y="306.887915861"/>
      <point x="430.714844078" y="249.639564767"/>
      <point x="430.714844078" y="161.78152309" type="curve" smooth="yes"/>
      <point x="430.714844078" y="73.9234814117"/>
      <point x="364.51113685" y="15.9240703041"/>
      <point x="268.819379075" y="15.9240703041" type="curve" smooth="yes"/>
      <point x="151.765166908" y="15.9240703041"/>
      <point x="91.8910757961" y="90.9741417374"/>
    </contour>
  </outline>
</glyph>
<glyph name="seven" format="1">
  <advance width="462.464858752"/>
  <unicode hex="0037"/>
  <outline>
    <contour>
      <point x="172.249047318" y="0.0" type="line"/>
      <point x="424.042212036" y="544.198910393" type="line"/>
      <point x="424.042212036" y="559.300010681" type="line"/>
      <point x="28.8570305385" y="559.300010681" type="line"/>
      <point x="28.8570305385" y="428.463758183" type="line"/>
      <point x="48.1516809699" y="428.463758183" type="line"/>
      <point x="48.1516809699" y="548.952960484" type="line"/>
      <point x="39.3934467727" y="540.187930316" type="line"/>
      <point x="414.002521787" y="540.187930316" type="line"/>
      <point x="403.386823567" y="547.986170465" type="line"/>
      <point x="149.459516797" y="0.0" type="line"/>
    </contour>
  </outline>
</glyph>
<glyph name="eight" format="1">
  <advance width="507.466293594"/>
  <unicode hex="0038"/>
  <outline>
    <contour>
      <point x="462.589444757" y="150.691402878" type="curve" smooth="yes"/>
      <point x="462.589444757" y="242.304744627"/>
      <point x="383.493513251" y="298.426505699"/>
      <point x="252.941944782" y="298.426505699" type="curve" smooth="yes"/>
      <point x="122.390376313" y="298.426505699"/>
      <point x="44.8768488372" y="242.304744627"/>
      <point x="44.8768488372" y="150.691402878" type="curve" smooth="yes"/>
      <point x="44.8768488372" y="55.977941069"/>
      <point x="121.510184295" y="-2.70861005173"/>
      <point x="252.941944782" y="-2.70861005173" type="curve" smooth="yes"/>
      <point x="384.373705269" y="-2.70861005173"/>
      <point x="462.589444757" y="55.977941069"/>
    </contour>
    <contour>
      <point x="64.847823296" y="150.108132867" type="curve" smooth="yes"/>
      <point x="64.847823296" y="231.014874412"/>
      <point x="133.460732569" y="282.838015401"/>
      <point x="252.941944782" y="282.838015401" type="curve" smooth="yes"/>
      <point x="372.423156995" y="282.838015401"/>
      <point x="442.618470298" y="231.014874412"/>
      <point x="442.618470298" y="150.108132867" type="curve" smooth="yes"/>
      <point x="442.618470298" y="67.651331292"/>
      <point x="372.423156995" y="15.8281903023"/>
      <point x="252.941944782" y="15.8281903023" type="curve" smooth="yes"/>
      <point x="133.460732569" y="15.8281903023"/>
      <point x="64.847823296" y="67.651331292"/>
    </contour>
    <contour>
      <point x="442.364444375" y="421.368638047" type="curve" smooth="yes"/>
      <point x="442.364444375" y="508.116069704"/>
      <point x="367.491492953" y="562.008620733"/>
      <point x="252.941944782" y="562.008620733" type="curve" smooth="yes"/>
      <point x="138.392396611" y="562.008620733"/>
      <point x="65.1018492186" y="508.116069704"/>
      <point x="65.1018492186" y="421.368638047" type="curve" smooth="yes"/>
      <point x="65.1018492186" y="337.72132645"/>
      <point x="132.942972513" y="285.618535455"/>
      <point x="252.941944782" y="285.618535455" type="curve" smooth="yes"/>
      <point x="372.940917052" y="285.618535455"/>
      <point x="442.364444375" y="337.72132645"/>
    </contour>
    <contour>
      <point x="85.0016316746" y="421.903968057" type="curve" smooth="yes"/>
      <point x="85.0016316746" y="496.442679481"/>
      <point x="149.516146869" y="543.471820379"/>
      <point x="252.941944782" y="543.471820379" type="curve" smooth="yes"/>
      <point x="356.367742695" y="543.471820379"/>
      <point x="422.464661919" y="496.442679481"/>
      <point x="422.464661919" y="421.128938042" type="curve" smooth="yes"/>
      <point x="422.464661919" y="348.140286649"/>
      <point x="359.532550753" y="301.11114575"/>
      <point x="252.941944782" y="301.11114575" type="curve" smooth="yes"/>
      <point x="146.351338811" y="301.11114575"/>
      <point x="85.0016316746" y="348.140286649"/>
    </contour>
  </outline>
</glyph>
<glyph name="less" format="1">
  <advance width="454.107888588"/>
  <unicode hex="003C"/>
  <outline>
    <contour>
      <point x="393.788847458" y="153.152322925" type="line"/>
      <point x="71.7437393651" y="283.924655422" type="line"/>
      <point x="71.7437393651" y="275.375355259" type="line"/>
      <point x="393.788847458" y="406.147687756" type="line"/>
      <point x="393.788847458" y="427.27324816" type="line"/>
      <point x="60.31904113" y="290.308665544" type="line"/>
      <point x="60.31904113" y="268.991345137" type="line"/>
      <point x="393.788847458" y="132.026762521" type="line"/>
    </contour>
  </outline>
</glyph>
<glyph name="equal" format="1">
  <advance width="454.107888588"/>
  <unicode hex="003D"/>
  <outline>
    <contour>
      <point x="393.788847458" y="358.231656841" type="line"/>
      <point x="393.788847458" y="377.0321272" type="line"/>
      <point x="60.31904113" y="377.0321272" type="line"/>
      <point x="60.31904113" y="358.231656841" type="line"/>
    </contour>
    <contour>
      <point x="393.788847458" y="182.267883481" type="line"/>
      <point x="393.788847458" y="201.06835384" type="line"/>
      <point x="60.31904113" y="201.06835384" type="line"/>
      <point x="60.31904113" y="182.267883481" type="line"/>
    </contour>
  </outline>
</glyph>
<glyph name="greater" format="1">
  <advance width="454.107888588"/>
  <unicode hex="003E"/>
  <outline>
    <contour>
      <point x="393.788847458" y="268.991345137" type="line"/>
      <point x="393.788847458" y="290.308665544" type="line"/>
      <point x="60.31904113" y="427.27324816" type="line"/>
      <point x="60.31904113" y="406.147687756" type="line"/>
      <point x="382.364149223" y="275.375355259" type="line"/>
      <point x="382.364149223" y="283.924655422" type="line"/>
      <point x="60.31904113" y="153.152322925" type="line"/>
      <point x="60.31904113" y="132.026762521" type="line"/>
    </contour>
  </outline>
</glyph>
<glyph name="question" format="1">
  <advance width="449.111504491"/>
  <unicode hex="003F"/>
  <outline>
    <contour>
      <point x="220.975118223" y="152.129602905" type="line"/>
      <point x="220.975118223" y="284.180335427"/>
      <point x="378.03599917" y="285.602555454"/>
      <point x="378.03599917" y="428.000338174" type="curve" smooth="yes"/>
      <point x="378.03599917" y="507.724559696"/>
      <point x="310.319461881" y="562.008620733"/>
      <point x="203.12210585" y="562.008620733" type="curve" smooth="yes"/>
      <point x="119.607416253" y="562.008620733"/>
      <point x="57.6962630763" y="535.625640229"/>
      <point x="15.6638582843" y="488.372779327" type="curve"/>
      <point x="29.8375386133" y="475.389029079" type="line"/>
      <point x="70.5625993699" y="520.572479942"/>
      <point x="125.867458402" y="542.896540368"/>
      <point x="202.588165828" y="542.896540368" type="curve" smooth="yes"/>
      <point x="303.729347701" y="542.896540368"/>
      <point x="358.065024712" y="493.686129428"/>
      <point x="358.065024712" y="426.290478141" type="curve" smooth="yes"/>
      <point x="358.065024712" y="295.398295641"/>
      <point x="201.484689784" y="296.085435654"/>
      <point x="201.484689784" y="152.129602905" type="curve"/>
    </contour>
    <contour>
      <point x="234.150492477" y="20.4623903908" type="curve" smooth="yes"/>
      <point x="234.150492477" y="32.9188006287"/>
      <point x="223.694976263" y="43.4416308296"/>
      <point x="211.229904003" y="43.4416308296" type="curve" smooth="yes"/>
      <point x="198.764831744" y="43.4416308296"/>
      <point x="188.30931553" y="32.9188006287"/>
      <point x="188.30931553" y="20.4623903908" type="curve" smooth="yes"/>
      <point x="188.30931553" y="8.02995015335"/>
      <point x="198.764831744" y="-2.56479004898"/>
      <point x="211.229904003" y="-2.56479004898" type="curve" smooth="yes"/>
      <point x="223.694976263" y="-2.56479004898"/>
      <point x="234.150492477" y="8.02995015335"/>
    </contour>
  </outline>
</glyph>
<glyph name="at" format="1">
  <advance width="834.977005751"/>
  <unicode hex="0040"/>
  <outline>
    <contour>
      <point x="575.404496875" y="-120.912672309" type="curve"/>
      <point x="568.327364728" y="-104.013821986" type="line"/>
      <point x="523.60098988" y="-128.007792445"/>
      <point x="463.05057474" y="-139.169822658"/>
      <point x="415.194987835" y="-139.169822658" type="curve" smooth="yes"/>
      <point x="209.807681981" y="-139.169822658"/>
      <point x="65.7797912812" y="1.36629002609"/>
      <point x="65.7797912812" y="202.922033875" type="curve" smooth="yes"/>
      <point x="65.7797912812" y="406.659047766"/>
      <point x="211.443480012" y="544.190920393"/>
      <point x="418.430987896" y="544.190920393" type="curve" smooth="yes"/>
      <point x="623.853889752" y="544.190920393"/>
      <point x="769.46418448" y="410.142687833"/>
      <point x="769.46418448" y="207.396433961" type="curve" smooth="yes"/>
      <point x="769.46418448" y="83.8071116005"/>
      <point x="728.703527722" y="15.7083403"/>
      <point x="674.403446714" y="15.7083403" type="curve" smooth="yes"/>
      <point x="641.572608102" y="15.7083403"/>
      <point x="616.742779639" y="33.8456406464"/>
      <point x="616.742779639" y="81.3541815536" type="curve" smooth="yes"/>
      <point x="616.742779639" y="412.172147871" type="line"/>
      <point x="597.501523209" y="412.172147871" type="line"/>
      <point x="597.501523209" y="265.923185078" type="line"/>
      <point x="605.573725361" y="207.38045396" type="line"/>
      <point x="597.661705216" y="152.001762903" type="line"/>
      <point x="597.661705216" y="73.2203613983" type="line" smooth="yes"/>
      <point x="597.661705216" y="26.0953404984"/>
      <point x="628.146443803" y="-2.54082004852"/>
      <point x="673.620334682" y="-2.54082004852" type="curve" smooth="yes"/>
      <point x="739.194639937" y="-2.54082004852"/>
      <point x="787.779944872" y="71.9100013733"/>
      <point x="787.779944872" y="207.468343962" type="curve" smooth="yes"/>
      <point x="787.779944872" y="420.154158024"/>
      <point x="633.225345956" y="561.960680732"/>
      <point x="418.430987896" y="561.960680732" type="curve" smooth="yes"/>
      <point x="201.751659794" y="561.960680732"/>
      <point x="47.1970608786" y="417.589367975"/>
      <point x="47.1970608786" y="202.922033875" type="curve" smooth="yes"/>
      <point x="47.1970608786" y="-9.51609018173"/>
      <point x="198.586851736" y="-157.714613012"/>
      <point x="415.194987835" y="-157.714613012" type="curve" smooth="yes"/>
      <point x="464.251130771" y="-157.714613012"/>
      <point x="527.655697974" y="-146.408762796"/>
    </contour>
    <contour>
      <point x="612.002039499" y="206.485573943" type="curve" smooth="yes"/>
      <point x="612.002039499" y="328.636696276"/>
      <point x="527.155735919" y="414.71296792"/>
      <point x="412.544703763" y="414.71296792" type="curve" smooth="yes"/>
      <point x="298.236237619" y="414.71296792"/>
      <point x="210.215417962" y="328.756546278"/>
      <point x="210.215417962" y="206.485573943" type="curve" smooth="yes"/>
      <point x="210.215417962" y="84.2146016083"/>
      <point x="298.289631621" y="-2.54082004852"/>
      <point x="412.544703763" y="-2.54082004852" type="curve" smooth="yes"/>
      <point x="527.298119924" y="-2.54082004852"/>
      <point x="612.002039499" y="84.3344516106"/>
    </contour>
    <contour>
      <point x="229.42107839" y="206.485573943" type="curve" smooth="yes"/>
      <point x="229.42107839" y="318.753066087"/>
      <point x="308.319613852" y="396.224107567"/>
      <point x="413.487997801" y="396.224107567" type="curve" smooth="yes"/>
      <point x="518.67417975" y="396.224107567"/>
      <point x="597.572715212" y="318.753066087"/>
      <point x="597.572715212" y="206.485573943" type="curve" smooth="yes"/>
      <point x="597.572715212" y="94.1941117989"/>
      <point x="518.67417975" y="15.9480403046"/>
      <point x="413.487997801" y="15.9480403046" type="curve" smooth="yes"/>
      <point x="308.319613852" y="15.9480403046"/>
      <point x="229.42107839" y="94.1941117989"/>
    </contour>
  </outline>
</glyph>
<glyph name="A" format="1">
  <advance width="558.692174583"/>
  <unicode hex="0041"/>
  <outline>
    <contour>
      <point x="86.0209716283" y="559.323980682" type="move" name="topleft"/>
    </contour>
    <contour>
      <point x="279.346087292" y="559.300010681" type="move" name="top"/>
    </contour>
    <contour>
      <point x="551.909518466" y="0.0" type="move" name="ogonek"/>
    </contour>
    <contour>
      <point x="279.346087292" y="0.0" type="move" name="bottom"/>
    </contour>
    <contour>
      <point x="29.2518226246" y="0.0" type="line"/>
      <point x="284.085209396" y="544.214890393" type="line"/>
      <point x="274.535773184" y="544.214890393" type="line"/>
      <point x="529.369159956" y="0.0" type="line"/>
      <point x="551.909518466" y="0.0" type="line"/>
      <point x="289.322675521" y="559.300010681" type="line"/>
      <point x="269.369499063" y="559.300010681" type="line"/>
      <point x="6.78265611713" y="0.0" type="line"/>
    </contour>
    <contour>
      <point x="470.456160883" y="147.375552814" type="line"/>
      <point x="461.476260694" y="166.176023174" type="line"/>
      <point x="95.7483878472" y="166.176023174" type="line"/>
      <point x="86.7684876586" y="147.375552814" type="line"/>
    </contour>
  </outline>
</glyph>
<glyph name="E" format="1">
  <advance width="540.447606194"/>
  <unicode hex="0045"/>
  <outline>
    <contour>
      <point x="32.2791005895" y="559.300010681" type="move" name="topleft"/>
    </contour>
    <contour>
      <point x="290.128439466" y="559.300010681" type="move" name="top"/>
    </contour>
    <contour>
      <point x="485.302929169" y="0.0" type="move" name="ogonek"/>
    </contour>
    <contour>
      <point x="303.578873713" y="0.0" type="move" name="bottom"/>
    </contour>
    <contour>
      <point x="485.302929169" y="0.0" type="line"/>
      <point x="485.302929169" y="18.9922303627" type="line"/>
      <point x="126.197530433" y="18.9922303627" type="line"/>
      <point x="126.197530433" y="274.632285245" type="line"/>
      <point x="436.869716258" y="274.632285245" type="line"/>
      <point x="436.869716258" y="293.432755604" type="line"/>
      <point x="126.197530433" y="293.432755604" type="line"/>
      <point x="126.197530433" y="540.307780318" type="line"/>
      <point x="473.203524941" y="540.307780318" type="line"/>
      <point x="473.203524941" y="559.300010681" type="line"/>
      <point x="106.244353975" y="559.300010681" type="line"/>
      <point x="106.244353975" y="0.0" type="line"/>
    </contour>
  </outline>
</glyph>
<glyph name="F" format="1">
  <advance width="511.465989651"/>
  <unicode hex="0046"/>
  <outline>
    <contour>
      <point x="126.268722436" y="0.0" type="line"/>
      <point x="126.268722436" y="258.029064928" type="line"/>
      <point x="436.869716258" y="258.029064928" type="line"/>
      <point x="436.869716258" y="277.02129529" type="line"/>
      <point x="126.268722436" y="277.02129529" type="line"/>
      <point x="126.268722436" y="540.307780318" type="line"/>
      <point x="473.203524941" y="540.307780318" type="line"/>
      <point x="473.203524941" y="559.300010681" type="line"/>
      <point x="106.244353975" y="559.300010681" type="line"/>
      <point x="106.244353975" y="0.0" type="line"/>
    </contour>
  </outline>
</glyph>
<glyph name="I" format="1">
  <advance width="232.51307641"/>
  <unicode hex="0049"/>
  <outline>
    <contour>
      <point x="32.2791005895" y="558.524980666" type="move" name="topleft"/>
    </contour>
    <contour>
      <point x="116.256538205" y="559.300010681" type="move" name="top"/>
    </contour>
    <contour>
      <point x="126.268722436" y="0.0" type="move" name="ogonek"/>
    </contour>
    <contour>
      <point x="116.256538205" y="0.0" type="move" name="bottom"/>
    </contour>
    <contour>
      <point x="126.268722436" y="0.0" type="line"/>
      <point x="126.268722436" y="559.300010681" type="line"/>
      <point x="106.244353975" y="559.300010681" type="line"/>
      <point x="106.244353975" y="0.0" type="line"/>
    </contour>
  </outline>
</glyph>
<glyph name="J" format="1">
  <advance width="387.619413348"/>
  <unicode hex="004A"/>
  <outline>
    <contour>
      <point x="170.487045246" y="559.300010681" type="move" name="top"/>
    </contour>
    <contour>
      <point x="286.229059465" y="156.827722995" type="curve" smooth="yes"/>
      <point x="286.229059465" y="559.300010681" type="line"/>
      <point x="54.7272330261" y="559.300010681" type="line"/>
      <point x="54.7272330261" y="540.307780318" type="line"/>
      <point x="266.258085007" y="540.307780318" type="line"/>
      <point x="266.258085007" y="158.042203018" type="line" smooth="yes"/>
      <point x="266.258085007" y="62.1222511864"/>
      <point x="227.008640275" y="16.4514103142"/>
      <point x="145.433932757" y="16.4514103142" type="curve" smooth="yes"/>
      <point x="92.520477769" y="16.4514103142"/>
      <point x="46.7990329151" y="42.5787108131"/>
      <point x="16.074830336" y="89.4081017075" type="curve"/>
      <point x="2.73765604083" y="76.5122414612" type="line"/>
      <point x="33.0444146206" y="26.8304205124"/>
      <point x="86.8833656457" y="-2.70861005173"/>
      <point x="144.998690756" y="-2.70861005173" type="curve" smooth="yes"/>
      <point x="238.541744549" y="-2.70861005173"/>
      <point x="286.229059465" y="50.6965509682"/>
    </contour>
  </outline>
</glyph>
<glyph name="L" format="1">
  <advance width="469.878534877"/>
  <unicode hex="004C"/>
  <outline>
    <contour>
      <point x="116.256538205" y="559.300010681" type="move" name="top"/>
    </contour>
    <contour>
      <point x="292.555439511" y="0.0" type="move" name="bottom"/>
    </contour>
    <contour>
      <point x="360.404652789" y="559.300010681" type="move" name="topright"/>
    </contour>
    <contour>
      <point x="351.204704644" y="289.58157553" type="move" name="dot"/>
    </contour>
    <contour>
      <point x="116.256538205" y="288.598805511" type="move" name="center"/>
    </contour>
    <contour>
      <point x="461.824130726" y="0.0" type="line"/>
      <point x="461.824130726" y="19.112080365" type="line"/>
      <point x="126.268722436" y="19.112080365" type="line"/>
      <point x="126.268722436" y="559.300010681" type="line"/>
      <point x="106.244353975" y="559.300010681" type="line"/>
      <point x="106.244353975" y="0.0" type="line"/>
    </contour>
  </outline>
</glyph>
<glyph name="M" format="1">
  <advance width="773.368418586"/>
  <unicode hex="004D"/>
  <outline>
    <contour>
      <point x="386.666411292" y="559.300010681" type="move" name="top"/>
    </contour>
    <contour>
      <point x="386.666411292" y="0.0" type="move" name="bottom"/>
    </contour>
    <contour>
      <point x="125.89496442" y="0.0" type="line"/>
      <point x="125.89496442" y="529.057860104" type="line"/>
      <point x="118.026630259" y="529.057860104" type="line"/>
      <point x="380.993703168" y="78.2380814941" type="line"/>
      <point x="392.339119417" y="78.2380814941" type="line"/>
      <point x="654.372606305" y="529.057860104" type="line"/>
      <point x="647.437858164" y="529.057860104" type="line"/>
      <point x="647.473454166" y="0.0" type="line"/>
      <point x="667.124064611" y="0.0" type="line"/>
      <point x="667.08846861" y="559.300010681" type="line"/>
      <point x="650.185222223" y="559.300010681" type="line"/>
      <point x="382.6650972" y="97.2782518578" type="line"/>
      <point x="391.601311405" y="97.2782518578" type="line"/>
      <point x="123.147600362" y="559.300010681" type="line"/>
      <point x="106.244353975" y="559.300010681" type="line"/>
      <point x="106.244353975" y="0.0" type="line"/>
    </contour>
  </outline>
</glyph>
<glyph name="P" format="1">
  <advance width="574.977344858"/>
  <unicode hex="0050"/>
  <outline>
    <contour>
      <point x="126.268722436" y="0.0" type="line"/>
      <point x="126.268722436" y="199.52628381" type="line"/>
      <point x="117.279114229" y="190.130043631" type="line"/>
      <point x="299.757157663" y="190.130043631" type="line" smooth="yes"/>
      <point x="439.314514304" y="190.130043631"/>
      <point x="523.015273891" y="258.452534936"/>
      <point x="523.015273891" y="374.715027156" type="curve" smooth="yes"/>
      <point x="523.015273891" y="490.977519376"/>
      <point x="439.314514304" y="559.300010681"/>
      <point x="299.757157663" y="559.300010681" type="curve" smooth="yes"/>
      <point x="106.244353975" y="559.300010681" type="line"/>
      <point x="106.244353975" y="0.0" type="line"/>
    </contour>
    <contour>
      <point x="126.268722436" y="548.976930484" type="line"/>
      <point x="117.279114229" y="540.211900317" type="line"/>
      <point x="301.072591681" y="540.211900317" type="line" smooth="yes"/>
      <point x="431.986592112" y="540.211900317"/>
      <point x="502.955309429" y="479.791519163"/>
      <point x="502.955309429" y="374.715027156" type="curve" smooth="yes"/>
      <point x="502.955309429" y="269.638535149"/>
      <point x="431.986592112" y="209.218153996"/>
      <point x="301.072591681" y="209.218153996" type="curve" smooth="yes"/>
      <point x="117.279114229" y="209.218153996" type="line"/>
      <point x="126.268722436" y="200.453123828" type="line"/>
    </contour>
  </outline>
</glyph>
<glyph name="R" format="1">
  <advance width="579.760152946"/>
  <unicode hex="0052"/>
  <outline>
    <contour>
      <point x="296.325379594" y="559.300010681" type="move" name="top"/>
    </contour>
    <contour>
      <point x="296.325379594" y="0.0" type="move" name="bottom"/>
    </contour>
    <contour>
      <point x="126.268722436" y="0.0" type="line"/>
      <point x="126.268722436" y="199.52628381" type="line"/>
      <point x="117.279114229" y="190.225923633" type="line"/>
      <point x="299.757157663" y="190.225923633" type="line" smooth="yes"/>
      <point x="439.314514304" y="190.225923633"/>
      <point x="523.015273891" y="258.452534936"/>
      <point x="523.015273891" y="374.715027156" type="curve" smooth="yes"/>
      <point x="523.015273891" y="490.977519376"/>
      <point x="439.314514304" y="559.300010681"/>
      <point x="299.757157663" y="559.300010681" type="curve" smooth="yes"/>
      <point x="106.244353975" y="559.300010681" type="line"/>
      <point x="106.244353975" y="0.0" type="line"/>
    </contour>
    <contour>
      <point x="531.194264047" y="0.0" type="line"/>
      <point x="383.307443261" y="202.969973876" type="line"/>
      <point x="359.077892718" y="202.969973876" type="line"/>
      <point x="506.929117502" y="0.0" type="line"/>
    </contour>
    <contour>
      <point x="126.268722436" y="548.976930484" type="line"/>
      <point x="117.279114229" y="540.211900317" type="line"/>
      <point x="301.072591681" y="540.211900317" type="line" smooth="yes"/>
      <point x="431.986592112" y="540.211900317"/>
      <point x="502.955309429" y="479.791519163"/>
      <point x="502.955309429" y="374.715027156" type="curve" smooth="yes"/>
      <point x="502.955309429" y="269.638535149"/>
      <point x="431.986592112" y="209.218153996"/>
      <point x="301.072591681" y="209.218153996" type="curve" smooth="yes"/>
      <point x="117.279114229" y="209.218153996" type="line"/>
      <point x="126.268722436" y="200.453123828" type="line"/>
    </contour>
  </outline>
</glyph>
<glyph name="V" format="1">
  <advance width="544.094578307"/>
  <unicode hex="0056"/>
  <outline>
    <contour>
      <point x="282.023877383" y="0.0" type="line"/>
      <point x="536.520720175" y="559.300010681" type="line"/>
      <point x="514.193937674" y="559.300010681" type="line"/>
      <point x="266.881015032" y="15.0132102867" type="line"/>
      <point x="277.480533286" y="15.0132102867" type="line"/>
      <point x="30.2921966493" y="559.300010681" type="line"/>
      <point x="7.57385813167" y="559.300010681" type="line"/>
      <point x="262.070700924" y="0.0" type="line"/>
    </contour>
  </outline>
</glyph>
<glyph name="Y" format="1">
  <advance width="543.809810296"/>
  <unicode hex="0059"/>
  <outline>
    <contour>
      <point x="271.904905148" y="559.300010681" type="move" name="top"/>
    </contour>
    <contour>
      <point x="271.904905148" y="0.0" type="move" name="bottom"/>
    </contour>
    <contour>
      <point x="281.917089378" y="0.0" type="line"/>
      <point x="281.917089378" y="157.291143004" type="line"/>
      <point x="277.035583268" y="142.285922717" type="line"/>
      <point x="536.37833617" y="559.300010681" type="line"/>
      <point x="514.069351669" y="559.300010681" type="line"/>
      <point x="267.565429042" y="164.210483136" type="line"/>
      <point x="276.582543267" y="164.210483136" type="line"/>
      <point x="30.1142166421" y="559.300010681" type="line"/>
      <point x="7.43147412589" y="559.300010681" type="line"/>
      <point x="266.809823029" y="142.285922717" type="line"/>
      <point x="261.892720917" y="157.291143004" type="line"/>
      <point x="261.892720917" y="0.0" type="line"/>
    </contour>
  </outline>
</glyph>
<glyph name="bracketleft" format="1">
  <advance width="235.163360483"/>
  <unicode hex="005B"/>
  <outline>
    <contour>
      <point x="215.205330112" y="-155.00600296" type="line"/>
      <point x="215.205330112" y="-136.205532601" type="line"/>
      <point x="126.090742428" y="-136.205532601" type="line"/>
      <point x="126.090742428" y="574.057540963" type="line"/>
      <point x="215.205330112" y="574.057540963" type="line"/>
      <point x="215.205330112" y="592.858011322" type="line"/>
      <point x="106.244353975" y="592.858011322" type="line"/>
      <point x="106.244353975" y="-155.00600296" type="line"/>
    </contour>
  </outline>
</glyph>
<glyph name="bracketright" format="1">
  <advance width="235.163360483"/>
  <unicode hex="005D"/>
  <outline>
    <contour>
      <point x="128.919006508" y="592.858011322" type="line"/>
      <point x="19.9580303706" y="592.858011322" type="line"/>
      <point x="19.9580303706" y="574.057540963" type="line"/>
      <point x="109.072618054" y="574.057540963" type="line"/>
      <point x="109.072618054" y="-136.205532601" type="line"/>
      <point x="19.9580303706" y="-136.205532601" type="line"/>
      <point x="19.9580303706" y="-155.00600296" type="line"/>
      <point x="128.919006508" y="-155.00600296" type="line"/>
    </contour>
  </outline>
</glyph>
<glyph name="asciicircum" format="1">
  <advance width="455.690292617"/>
  <unicode hex="005E"/>
  <outline>
    <contour>
      <point x="99.4018319076" y="115.71118221" type="line"/>
      <point x="231.882056402" y="432.243028255" type="line"/>
      <point x="223.808236215" y="432.243028255" type="line"/>
      <point x="356.28846071" y="115.71118221" type="line"/>
      <point x="376.720565152" y="115.71118221" type="line"/>
      <point x="238.132390533" y="443.588828471" type="line"/>
      <point x="217.557902085" y="443.588828471" type="line"/>
      <point x="78.9697274652" y="115.71118221" type="line"/>
    </contour>
  </outline>
</glyph>
<glyph name="underscore" format="1">
  <advance width="404.500007629"/>
  <unicode hex="005F"/>
  <outline>
    <contour>
      <point x="404.500007629" y="-17.6019703362" type="line"/>
      <point x="404.500007629" y="0.0" type="line"/>
      <point x="0.0" y="0.0" type="line"/>
      <point x="0.0" y="-17.6019703362" type="line"/>
    </contour>
  </outline>
</glyph>
<glyph name="a" format="1">
  <advance width="465.344898798"/>
  <unicode hex="0061"/>
  <outline>
    <contour>
      <point x="221.533328193" y="413.802107903" type="move" name="top"/>
    </contour>
    <contour>
      <point x="377.146099134" y="0.0" type="move" name="ogonek"/>
    </contour>
    <contour>
      <point x="229.035994322" y="0.0" type="move" name="bottom"/>
    </contour>
    <contour>
      <point x="378.249575179" y="0.0" type="line"/>
      <point x="378.249575179" y="269.782355152" type="line" smooth="yes"/>
      <point x="378.249575179" y="365.598436982"/>
      <point x="324.899260156" y="416.366897952"/>
      <point x="226.626792277" y="416.366897952" type="curve" smooth="yes"/>
      <point x="163.418003082" y="416.366897952"/>
      <point x="103.142647937" y="392.588657497"/>
      <point x="63.234677178" y="355.203446783" type="curve"/>
      <point x="75.5929614335" y="340.781496508" type="line"/>
      <point x="111.837780114" y="374.754977157"/>
      <point x="165.036003113" y="397.614367593"/>
      <point x="226.741670264" y="397.614367593" type="curve" smooth="yes"/>
      <point x="312.752933874" y="397.614367593"/>
      <point x="358.403186725" y="354.292586766"/>
      <point x="358.403186725" y="269.318935143" type="curve" smooth="yes"/>
      <point x="358.403186725" y="111.452512128" type="line"/>
      <point x="358.687954737" y="97.6537818649" type="line"/>
      <point x="358.687954737" y="0.0" type="line"/>
    </contour>
    <contour>
      <point x="366.831348892" y="107.289722049" type="curve"/>
      <point x="358.403186725" y="118.971102272" type="line"/>
      <point x="331.288742222" y="53.0056610123"/>
      <point x="280.944671286" y="15.4207002945"/>
      <point x="201.27273181" y="15.4207002945" type="curve" smooth="yes"/>
      <point x="119.173792288" y="15.4207002945"/>
      <point x="71.3457114016" y="53.8526010284"/>
      <point x="71.3457114016" y="114.904192194" type="curve" smooth="yes"/>
      <point x="71.3457114016" y="169.100363229"/>
      <point x="108.114762085" y="208.235383977"/>
      <point x="201.539701821" y="208.235383977" type="curve" smooth="yes"/>
      <point x="367.497964901" y="208.235383977" type="line"/>
      <point x="367.497964901" y="225.573684308" type="line"/>
      <point x="201.69017581" y="225.573684308" type="line" smooth="yes"/>
      <point x="89.5142336822" y="225.573684308"/>
      <point x="51.7306969572" y="173.782503319"/>
      <point x="51.7306969572" y="113.889462175" type="curve" smooth="yes"/>
      <point x="51.7306969572" y="44.2086708443"/>
      <point x="105.93369798" y="-2.56479004898"/>
      <point x="200.062467761" y="-2.56479004898" type="curve" smooth="yes"/>
      <point x="287.185297399" y="-2.56479004898"/>
      <point x="344.357328471" y="41.0206607834"/>
    </contour>
  </outline>
</glyph>
<glyph name="b" format="1">
  <advance width="543.248364255"/>
  <unicode hex="0062"/>
  <outline>
    <contour>
      <point x="500.149697455" y="207.300553959" type="curve" smooth="yes"/>
      <point x="500.149697455" y="330.098866304"/>
      <point x="411.790715785" y="416.366897952"/>
      <point x="296.912713618" y="416.366897952" type="curve" smooth="yes"/>
      <point x="182.052509452" y="416.366897952"/>
      <point x="97.0460238647" y="330.530326312"/>
      <point x="97.0460238647" y="207.300553959" type="curve" smooth="yes"/>
      <point x="97.0460238647" y="83.9988716042"/>
      <point x="181.910125446" y="-2.56479004898"/>
      <point x="296.912713618" y="-2.56479004898" type="curve" smooth="yes"/>
      <point x="411.790715785" y="-2.56479004898"/>
      <point x="500.149697455" y="84.5022416138"/>
    </contour>
    <contour>
      <point x="111.528742154" y="0.0" type="line"/>
      <point x="111.528742154" y="149.029482846" type="line"/>
      <point x="103.634520009" y="208.075583974" type="line"/>
      <point x="111.724520162" y="267.121685101" type="line"/>
      <point x="111.724520162" y="592.858011322" type="line"/>
      <point x="91.8781317079" y="592.858011322" type="line"/>
      <point x="91.8781317079" y="0.0" type="line"/>
    </contour>
    <contour>
      <point x="111.653328159" y="207.300553959" type="curve" smooth="yes"/>
      <point x="111.653328159" y="319.831716108"/>
      <point x="190.676449626" y="397.42260759"/>
      <point x="296.005015581" y="397.42260759" type="curve" smooth="yes"/>
      <point x="401.333581536" y="397.42260759"/>
      <point x="480.356703003" y="319.831716108"/>
      <point x="480.356703003" y="207.300553959" type="curve" smooth="yes"/>
      <point x="480.356703003" y="94.7693918098"/>
      <point x="401.333581536" y="16.3795003128"/>
      <point x="296.005015581" y="16.3795003128" type="curve" smooth="yes"/>
      <point x="190.676449626" y="16.3795003128"/>
      <point x="111.653328159" y="94.7693918098"/>
    </contour>
  </outline>
</glyph>
<glyph name="d" format="1">
  <advance width="543.337354259"/>
  <unicode hex="0064"/>
  <outline>
    <contour>
      <point x="266.20630904" y="0.0" type="move" name="bottom"/>
    </contour>
    <contour>
      <point x="390.009199358" y="503.609709618" type="move" name="center"/>
    </contour>
    <contour>
      <point x="531.878678057" y="592.858011322" type="move" name="topright"/>
    </contour>
    <contour>
      <point x="446.291330394" y="207.300553959" type="curve" smooth="yes"/>
      <point x="446.291330394" y="330.530326312"/>
      <point x="361.284844807" y="416.366897952"/>
      <point x="246.424640641" y="416.366897952" type="curve" smooth="yes"/>
      <point x="131.546638474" y="416.366897952"/>
      <point x="43.1876568038" y="330.098866304"/>
      <point x="43.1876568038" y="207.300553959" type="curve" smooth="yes"/>
      <point x="43.1876568038" y="84.5022416138"/>
      <point x="131.546638474" y="-2.56479004898"/>
      <point x="246.424640641" y="-2.56479004898" type="curve" smooth="yes"/>
      <point x="361.427228813" y="-2.56479004898"/>
      <point x="446.291330394" y="83.9988716042"/>
    </contour>
    <contour>
      <point x="62.9806512554" y="207.300553959" type="curve" smooth="yes"/>
      <point x="62.9806512554" y="319.831716108"/>
      <point x="142.003772723" y="397.42260759"/>
      <point x="247.332338678" y="397.42260759" type="curve" smooth="yes"/>
      <point x="352.660904633" y="397.42260759"/>
      <point x="431.6840261" y="319.831716108"/>
      <point x="431.6840261" y="207.300553959" type="curve" smooth="yes"/>
      <point x="431.6840261" y="94.7693918098"/>
      <point x="352.660904633" y="16.3795003128"/>
      <point x="247.332338678" y="16.3795003128" type="curve" smooth="yes"/>
      <point x="142.003772723" y="16.3795003128"/>
      <point x="62.9806512554" y="94.7693918098"/>
    </contour>
    <contour>
      <point x="451.459222551" y="0.0" type="line"/>
      <point x="451.459222551" y="592.858011322" type="line"/>
      <point x="431.612834097" y="592.858011322" type="line"/>
      <point x="431.612834097" y="267.121685101" type="line"/>
      <point x="439.70283425" y="208.075583974" type="line"/>
      <point x="431.808612105" y="149.029482846" type="line"/>
      <point x="431.808612105" y="0.0" type="line"/>
    </contour>
  </outline>
</glyph>
<glyph name="g" format="1">
  <advance width="548.19135435"/>
  <unicode hex="0067"/>
  <outline>
    <contour>
      <point x="255.440136831" y="413.802107903" type="move" name="top"/>
    </contour>
    <contour>
      <point x="456.313222643" y="38.2641107307" type="curve" smooth="yes"/>
      <point x="456.313222643" y="413.802107903" type="line"/>
      <point x="436.662612197" y="413.802107903" type="line"/>
      <point x="436.662612197" y="266.106955082" type="line"/>
      <point x="444.556834341" y="215.530254116" type="line"/>
      <point x="436.466834189" y="164.95355315" type="line"/>
      <point x="436.466834189" y="35.1959506721" type="line" smooth="yes"/>
      <point x="436.466834189" y="-85.1334516258"/>
      <point x="380.424167144" y="-138.818262651"/>
      <point x="260.915448913" y="-138.818262651" type="curve" smooth="yes"/>
      <point x="191.048589606" y="-138.818262651"/>
      <point x="130.426982464" y="-115.839022212"/>
      <point x="87.7279616624" y="-74.7464514275" type="curve"/>
      <point x="75.298485404" y="-89.2882517052" type="line"/>
      <point x="115.277648165" y="-132.218522525"/>
      <point x="185.047427486" y="-157.570793009"/>
      <point x="261.324802929" y="-157.570793009" type="curve" smooth="yes"/>
      <point x="391.601311405" y="-157.570793009"/>
      <point x="456.313222643" y="-96.2475418381"/>
    </contour>
    <contour>
      <point x="450.896158476" y="215.530254116" type="curve" smooth="yes"/>
      <point x="450.896158476" y="333.774266374"/>
      <point x="365.907470889" y="416.366897952"/>
      <point x="248.69145868" y="416.366897952" type="curve" smooth="yes"/>
      <point x="131.511042473" y="416.366897952"/>
      <point x="43.0986668002" y="333.342806366"/>
      <point x="43.0986668002" y="215.530254116" type="curve" smooth="yes"/>
      <point x="43.0986668002" y="97.7177018661"/>
      <point x="131.511042473" y="13.8946102654"/>
      <point x="248.69145868" y="13.8946102654" type="curve" smooth="yes"/>
      <point x="365.907470889" y="13.8946102654"/>
      <point x="450.896158476" y="98.0612718727"/>
    </contour>
    <contour>
      <point x="62.8916612518" y="215.530254116" type="curve" smooth="yes"/>
      <point x="62.8916612518" y="322.979776168"/>
      <point x="141.93258072" y="397.42260759"/>
      <point x="249.599156717" y="397.42260759" type="curve" smooth="yes"/>
      <point x="357.265732714" y="397.42260759"/>
      <point x="436.288854182" y="322.979776168"/>
      <point x="436.288854182" y="215.530254116" type="curve" smooth="yes"/>
      <point x="436.288854182" y="108.080732064"/>
      <point x="357.265732714" y="32.8389006271"/>
      <point x="249.599156717" y="32.8389006271" type="curve" smooth="yes"/>
      <point x="141.93258072" y="32.8389006271"/>
      <point x="62.8916612518" y="108.080732064"/>
    </contour>
  </outline>
</glyph>
<glyph name="m" format="1">
  <advance width="863.513672276"/>
  <unicode hex="006D"/>
  <outline>
    <contour>
      <point x="434.112644181" y="0.0" type="move" name="bottom"/>
    </contour>
    <contour>
      <point x="776.418348657" y="0.0" type="line"/>
      <point x="776.418348657" y="243.862794657" type="line" smooth="yes"/>
      <point x="776.418348657" y="356.489836808"/>
      <point x="713.82278147" y="416.366897952"/>
      <point x="613.506779578" y="416.366897952" type="curve" smooth="yes"/>
      <point x="500.70952546" y="416.366897952"/>
      <point x="431.064332145" y="340.286116499"/>
      <point x="430.548190124" y="236.799634522" type="curve"/>
      <point x="444.071434409" y="224.183424281" type="line"/>
      <point x="444.071434409" y="327.462166254"/>
      <point x="507.919333595" y="397.087027583"/>
      <point x="613.069919542" y="397.087027583" type="curve" smooth="yes"/>
      <point x="703.116475211" y="397.087027583"/>
      <point x="756.571960203" y="343.761766565"/>
      <point x="756.571960203" y="242.927964639" type="curve" smooth="yes"/>
      <point x="756.571960203" y="0.0" type="line"/>
    </contour>
    <contour>
      <point x="111.724520162" y="0.0" type="line"/>
      <point x="111.724520162" y="252.539934823" type="line"/>
      <point x="111.528742154" y="269.14315514" type="line"/>
      <point x="111.528742154" y="413.802107903" type="line"/>
      <point x="91.8781317079" y="413.802107903" type="line"/>
      <point x="91.8781317079" y="0.0" type="line"/>
    </contour>
    <contour>
      <point x="444.071434409" y="0.0" type="line"/>
      <point x="444.071434409" y="243.862794657" type="line" smooth="yes"/>
      <point x="444.071434409" y="356.417926807"/>
      <point x="381.475867222" y="416.366897952"/>
      <point x="281.231057333" y="416.366897952" type="curve" smooth="yes"/>
      <point x="167.642601201" y="416.366897952"/>
      <point x="98.7174178974" y="340.214206497"/>
      <point x="98.3792558837" y="230.463564401" type="curve"/>
      <point x="111.724520162" y="224.183424281" type="line"/>
      <point x="111.724520162" y="327.462166254"/>
      <point x="175.572419347" y="397.087027583"/>
      <point x="280.723005295" y="397.087027583" type="curve" smooth="yes"/>
      <point x="370.805156965" y="397.087027583"/>
      <point x="424.225045956" y="343.761766565"/>
      <point x="424.225045956" y="242.927964639" type="curve" smooth="yes"/>
      <point x="424.225045956" y="0.0" type="line"/>
    </contour>
  </outline>
</glyph>
<glyph name="n" format="1">
  <advance width="541.017142217"/>
  <unicode hex="006E"/>
  <outline>
    <contour>
      <point x="271.370965126" y="413.802107903" type="move" name="top"/>
    </contour>
    <contour>
      <point x="271.370965126" y="0.0" type="move" name="bottom"/>
    </contour>
    <contour>
      <point x="453.921818598" y="0.0" type="line"/>
      <point x="453.921818598" y="243.862794657" type="line" smooth="yes"/>
      <point x="453.921818598" y="356.489836808"/>
      <point x="388.881453365" y="416.366897952"/>
      <point x="286.156249427" y="416.366897952" type="curve" smooth="yes"/>
      <point x="169.313995234" y="416.366897952"/>
      <point x="98.7352158981" y="340.214206497"/>
      <point x="98.3792558837" y="230.463564401" type="curve"/>
      <point x="111.724520162" y="223.943724277" type="line"/>
      <point x="111.724520162" y="327.414226253"/>
      <point x="177.297207382" y="397.087027583"/>
      <point x="285.719389392" y="397.087027583" type="curve" smooth="yes"/>
      <point x="379.019743123" y="397.087027583"/>
      <point x="434.075430144" y="343.761766565"/>
      <point x="434.075430144" y="242.927964639" type="curve" smooth="yes"/>
      <point x="434.075430144" y="0.0" type="line"/>
    </contour>
    <contour>
      <point x="111.724520162" y="0.0" type="line"/>
      <point x="111.724520162" y="252.539934823" type="line"/>
      <point x="111.528742154" y="269.14315514" type="line"/>
      <point x="111.528742154" y="413.802107903" type="line"/>
      <point x="91.8781317079" y="413.802107903" type="line"/>
      <point x="91.8781317079" y="0.0" type="line"/>
    </contour>
  </outline>
</glyph>
<glyph name="o" format="1">
  <advance width="494.486697348"/>
  <unicode hex="006F"/>
  <outline>
    <contour>
      <point x="247.189954672" y="0.0" type="move" name="bottom"/>
    </contour>
    <contour>
      <point x="247.189954672" y="413.802107903" type="move" name="top"/>
    </contour>
    <contour>
      <point x="316.631279996" y="0.0" type="move" name="ogonek"/>
    </contour>
    <contour>
      <point x="376.282087082" y="414.577137917" type="move" name="topright"/>
    </contour>
    <contour>
      <point x="247.189954672" y="207.300553959" type="move" name="center"/>
    </contour>
    <contour>
      <point x="451.388030548" y="207.300553959" type="curve" smooth="yes"/>
      <point x="451.388030548" y="329.859166299"/>
      <point x="364.415674899" y="416.366897952"/>
      <point x="247.243348674" y="416.366897952" type="curve" smooth="yes"/>
      <point x="130.071022449" y="416.366897952"/>
      <point x="43.0986668002" y="329.859166299"/>
      <point x="43.0986668002" y="207.300553959" type="curve" smooth="yes"/>
      <point x="43.0986668002" y="84.7419416183"/>
      <point x="130.071022449" y="-2.56479004898"/>
      <point x="247.243348674" y="-2.56479004898" type="curve" smooth="yes"/>
      <point x="364.415674899" y="-2.56479004898"/>
      <point x="451.388030548" y="84.7419416183"/>
    </contour>
    <contour>
      <point x="62.8916612518" y="207.300553959" type="curve" smooth="yes"/>
      <point x="62.8916612518" y="319.831716108"/>
      <point x="141.914782719" y="397.42260759"/>
      <point x="247.243348674" y="397.42260759" type="curve" smooth="yes"/>
      <point x="352.571914629" y="397.42260759"/>
      <point x="431.595036096" y="319.831716108"/>
      <point x="431.595036096" y="207.300553959" type="curve" smooth="yes"/>
      <point x="431.595036096" y="94.7693918098"/>
      <point x="352.571914629" y="16.3795003128"/>
      <point x="247.243348674" y="16.3795003128" type="curve" smooth="yes"/>
      <point x="141.914782719" y="16.3795003128"/>
      <point x="62.8916612518" y="94.7693918098"/>
    </contour>
  </outline>
</glyph>
<glyph name="p" format="1">
  <advance width="543.248364255"/>
  <unicode hex="0070"/>
  <outline>
    <contour>
      <point x="296.022813582" y="413.802107903" type="move" name="top"/>
    </contour>
    <contour>
      <point x="296.948309619" y="0.0" type="move" name="bottom"/>
    </contour>
    <contour>
      <point x="500.149697455" y="206.501553944" type="curve" smooth="yes"/>
      <point x="500.149697455" y="329.299866289"/>
      <point x="411.790715785" y="416.366897952"/>
      <point x="296.912713618" y="416.366897952" type="curve" smooth="yes"/>
      <point x="181.910125446" y="416.366897952"/>
      <point x="97.0460238647" y="329.803236298"/>
      <point x="97.0460238647" y="206.501553944" type="curve" smooth="yes"/>
      <point x="97.0460238647" y="83.2717815903"/>
      <point x="182.052509452" y="-2.56479004898"/>
      <point x="296.912713618" y="-2.56479004898" type="curve" smooth="yes"/>
      <point x="411.790715785" y="-2.56479004898"/>
      <point x="500.149697455" y="83.7032415985"/>
    </contour>
    <contour>
      <point x="111.724520162" y="-155.00600296" type="line"/>
      <point x="111.724520162" y="146.680422801" type="line"/>
      <point x="103.634520009" y="205.726523929" type="line"/>
      <point x="111.528742154" y="264.772625056" type="line"/>
      <point x="111.528742154" y="413.802107903" type="line"/>
      <point x="91.8781317079" y="413.802107903" type="line"/>
      <point x="91.8781317079" y="-155.00600296" type="line"/>
    </contour>
    <contour>
      <point x="111.653328159" y="206.501553944" type="curve" smooth="yes"/>
      <point x="111.653328159" y="319.032716093"/>
      <point x="190.676449626" y="397.42260759"/>
      <point x="296.005015581" y="397.42260759" type="curve" smooth="yes"/>
      <point x="401.333581536" y="397.42260759"/>
      <point x="480.356703003" y="319.032716093"/>
      <point x="480.356703003" y="206.501553944" type="curve" smooth="yes"/>
      <point x="480.356703003" y="93.9703917946"/>
      <point x="401.333581536" y="16.3795003128"/>
      <point x="296.005015581" y="16.3795003128" type="curve" smooth="yes"/>
      <point x="190.676449626" y="16.3795003128"/>
      <point x="111.653328159" y="93.9703917946"/>
    </contour>
  </outline>
</glyph>
<glyph name="s" format="1">
  <advance width="376.631575149"/>
  <unicode hex="0073"/>
  <outline>
    <contour>
      <point x="188.595701577" y="413.802107903" type="move" name="top"/>
    </contour>
    <contour>
      <point x="188.595701577" y="0.0" type="move" name="bottom"/>
    </contour>
    <contour>
      <point x="346.912150593" y="105.723682019" type="curve" smooth="yes"/>
      <point x="346.912150593" y="262.103965005"/>
      <point x="60.4468632053" y="169.65167324"/>
      <point x="60.4468632053" y="308.973305901" type="curve" smooth="yes"/>
      <point x="60.4468632053" y="365.862106987"/>
      <point x="108.994954104" y="397.9499476"/>
      <point x="189.938641614" y="397.9499476" type="curve" smooth="yes"/>
      <point x="236.64706649" y="397.9499476"/>
      <point x="285.115875403" y="384.558707344"/>
      <point x="318.551846039" y="358.239646841" type="curve"/>
      <point x="329.149746258" y="374.211657146" type="line"/>
      <point x="296.380391631" y="399.731717634"/>
      <point x="241.9460166" y="416.366897952"/>
      <point x="189.885247612" y="416.366897952" type="curve" smooth="yes"/>
      <point x="98.609011858" y="416.366897952"/>
      <point x="40.1118387492" y="374.826887158"/>
      <point x="40.1118387492" y="308.853455898" type="curve" smooth="yes"/>
      <point x="40.1118387492" y="147.775052822"/>
      <point x="327.386126152" y="241.026344603"/>
      <point x="327.386126152" y="105.603832017" type="curve" smooth="yes"/>
      <point x="327.386126152" y="47.0930608994"/>
      <point x="279.647035269" y="15.8521603027"/>
      <point x="190.053519601" y="15.8521603027" type="curve" smooth="yes"/>
      <point x="123.226882347" y="15.8521603027"/>
      <point x="66.5256892764" y="41.0845807846"/>
      <point x="36.325718701" y="69.7287313316" type="curve"/>
      <point x="25.7278184818" y="53.7567210266" type="line"/>
      <point x="57.5813850891" y="21.2134504051"/>
      <point x="121.830548308" y="-2.56479004898"/>
      <point x="189.964529597" y="-2.56479004898" type="curve" smooth="yes"/>
      <point x="288.468371486" y="-2.56479004898"/>
      <point x="346.912150593" y="38.2481307304"/>
    </contour>
  </outline>
</glyph>
<glyph name="u" format="1">
  <advance width="537.781142156"/>
  <unicode hex="0075"/>
  <outline>
    <contour>
      <point x="266.499167034" y="413.802107903" type="move" name="top"/>
    </contour>
    <contour>
      <point x="445.903010448" y="0.0" type="move" name="ogonek"/>
    </contour>
    <contour>
      <point x="436.771018236" y="413.802107903" type="move" name="topright"/>
    </contour>
    <contour>
      <point x="266.499167034" y="0.0" type="move" name="bottom"/>
    </contour>
    <contour>
      <point x="439.401886273" y="183.338543501" type="curve"/>
      <point x="426.056621995" y="189.858383626" type="line"/>
      <point x="426.056621995" y="86.3878816498"/>
      <point x="362.875338819" y="16.7150803192"/>
      <point x="259.324954901" y="16.7150803192" type="curve" smooth="yes"/>
      <point x="162.80639911" y="16.7150803192"/>
      <point x="106.941712073" y="70.0403413376"/>
      <point x="106.941712073" y="171.113843268" type="curve" smooth="yes"/>
      <point x="106.941712073" y="413.802107903" type="line"/>
      <point x="87.0953236192" y="413.802107903" type="line"/>
      <point x="87.0953236192" y="170.17901325" type="line" smooth="yes"/>
      <point x="87.0953236192" y="57.4081510963"/>
      <point x="152.944688868" y="-2.56479004898"/>
      <point x="258.923690867" y="-2.56479004898" type="curve" smooth="yes"/>
      <point x="370.894146969" y="-2.56479004898"/>
      <point x="439.045926258" y="73.5879014053"/>
    </contour>
    <contour>
      <point x="445.903010448" y="0.0" type="line"/>
      <point x="445.903010448" y="413.802107903" type="line"/>
      <point x="426.056621995" y="413.802107903" type="line"/>
      <point x="426.056621995" y="161.26217308" type="line"/>
      <point x="426.252400003" y="144.658952763" type="line"/>
      <point x="426.252400003" y="0.0" type="line"/>
    </contour>
  </outline>
</glyph>
<glyph name="y" format="1">
  <advance width="413.39253585"/>
  <unicode hex="0079"/>
  <outline>
    <contour>
      <point x="194.6680557" y="413.802107903" type="move" name="top"/>
    </contour>
    <contour>
      <point x="279.970635352" y="0.0" type="move" name="bottom"/>
    </contour>
    <contour>
      <point x="187.327189613" y="-64.5911612335" type="curve" smooth="yes"/>
      <point x="408.912293773" y="413.802107903" type="line"/>
      <point x="386.905875284" y="413.802107903" type="line"/>
      <point x="202.605963829" y="13.2713902534" type="line"/>
      <point x="198.365185745" y="7.31884013977" type="line"/>
      <point x="167.890155176" y="-59.1739411301" type="line" smooth="yes"/>
      <point x="139.175508643" y="-120.4172923"/>
      <point x="107.980468062" y="-138.650472648"/>
      <point x="67.7084473068" y="-138.650472648" type="curve" smooth="yes"/>
      <point x="34.7886186913" y="-138.650472648"/>
      <point x="11.2920222473" y="-128.28744245"/>
      <point x="-11.2531901756" y="-104.629051998" type="curve"/>
      <point x="-24.4560704478" y="-120.744882306" type="line"/>
      <point x="-1.64388801403" y="-145.489912778"/>
      <point x="30.4410526027" y="-157.570793009"/>
      <point x="67.1130233002" y="-157.570793009" type="curve" smooth="yes"/>
      <point x="117.440914271" y="-157.570793009"/>
      <point x="155.402431003" y="-134.06421256"/>
    </contour>
    <contour>
      <point x="210.911158026" y="13.7507902626" type="line"/>
      <point x="26.8070245781" y="413.802107903" type="line"/>
      <point x="4.4802420764" y="413.802107903" type="line"/>
      <point x="200.978255781" y="-9.12458017426" type="line"/>
    </contour>
  </outline>
</glyph>
<glyph name="braceleft" format="1">
  <advance width="245.156128677"/>
  <unicode hex="007B"/>
  <outline>
    <contour>
      <point x="225.198098307" y="-155.00600296" type="line"/>
      <point x="225.198098307" y="-136.205532601" type="line"/>
      <point x="199.701653834" y="-136.205532601" type="line" smooth="yes"/>
      <point x="156.140239015" y="-136.205532601"/>
      <point x="136.724238649" y="-112.355382146"/>
      <point x="136.724238649" y="-70.2241113411" type="curve" smooth="yes"/>
      <point x="136.724238649" y="167.662163202" type="line" smooth="yes"/>
      <point x="136.724238649" y="201.300063844"/>
      <point x="126.393308441" y="213.596674079"/>
      <point x="104.691073999" y="220.763704216" type="curve"/>
      <point x="104.691073999" y="217.088304146" type="line"/>
      <point x="126.393308441" y="224.255334283"/>
      <point x="136.724238649" y="236.551944518"/>
      <point x="136.724238649" y="270.18984516" type="curve" smooth="yes"/>
      <point x="136.724238649" y="508.076119703" type="line" smooth="yes"/>
      <point x="136.724238649" y="550.207390508"/>
      <point x="156.140239015" y="574.057540963"/>
      <point x="199.701653834" y="574.057540963" type="curve" smooth="yes"/>
      <point x="225.198098307" y="574.057540963" type="line"/>
      <point x="225.198098307" y="592.858011322" type="line"/>
      <point x="204.10099589" y="592.858011322" type="line" smooth="yes"/>
      <point x="146.749366775" y="592.858011322"/>
      <point x="116.877850195" y="566.187390813"/>
      <point x="116.877850195" y="508.699339715" type="curve" smooth="yes"/>
      <point x="116.877850195" y="270.069995158" type="line" smooth="yes"/>
      <point x="116.877850195" y="240.674784596"/>
      <point x="103.89825395" y="228.713754368"/>
      <point x="80.50844551" y="228.713754368" type="curve" smooth="yes"/>
      <point x="52.2290409774" y="228.713754368" type="line"/>
      <point x="52.2290409774" y="209.913284009" type="line"/>
      <point x="80.50844551" y="209.913284009" type="line" smooth="yes"/>
      <point x="103.89825395" y="209.913284009"/>
      <point x="116.877850195" y="197.177223766"/>
      <point x="116.877850195" y="167.782013204" type="curve" smooth="yes"/>
      <point x="116.877850195" y="-70.847331353" type="line" smooth="yes"/>
      <point x="116.877850195" y="-128.335382451"/>
      <point x="146.749366775" y="-155.00600296"/>
      <point x="204.10099589" y="-155.00600296" type="curve" smooth="yes"/>
    </contour>
  </outline>
</glyph>
<glyph name="bar" format="1">
  <advance width="231.979136389"/>
  <unicode hex="007C"/>
  <outline>
    <contour>
      <point x="125.734782414" y="-155.00600296" type="line"/>
      <point x="125.734782414" y="592.858011322" type="line"/>
      <point x="106.244353975" y="592.858011322" type="line"/>
      <point x="106.244353975" y="-155.00600296" type="line"/>
    </contour>
  </outline>
</glyph>
<glyph name="braceright" format="1">
  <advance width="245.156128677"/>
  <unicode hex="007D"/>
  <outline>
    <contour>
      <point x="128.278278482" y="-70.847331353" type="curve" smooth="yes"/>
      <point x="128.278278482" y="167.782013204" type="line" smooth="yes"/>
      <point x="128.278278482" y="197.177223766"/>
      <point x="141.257874728" y="209.913284009"/>
      <point x="164.647683167" y="209.913284009" type="curve" smooth="yes"/>
      <point x="192.9270877" y="209.913284009" type="line"/>
      <point x="192.9270877" y="228.713754368" type="line"/>
      <point x="164.647683167" y="228.713754368" type="line" smooth="yes"/>
      <point x="141.257874728" y="228.713754368"/>
      <point x="128.278278482" y="240.674784596"/>
      <point x="128.278278482" y="270.069995158" type="curve" smooth="yes"/>
      <point x="128.278278482" y="508.699339715" type="line" smooth="yes"/>
      <point x="128.278278482" y="566.187390813"/>
      <point x="98.4067619024" y="592.858011322"/>
      <point x="41.0551327875" y="592.858011322" type="curve" smooth="yes"/>
      <point x="19.9580303706" y="592.858011322" type="line"/>
      <point x="19.9580303706" y="574.057540963" type="line"/>
      <point x="45.4544748431" y="574.057540963" type="line" smooth="yes"/>
      <point x="89.015889662" y="574.057540963"/>
      <point x="108.431890028" y="550.207390508"/>
      <point x="108.431890028" y="508.076119703" type="curve" smooth="yes"/>
      <point x="108.431890028" y="270.18984516" type="line" smooth="yes"/>
      <point x="108.431890028" y="236.551944518"/>
      <point x="118.762820237" y="224.255334283"/>
      <point x="140.465054678" y="217.088304146" type="curve"/>
      <point x="140.465054678" y="220.763704216" type="line"/>
      <point x="118.762820237" y="213.596674079"/>
      <point x="108.431890028" y="201.300063844"/>
      <point x="108.431890028" y="167.662163202" type="curve" smooth="yes"/>
      <point x="108.431890028" y="-70.2241113411" type="line" smooth="yes"/>
      <point x="108.431890028" y="-112.355382146"/>
      <point x="89.015889662" y="-136.205532601"/>
      <point x="45.4544748431" y="-136.205532601" type="curve" smooth="yes"/>
      <point x="19.9580303706" y="-136.205532601" type="line"/>
      <point x="19.9580303706" y="-155.00600296" type="line"/>
      <point x="41.0551327875" y="-155.00600296" type="line" smooth="yes"/>
      <point x="98.4067619024" y="-155.00600296"/>
      <point x="128.278278482" y="-128.335382451"/>
    </contour>
  </outline>
</glyph>
<glyph name="asciitilde" format="1">
  <advance width="454.107888588"/>
  <unicode hex="007E"/>
  <outline>
    <contour>
      <point x="398.803029556" y="329.467656292" type="curve"/>
      <point x="382.105269195" y="329.467656292" type="line"/>
      <point x="379.69606715" y="278.131905312"/>
      <point x="353.230440656" y="245.029334679"/>
      <point x="309.198187835" y="245.029334679" type="curve" smooth="yes"/>
      <point x="243.518712611" y="245.029334679"/>
      <point x="221.373146187" y="332.080386342"/>
      <point x="144.58933674" y="332.080386342" type="curve" smooth="yes"/>
      <point x="93.7728097671" y="332.080386342"/>
      <point x="58.5052630915" y="293.688435609"/>
      <point x="55.3048590319" y="229.904264391" type="curve"/>
      <point x="72.0026193932" y="229.904264391" type="line"/>
      <point x="74.4118214382" y="281.240015371"/>
      <point x="100.877447932" y="314.342586003"/>
      <point x="144.909700753" y="314.342586003" type="curve" smooth="yes"/>
      <point x="210.589175977" y="314.342586003"/>
      <point x="232.734742402" y="227.291534341"/>
      <point x="309.518551848" y="227.291534341" type="curve" smooth="yes"/>
      <point x="360.335078821" y="227.291534341"/>
      <point x="395.602625497" y="265.683485074"/>
    </contour>
  </outline>
</glyph>
<glyph name="exclamdown" format="1">
  <advance width="149.587338872"/>
  <unicode hex="00A1"/>
  <outline>
    <contour>
      <point x="67.6534352695" y="261.193104988" type="line"/>
      <point x="63.6877171789" y="-123.04600235" type="line"/>
      <point x="85.8996216935" y="-123.04600235" type="line"/>
      <point x="81.9339036029" y="261.193104988" type="line"/>
    </contour>
    <contour>
      <point x="51.873080963" y="393.100017507" type="curve" smooth="yes"/>
      <point x="51.873080963" y="380.403907265"/>
      <point x="62.3819911785" y="369.881077064"/>
      <point x="74.7936694362" y="369.881077064" type="curve" smooth="yes"/>
      <point x="87.2053476938" y="369.881077064"/>
      <point x="97.7142579094" y="380.403907265"/>
      <point x="97.7142579094" y="393.100017507" type="curve" smooth="yes"/>
      <point x="97.7142579094" y="405.772157749"/>
      <point x="87.2053476938" y="416.366897952"/>
      <point x="74.7936694362" y="416.366897952" type="curve" smooth="yes"/>
      <point x="62.3819911785" y="416.366897952"/>
      <point x="51.873080963" y="405.772157749"/>
    </contour>
  </outline>
</glyph>
<glyph name="cent" format="1">
  <advance width="441.937292358"/>
  <unicode hex="00A2"/>
  <outline>
    <contour>
      <point x="251.429114721" y="-95.8800018311" type="line"/>
      <point x="253.938632823" y="490.817719373" type="line"/>
      <point x="238.905794547" y="509.682109734" type="line"/>
      <point x="236.396276445" y="-77.0156114708" type="line"/>
    </contour>
    <contour>
      <point x="401.550393615" y="66.4208712685" type="curve"/>
      <point x="387.46570329" y="80.1077415298" type="line"/>
      <point x="355.408268692" y="37.0336507072"/>
      <point x="304.975207752" y="16.3795003128"/>
      <point x="249.688146721" y="16.3795003128" type="curve" smooth="yes"/>
      <point x="141.968176721" y="16.3795003128"/>
      <point x="62.8916612518" y="93.9703917946"/>
      <point x="62.8916612518" y="207.300553959" type="curve" smooth="yes"/>
      <point x="62.8916612518" y="319.831716108"/>
      <point x="141.968176721" y="397.42260759"/>
      <point x="249.688146721" y="397.42260759" type="curve" smooth="yes"/>
      <point x="304.975207752" y="397.42260759"/>
      <point x="355.408268692" y="376.768457195"/>
      <point x="387.46570329" y="333.694366373" type="curve"/>
      <point x="401.550393615" y="347.381236634" type="line"/>
      <point x="366.11457495" y="393.203887509"/>
      <point x="310.568633891" y="416.366897952"/>
      <point x="249.705944721" y="416.366897952" type="curve" smooth="yes"/>
      <point x="130.106618451" y="416.366897952"/>
      <point x="43.0986668002" y="330.634196314"/>
      <point x="43.0986668002" y="207.300553959" type="curve" smooth="yes"/>
      <point x="43.0986668002" y="83.9429416031"/>
      <point x="130.106618451" y="-2.56479004898"/>
      <point x="249.705944721" y="-2.56479004898" type="curve" smooth="yes"/>
      <point x="310.568633891" y="-2.56479004898"/>
      <point x="366.11457495" y="20.5982203934"/>
    </contour>
  </outline>
</glyph>
<glyph name="currency" format="1">
  <advance width="566.300010681"/>
  <unicode hex="00A4"/>
  <outline>
    <contour>
      <point x="511.563069637" y="252.651794825" type="curve" smooth="yes"/>
      <point x="511.563069637" y="372.262097109"/>
      <point x="409.069239709" y="470.323368982"/>
      <point x="283.13220734" y="470.323368982" type="curve" smooth="yes"/>
      <point x="158.795377" y="470.323368982"/>
      <point x="57.0749510862" y="372.262097109"/>
      <point x="57.0749510862" y="252.651794825" type="curve" smooth="yes"/>
      <point x="57.0749510862" y="134.59155257"/>
      <point x="158.795377" y="37.3053107124"/>
      <point x="283.13220734" y="37.3053107124" type="curve" smooth="yes"/>
      <point x="409.051441709" y="37.3053107124"/>
      <point x="511.563069637" y="134.59155257"/>
    </contour>
    <contour>
      <point x="142.11865071" y="100.658021922" type="line"/>
      <point x="128.025870402" y="114.504692187" type="line"/>
      <point x="31.1772425799" y="18.1612703468" type="line"/>
      <point x="44.4788208736" y="4.3146000824" type="line"/>
    </contour>
    <contour>
      <point x="527.43403179" y="28.4923405441" type="line"/>
      <point x="430.585403968" y="124.835762384" type="line"/>
      <point x="416.49262366" y="110.98909212" type="line"/>
      <point x="514.132453496" y="14.6456702797" type="line"/>
    </contour>
    <contour>
      <point x="149.789589021" y="396.37591757" type="line"/>
      <point x="52.1497591846" y="492.71933941" type="line"/>
      <point x="38.8481808909" y="478.872669145" type="line"/>
      <point x="135.696808713" y="382.529247305" type="line"/>
    </contour>
    <contour>
      <point x="76.0136415032" y="252.651794825" type="curve" smooth="yes"/>
      <point x="76.0136415032" y="361.435646902"/>
      <point x="169.207207229" y="450.651988606"/>
      <point x="283.13220734" y="450.651988606" type="curve" smooth="yes"/>
      <point x="398.63961148" y="450.651988606"/>
      <point x="492.642177221" y="361.435646902"/>
      <point x="492.642177221" y="252.651794825" type="curve" smooth="yes"/>
      <point x="492.642177221" y="145.418002777"/>
      <point x="398.63961148" y="57.0006610886"/>
      <point x="283.13220734" y="57.0006610886" type="curve" smooth="yes"/>
      <point x="169.207207229" y="57.0006610886"/>
      <point x="76.0136415032" y="145.418002777"/>
    </contour>
    <contour>
      <point x="535.1049701" y="489.203739342" type="line"/>
      <point x="521.803391807" y="503.050409607" type="line"/>
      <point x="424.163561971" y="406.706987767" type="line"/>
      <point x="438.256342279" y="392.860317503" type="line"/>
    </contour>
  </outline>
</glyph>
<glyph name="yen" format="1">
  <advance width="543.809810296"/>
  <unicode hex="00A5"/>
  <outline>
    <contour>
      <point x="281.917089378" y="0.0" type="line"/>
      <point x="281.917089378" y="240.642824596" type="line"/>
      <point x="277.035583268" y="225.637604309" type="line"/>
      <point x="536.37833617" y="559.300010681" type="line"/>
      <point x="514.069351669" y="559.300010681" type="line"/>
      <point x="267.565429042" y="245.820344695" type="line"/>
      <point x="276.582543267" y="245.820344695" type="line"/>
      <point x="30.1142166421" y="559.300010681" type="line"/>
      <point x="7.43147412589" y="559.300010681" type="line"/>
      <point x="266.809823029" y="225.637604309" type="line"/>
      <point x="261.892720917" y="240.642824596" type="line"/>
      <point x="261.892720917" y="0.0" type="line"/>
    </contour>
    <contour>
      <point x="474.653252983" y="123.117912351" type="line"/>
      <point x="474.653252983" y="139.753092669" type="line"/>
      <point x="69.1565573129" y="139.753092669" type="line"/>
      <point x="69.1565573129" y="123.117912351" type="line"/>
    </contour>
    <contour>
      <point x="474.653252983" y="233.379914457" type="line"/>
      <point x="474.653252983" y="250.015094775" type="line"/>
      <point x="69.1565573129" y="250.015094775" type="line"/>
      <point x="69.1565573129" y="233.379914457" type="line"/>
    </contour>
  </outline>
</glyph>
<glyph name="brokenbar" format="1">
  <advance width="231.801156381"/>
  <unicode hex="00A6"/>
  <outline>
    <contour>
      <point x="125.556802407" y="313.208005981" type="line"/>
      <point x="125.556802407" y="592.858011322" type="line"/>
      <point x="106.244353975" y="592.858011322" type="line"/>
      <point x="106.244353975" y="313.208005981" type="line"/>
    </contour>
    <contour>
      <point x="125.556802407" y="-155.00600296" type="line"/>
      <point x="125.556802407" y="124.64400238" type="line"/>
      <point x="106.244353975" y="124.64400238" type="line"/>
      <point x="106.244353975" y="-155.00600296" type="line"/>
    </contour>
  </outline>
</glyph>
<glyph name="section" format="1">
  <advance width="382.765413257"/>
  <unicode hex="00A7"/>
  <outline>
    <contour>
      <point x="349.703200636" y="226.71625433" type="curve" smooth="yes"/>
      <point x="349.703200636" y="389.152957432"/>
      <point x="75.5330954837" y="307.111635865"/>
      <point x="75.5330954837" y="448.103178558" type="curve" smooth="yes"/>
      <point x="75.5330954837" y="512.08709978"/>
      <point x="124.836792395" y="543.447850378"/>
      <point x="213.692500051" y="543.447850378" type="curve" smooth="yes"/>
      <point x="260.543308933" y="543.447850378"/>
      <point x="309.012117845" y="530.056610123"/>
      <point x="342.448088482" y="503.73754962" type="curve"/>
      <point x="353.045988701" y="519.709559925" type="line"/>
      <point x="320.401220079" y="545.277560413"/>
      <point x="265.521895029" y="561.86480073"/>
      <point x="213.870480058" y="561.86480073" type="curve" smooth="yes"/>
      <point x="113.908820145" y="561.86480073"/>
      <point x="56.1850510501" y="521.051879951"/>
      <point x="56.1850510501" y="447.911418554" type="curve" smooth="yes"/>
      <point x="56.1850510501" y="289.397805527"/>
      <point x="331.199752219" y="370.879827083"/>
      <point x="331.199752219" y="226.500524326" type="curve" smooth="yes"/>
      <point x="331.199752219" y="170.19499325"/>
      <point x="287.398873408" y="137.915392634"/>
      <point x="233.889994413" y="130.700422496" type="curve"/>
      <point x="256.365632869" y="118.180092257" type="line"/>
      <point x="309.395583878" y="131.347612508"/>
      <point x="349.703200636" y="170.858163263"/>
    </contour>
    <contour>
      <point x="330.393988274" y="29.9385305717" type="curve" smooth="yes"/>
      <point x="330.393988274" y="190.026173629"/>
      <point x="55.3614891044" y="108.544152073"/>
      <point x="55.3614891044" y="252.92345483" type="curve" smooth="yes"/>
      <point x="55.3614891044" y="307.678925876"/>
      <point x="98.3711659009" y="339.958526492"/>
      <point x="150.297640866" y="347.948526645" type="curve"/>
      <point x="129.40440644" y="360.468856884" type="line"/>
      <point x="77.1656574446" y="347.301336633"/>
      <point x="36.8580406875" y="308.565815893"/>
      <point x="36.8580406875" y="252.468024821" type="curve" smooth="yes"/>
      <point x="36.8580406875" y="90.2710217239"/>
      <point x="311.04594384" y="172.552043295"/>
      <point x="311.04594384" y="31.2968305977" type="curve" smooth="yes"/>
      <point x="311.04594384" y="-32.6870906242"/>
      <point x="263.306852957" y="-64.0478412231"/>
      <point x="181.892327445" y="-64.0478412231" type="curve" smooth="yes"/>
      <point x="123.226882347" y="-64.0478412231"/>
      <point x="66.5256892764" y="-38.8154207413"/>
      <point x="36.325718701" y="-10.1712701942" type="curve"/>
      <point x="25.7278184818" y="-26.1432804993" type="line"/>
      <point x="57.5813850891" y="-58.6865511208"/>
      <point x="121.830548308" y="-82.4647915749"/>
      <point x="181.927923447" y="-82.4647915749" type="curve" smooth="yes"/>
      <point x="272.741411182" y="-82.4647915749"/>
      <point x="330.393988274" y="-41.6518707954"/>
    </contour>
  </outline>
</glyph>
<glyph name="copyright" format="1">
  <advance width="665.54813253"/>
  <unicode hex="00A9"/>
  <outline>
    <contour>
      <point x="618.351071651" y="281.248005371" type="curve" smooth="yes"/>
      <point x="618.351071651" y="440.249008408"/>
      <point x="496.192069347" y="561.697010727"/>
      <point x="333.58306628" y="561.697010727" type="curve" smooth="yes"/>
      <point x="170.974063213" y="561.697010727"/>
      <point x="47.1970608786" y="437.053008347"/>
      <point x="47.1970608786" y="279.650005341" type="curve" smooth="yes"/>
      <point x="47.1970608786" y="122.247002335"/>
      <point x="170.974063213" y="-2.39700004578"/>
      <point x="331.96506625" y="-2.39700004578" type="curve" smooth="yes"/>
      <point x="492.956069286" y="-2.39700004578"/>
      <point x="618.351071651" y="122.247002335"/>
    </contour>
    <contour>
      <point x="63.9029112227" y="279.650005341" type="curve" smooth="yes"/>
      <point x="63.9029112227" y="427.401088162"/>
      <point x="180.549387408" y="544.862080405"/>
      <point x="333.58306628" y="544.862080405" type="curve" smooth="yes"/>
      <point x="486.616745152" y="544.862080405"/>
      <point x="601.645221307" y="430.573118223"/>
      <point x="601.645221307" y="281.248005371" type="curve" smooth="yes"/>
      <point x="601.645221307" y="131.922892519"/>
      <point x="483.380745091" y="14.4379302757"/>
      <point x="331.96506625" y="14.4379302757" type="curve" smooth="yes"/>
      <point x="180.549387408" y="14.4379302757"/>
      <point x="63.9029112227" y="131.898922519"/>
    </contour>
    <contour>
      <point x="461.254594703" y="166.783263185" type="curve"/>
      <point x="447.108420392" y="179.966763437" type="line"/>
      <point x="421.558581918" y="145.945342787"/>
      <point x="381.678117178" y="129.406042471"/>
      <point x="337.770450362" y="129.406042471" type="curve" smooth="yes"/>
      <point x="253.440288803" y="129.406042471"/>
      <point x="191.281581651" y="190.337783635"/>
      <point x="191.281581651" y="279.650005341" type="curve" smooth="yes"/>
      <point x="191.281581651" y="368.962227046"/>
      <point x="253.440288803" y="429.89396821"/>
      <point x="337.770450362" y="429.89396821" type="curve" smooth="yes"/>
      <point x="381.678117178" y="429.89396821"/>
      <point x="421.558581918" y="413.354667894"/>
      <point x="447.108420392" y="379.333247244" type="curve"/>
      <point x="461.254594703" y="392.516747496" type="line"/>
      <point x="432.344170162" y="429.070998194"/>
      <point x="387.635593314" y="447.927398554"/>
      <point x="338.579450378" y="447.927398554" type="curve" smooth="yes"/>
      <point x="242.975064571" y="447.927398554"/>
      <point x="172.538669242" y="378.534247229"/>
      <point x="172.538669242" y="279.650005341" type="curve" smooth="yes"/>
      <point x="172.538669242" y="180.765763452"/>
      <point x="242.975064571" y="111.372612127"/>
      <point x="338.579450378" y="111.372612127" type="curve" smooth="yes"/>
      <point x="387.635593314" y="111.372612127"/>
      <point x="432.344170162" y="130.229012487"/>
    </contour>
  </outline>
</glyph>
<glyph name="ordfeminine" format="1">
  <advance width="319.173158029"/>
  <unicode hex="00AA"/>
  <outline>
    <contour>
      <point x="253.653864811" y="346.430426616" type="line"/>
      <point x="253.653864811" y="504.808209641" type="line" smooth="yes"/>
      <point x="253.653864811" y="564.022100771"/>
      <point x="217.57731812" y="594.647771356"/>
      <point x="152.883204883" y="594.647771356" type="curve" smooth="yes"/>
      <point x="112.362012117" y="594.647771356"/>
      <point x="73.2630413741" y="580.385621084"/>
      <point x="47.1970608786" y="558.884530673" type="curve"/>
      <point x="55.9633850586" y="545.804900423" type="line"/>
      <point x="79.3175974968" y="565.564170801"/>
      <point x="113.171012133" y="578.180381042"/>
      <point x="152.420456864" y="578.180381042" type="curve" smooth="yes"/>
      <point x="207.076497888" y="578.180381042"/>
      <point x="235.10673041" y="553.746960575"/>
      <point x="235.10673041" y="504.999969644" type="curve" smooth="yes"/>
      <point x="235.10673041" y="411.708727863" type="line"/>
      <point x="236.093710433" y="403.598877708" type="line"/>
      <point x="236.093710433" y="346.430426616" type="line"/>
    </contour>
    <contour>
      <point x="240.983306526" y="409.215847815" type="curve"/>
      <point x="235.10673041" y="417.972887982" type="line"/>
      <point x="218.3669021" y="380.292047263"/>
      <point x="187.207457521" y="359.174476859"/>
      <point x="137.850366607" y="359.174476859" type="curve" smooth="yes"/>
      <point x="86.0840736483" y="359.174476859"/>
      <point x="56.5960231018" y="381.115017278"/>
      <point x="56.5960231018" y="415.527947935" type="curve" smooth="yes"/>
      <point x="56.5960231018" y="446.13763852"/>
      <point x="79.7722555328" y="468.030238938"/>
      <point x="138.028346614" y="468.030238938" type="curve" smooth="yes"/>
      <point x="241.685518537" y="468.030238938" type="line"/>
      <point x="241.685518537" y="481.285649191" type="line"/>
      <point x="137.601194597" y="481.285649191" type="line" smooth="yes"/>
      <point x="64.4352332092" y="481.285649191"/>
      <point x="39.0002727217" y="451.019528613"/>
      <point x="39.0002727217" y="414.609097918" type="curve" smooth="yes"/>
      <point x="39.0002727217" y="372.965217123"/>
      <point x="73.7872733778" y="344.736546584"/>
      <point x="134.65805253" y="344.736546584" type="curve" smooth="yes"/>
      <point x="190.318871577" y="344.736546584"/>
      <point x="227.337094271" y="370.088817068"/>
    </contour>
  </outline>
</glyph>
<glyph name="logicalnot" format="1">
  <advance width="454.107888588"/>
  <unicode hex="00AC"/>
  <outline>
    <contour>
      <point x="60.31904113" y="288.662725513" type="line"/>
      <point x="60.31904113" y="269.862255154" type="line"/>
      <point x="374.761167038" y="269.862255154" type="line"/>
      <point x="374.761167038" y="125.506922397" type="line"/>
      <point x="393.788847458" y="125.506922397" type="line"/>
      <point x="393.788847458" y="288.662725513" type="line"/>
    </contour>
  </outline>
</glyph>
<glyph name="registered" format="1">
  <advance width="665.54813253"/>
  <unicode hex="00AE"/>
  <outline>
    <contour>
      <point x="618.351071651" y="281.248005371" type="curve" smooth="yes"/>
      <point x="618.351071651" y="440.249008408"/>
      <point x="496.192069347" y="561.697010727"/>
      <point x="333.58306628" y="561.697010727" type="curve" smooth="yes"/>
      <point x="170.974063213" y="561.697010727"/>
      <point x="47.1970608786" y="437.053008347"/>
      <point x="47.1970608786" y="279.650005341" type="curve" smooth="yes"/>
      <point x="47.1970608786" y="122.247002335"/>
      <point x="170.974063213" y="-2.39700004578"/>
      <point x="331.96506625" y="-2.39700004578" type="curve" smooth="yes"/>
      <point x="492.956069286" y="-2.39700004578"/>
      <point x="618.351071651" y="122.247002335"/>
    </contour>
    <contour>
      <point x="474.162998945" y="113.937402176" type="line"/>
      <point x="389.449371352" y="242.896004639" type="line"/>
      <point x="367.862014898" y="242.896004639" type="line"/>
      <point x="452.575642491" y="113.937402176" type="line"/>
    </contour>
    <contour>
      <point x="63.9029112227" y="279.650005341" type="curve" smooth="yes"/>
      <point x="63.9029112227" y="427.401088162"/>
      <point x="180.549387408" y="544.862080405"/>
      <point x="333.58306628" y="544.862080405" type="curve" smooth="yes"/>
      <point x="486.616745152" y="544.862080405"/>
      <point x="601.645221307" y="430.573118223"/>
      <point x="601.645221307" y="281.248005371" type="curve" smooth="yes"/>
      <point x="601.645221307" y="131.922892519"/>
      <point x="483.380745091" y="14.4379302757"/>
      <point x="331.96506625" y="14.4379302757" type="curve" smooth="yes"/>
      <point x="180.549387408" y="14.4379302757"/>
      <point x="63.9029112227" y="131.898922519"/>
    </contour>
    <contour>
      <point x="246.141490665" y="113.937402176" type="line"/>
      <point x="246.141490665" y="232.49302444" type="line"/>
      <point x="349.62068258" y="232.49302444" type="line" smooth="yes"/>
      <point x="425.987048027" y="232.49302444"/>
      <point x="473.824836932" y="273.921175231"/>
      <point x="473.824836932" y="338.927816473" type="curve" smooth="yes"/>
      <point x="473.824836932" y="403.74269771"/>
      <point x="425.987048027" y="445.362608505"/>
      <point x="349.62068258" y="445.362608505" type="curve" smooth="yes"/>
      <point x="227.75453827" y="445.362608505" type="line"/>
      <point x="227.75453827" y="113.937402176" type="line"/>
    </contour>
    <contour>
      <point x="245.35028865" y="428.264008179" type="line"/>
      <point x="347.878096544" y="428.264008179" type="line" smooth="yes"/>
      <point x="415.610813799" y="428.264008179"/>
      <point x="455.437884537" y="395.32922755"/>
      <point x="455.437884537" y="338.927816473" type="curve" smooth="yes"/>
      <point x="455.437884537" y="282.526405396"/>
      <point x="415.610813799" y="249.591624767"/>
      <point x="347.878096544" y="249.591624767" type="curve" smooth="yes"/>
      <point x="245.35028865" y="249.591624767" type="line"/>
    </contour>
  </outline>
</glyph>
<glyph name="degree" format="1">
  <advance width="339.708814406"/>
  <unicode hex="00B0"/>
  <outline>
    <contour>
      <point x="291.880733519" y="441.295698428" type="curve" smooth="yes"/>
      <point x="291.880733519" y="508.843159718"/>
      <point x="237.357368484" y="561.888770731"/>
      <point x="169.854407203" y="561.888770731" type="curve" smooth="yes"/>
      <point x="102.351445922" y="561.888770731"/>
      <point x="47.8280808867" y="508.843159718"/>
      <point x="47.8280808867" y="441.295698428" type="curve" smooth="yes"/>
      <point x="47.8280808867" y="373.748237138"/>
      <point x="102.351445922" y="320.702626125"/>
      <point x="169.854407203" y="320.702626125" type="curve" smooth="yes"/>
      <point x="237.357368484" y="320.702626125"/>
      <point x="291.880733519" y="373.748237138"/>
    </contour>
    <contour>
      <point x="64.8542952437" y="441.295698428" type="curve" smooth="yes"/>
      <point x="64.8542952437" y="498.903599528"/>
      <point x="110.522346095" y="545.445350417"/>
      <point x="169.854407203" y="545.445350417" type="curve" smooth="yes"/>
      <point x="229.18646831" y="545.445350417"/>
      <point x="274.854519162" y="498.903599528"/>
      <point x="274.854519162" y="441.295698428" type="curve" smooth="yes"/>
      <point x="274.854519162" y="383.687797327"/>
      <point x="229.18646831" y="337.146046439"/>
      <point x="169.854407203" y="337.146046439" type="curve" smooth="yes"/>
      <point x="110.522346095" y="337.146046439"/>
      <point x="64.8542952437" y="383.687797327"/>
    </contour>
  </outline>
</glyph>
<glyph name="plusminus" format="1">
  <advance width="454.107888588"/>
  <unicode hex="00B1"/>
  <outline>
    <contour>
      <point x="393.788847458" y="0.0" type="line"/>
      <point x="393.788847458" y="18.800470359" type="line"/>
      <point x="60.31904113" y="18.800470359" type="line"/>
      <point x="60.31904113" y="0.0" type="line"/>
    </contour>
    <contour>
      <point x="236.567784504" y="121.887452328" type="line"/>
      <point x="236.567784504" y="443.045508461" type="line"/>
      <point x="217.540104084" y="443.045508461" type="line"/>
      <point x="217.540104084" y="121.887452328" type="line"/>
    </contour>
    <contour>
      <point x="393.788847458" y="272.78659521" type="line"/>
      <point x="393.788847458" y="291.371335564" type="line"/>
      <point x="60.31904113" y="291.371335564" type="line"/>
      <point x="60.31904113" y="272.78659521" type="line"/>
    </contour>
  </outline>
</glyph>
<glyph name="paragraph" format="1">
  <advance width="487.713749249"/>
  <unicode hex="00B6"/>
  <outline>
    <contour>
      <point x="201.159471858" y="-79.9000015259" type="line"/>
      <point x="201.159471858" y="574.41709097" type="line"/>
      <point x="362.406118852" y="574.41709097" type="line"/>
      <point x="362.406118852" y="-79.9000015259" type="line"/>
      <point x="381.469395274" y="-79.9000015259" type="line"/>
      <point x="381.469395274" y="592.858011322" type="line"/>
      <point x="182.790317464" y="592.858011322" type="line" smooth="yes"/>
      <point x="84.260587592" y="592.858011322"/>
      <point x="19.9224343692" y="543.687550383"/>
      <point x="19.9224343692" y="463.164328845" type="curve" smooth="yes"/>
      <point x="19.9224343692" y="383.488047324"/>
      <point x="84.1715975884" y="332.815466356"/>
      <point x="182.096195436" y="332.719586354" type="curve"/>
      <point x="182.096195436" y="-79.9000015259" type="line"/>
    </contour>
  </outline>
</glyph>
<glyph name="periodcentered" format="1">
  <advance width="181.769359475"/>
  <unicode hex="00B7"/>
  <outline>
    <contour>
      <point x="113.805268211" y="211.55922404" type="curve" smooth="yes"/>
      <point x="113.805268211" y="224.303274284"/>
      <point x="103.349751998" y="234.802134484"/>
      <point x="90.8846797377" y="234.802134484" type="curve" smooth="yes"/>
      <point x="78.4196074779" y="234.802134484"/>
      <point x="67.9640912645" y="224.303274284"/>
      <point x="67.9640912645" y="211.55922404" type="curve" smooth="yes"/>
      <point x="67.9640912645" y="198.815173797"/>
      <point x="78.4196074779" y="188.268373595"/>
      <point x="90.8846797377" y="188.268373595" type="curve" smooth="yes"/>
      <point x="103.349751998" y="188.268373595"/>
      <point x="113.805268211" y="198.815173797"/>
    </contour>
  </outline>
</glyph>
<glyph name="ordmasculine" format="1">
  <advance width="329.814744233"/>
  <unicode hex="00BA"/>
  <outline>
    <contour>
      <point x="297.090693625" y="469.69215897" type="curve" smooth="yes"/>
      <point x="297.090693625" y="542.592920362"/>
      <point x="241.002722561" y="594.647771356"/>
      <point x="164.511771109" y="594.647771356" type="curve" smooth="yes"/>
      <point x="88.0386176574" y="594.647771356"/>
      <point x="31.932848593" y="542.592920362"/>
      <point x="31.932848593" y="469.69215897" type="curve" smooth="yes"/>
      <point x="31.932848593" y="396.791397578"/>
      <point x="88.0386176574" y="344.736546584"/>
      <point x="164.511771109" y="344.736546584" type="curve" smooth="yes"/>
      <point x="241.002722561" y="344.736546584"/>
      <point x="297.090693625" y="396.791397578"/>
    </contour>
    <contour>
      <point x="49.6531849782" y="469.69215897" type="curve" smooth="yes"/>
      <point x="49.6531849782" y="534.203420202"/>
      <point x="99.1170638961" y="578.060531039"/>
      <point x="164.511771109" y="578.060531039" type="curve" smooth="yes"/>
      <point x="229.906478322" y="578.060531039"/>
      <point x="279.37035724" y="534.203420202"/>
      <point x="279.37035724" y="469.69215897" type="curve" smooth="yes"/>
      <point x="279.37035724" y="405.204867738"/>
      <point x="229.906478322" y="361.3237869"/>
      <point x="164.511771109" y="361.3237869" type="curve" smooth="yes"/>
      <point x="99.1170638961" y="361.3237869"/>
      <point x="49.6531849782" y="405.204867738"/>
    </contour>
  </outline>
</glyph>
<glyph name="questiondown" format="1">
  <advance width="449.111504491"/>
  <unicode hex="00BF"/>
  <outline>
    <contour>
      <point x="228.136386268" y="261.672504997" type="line"/>
      <point x="228.136386268" y="136.597042609"/>
      <point x="71.0755053205" y="135.949852596"/>
      <point x="71.0755053205" y="1.27840002441" type="curve" smooth="yes"/>
      <point x="71.0755053205" y="-71.4705513649"/>
      <point x="138.79204261" y="-125.754612402"/>
      <point x="245.989398641" y="-125.754612402" type="curve" smooth="yes"/>
      <point x="329.504088238" y="-125.754612402"/>
      <point x="391.415241415" y="-99.3716318977"/>
      <point x="433.447646207" y="-52.1187709953" type="curve"/>
      <point x="419.273965878" y="-39.1350207474" type="line"/>
      <point x="378.548905121" y="-84.3184716103"/>
      <point x="323.244046089" y="-106.642532037"/>
      <point x="246.523338662" y="-106.642532037" type="curve" smooth="yes"/>
      <point x="145.38215679" y="-106.642532037"/>
      <point x="91.0464797794" y="-57.4321210968"/>
      <point x="91.0464797794" y="2.98826005707" type="curve" smooth="yes"/>
      <point x="91.0464797794" y="126.154112409"/>
      <point x="247.626814707" y="126.242002411"/>
      <point x="247.626814707" y="261.672504997" type="curve"/>
    </contour>
    <contour>
      <point x="214.961012014" y="393.339717512" type="curve" smooth="yes"/>
      <point x="214.961012014" y="380.883307274"/>
      <point x="225.416528228" y="370.360477073"/>
      <point x="237.881600488" y="370.360477073" type="curve" smooth="yes"/>
      <point x="250.346672747" y="370.360477073"/>
      <point x="260.802188961" y="380.883307274"/>
      <point x="260.802188961" y="393.339717512" type="curve" smooth="yes"/>
      <point x="260.802188961" y="405.772157749"/>
      <point x="250.346672747" y="416.366897952"/>
      <point x="237.881600488" y="416.366897952" type="curve" smooth="yes"/>
      <point x="225.416528228" y="416.366897952"/>
      <point x="214.961012014" y="405.772157749"/>
    </contour>
  </outline>
</glyph>
<glyph name="AE" format="1">
  <advance width="815.020593415"/>
  <unicode hex="00C6"/>
  <outline>
    <contour>
      <point x="390.793929425" y="559.300010681" type="move" name="top"/>
    </contour>
    <contour>
      <point x="390.793929425" y="0.0" type="move" name="bottom"/>
    </contour>
    <contour>
      <point x="29.2518226246" y="0.0" type="line"/>
      <point x="378.870887169" y="545.661080421" type="line"/>
      <point x="365.266742863" y="540.307780318" type="line"/>
      <point x="386.214989327" y="540.307780318" type="line"/>
      <point x="386.214989327" y="559.300010681" type="line"/>
      <point x="365.435014852" y="559.300010681" type="line"/>
      <point x="6.78265611713" y="0.0" type="line"/>
    </contour>
    <contour>
      <point x="386.214989327" y="147.399522815" type="line"/>
      <point x="386.214989327" y="166.199993174" type="line"/>
      <point x="124.951670382" y="166.199993174" type="line"/>
      <point x="117.039650237" y="147.399522815" type="line"/>
    </contour>
    <contour>
      <point x="759.87591639" y="0.0" type="line"/>
      <point x="759.87591639" y="18.9922303627" type="line"/>
      <point x="400.770517654" y="18.9922303627" type="line"/>
      <point x="400.770517654" y="274.632285245" type="line"/>
      <point x="711.442703479" y="274.632285245" type="line"/>
      <point x="711.442703479" y="293.432755604" type="line"/>
      <point x="400.770517654" y="293.432755604" type="line"/>
      <point x="400.770517654" y="540.307780318" type="line"/>
      <point x="747.776512162" y="540.307780318" type="line"/>
      <point x="747.776512162" y="559.300010681" type="line"/>
      <point x="380.817341195" y="559.300010681" type="line"/>
      <point x="380.817341195" y="0.0" type="line"/>
    </contour>
  </outline>
</glyph>
<glyph name="multiply" format="1">
  <advance width="454.107888588"/>
  <unicode hex="00D7"/>
  <outline>
    <contour>
      <point x="115.732306201" y="156.092642981" type="line"/>
      <point x="351.588170677" y="389.480547438" type="line"/>
      <point x="338.375582387" y="403.2073677" type="line"/>
      <point x="102.519717911" y="169.819463243" type="line"/>
    </contour>
    <contour>
      <point x="338.375582387" y="156.092642981" type="line"/>
      <point x="351.588170677" y="169.819463243" type="line"/>
      <point x="115.732306201" y="403.2073677" type="line"/>
      <point x="102.519717911" y="389.480547438" type="line"/>
    </contour>
  </outline>
</glyph>
<glyph name="Oslash" format="1">
  <advance width="676.537588765"/>
  <unicode hex="00D8"/>
  <outline>
    <contour>
      <point x="338.268794383" y="559.300010681" type="move" name="top"/>
    </contour>
    <contour>
      <point x="338.268794383" y="0.0" type="move" name="bottom"/>
    </contour>
    <component base="slashlongcomb.case" xOffset="7.54797014815"/>
    <component base="O"/>
  </outline>
</glyph>
<glyph name="Thorn" format="1">
  <advance width="574.977344858"/>
  <unicode hex="00DE"/>
  <outline>
    <contour>
      <point x="299.757157663" y="110.246022105" type="line"/>
      <point x="439.314514304" y="110.246022105"/>
      <point x="523.015273891" y="178.56851341"/>
      <point x="523.015273891" y="294.83100563" type="curve" smooth="yes"/>
      <point x="523.015273891" y="411.093497851"/>
      <point x="439.314514304" y="479.415989156"/>
      <point x="299.757157663" y="479.415989156" type="curve" smooth="yes"/>
      <point x="118.29360027" y="479.415989156" type="line"/>
      <point x="118.29360027" y="460.327878791" type="line"/>
      <point x="301.072591681" y="460.327878791" type="line" smooth="yes"/>
      <point x="431.986592112" y="460.327878791"/>
      <point x="502.955309429" y="399.907497637"/>
      <point x="502.955309429" y="294.83100563" type="curve" smooth="yes"/>
      <point x="502.955309429" y="189.754513624"/>
      <point x="431.986592112" y="129.33413247"/>
      <point x="301.072591681" y="129.33413247" type="curve" smooth="yes"/>
      <point x="118.29360027" y="129.33413247" type="line"/>
      <point x="118.29360027" y="110.246022105" type="line"/>
    </contour>
    <contour>
      <point x="126.268722436" y="0.0" type="line"/>
      <point x="126.268722436" y="558.548950667" type="line"/>
      <point x="106.244353975" y="558.548950667" type="line"/>
      <point x="106.244353975" y="0.0" type="line"/>
    </contour>
  </outline>
</glyph>
<glyph name="ae" format="1">
  <advance width="806.484025209"/>
  <unicode hex="00E6"/>
  <outline>
    <contour>
      <point x="368.326380952" y="413.802107903" type="move" name="top"/>
    </contour>
    <contour>
      <point x="377.688129139" y="148.645962839" type="curve"/>
      <point x="365.569308875" y="150.196022868" type="line"/>
      <point x="394.275865425" y="48.1157809189"/>
      <point x="481.754655078" y="-2.56479004898"/>
      <point x="576.443252864" y="-2.56479004898" type="curve" smooth="yes"/>
      <point x="640.043598075" y="-2.56479004898"/>
      <point x="699.189589192" y="20.630180394"/>
      <point x="737.337175914" y="65.4221212494" type="curve"/>
      <point x="724.195779627" y="79.1249715111" type="line"/>
      <point x="689.515566975" y="36.6261606995"/>
      <point x="635.197687966" y="16.1637703087"/>
      <point x="576.567838869" y="16.1637703087" type="curve" smooth="yes"/>
      <point x="462.900100752" y="16.1637703087"/>
      <point x="378.249575179" y="94.6016018066"/>
      <point x="378.249575179" y="207.132763956" type="curve" smooth="yes"/>
      <point x="378.249575179" y="211.04786403" type="line" smooth="yes"/>
      <point x="378.249575179" y="317.962056072"/>
      <point x="455.636898615" y="397.9499476"/>
      <point x="561.054454574" y="397.9499476" type="curve" smooth="yes"/>
      <point x="666.472010532" y="397.9499476"/>
      <point x="744.650535983" y="317.962056072"/>
      <point x="744.650535983" y="211.04786403" type="curve"/>
      <point x="751.72766813" y="224.870564294" type="line"/>
      <point x="374.81779711" y="224.870564294" type="line"/>
      <point x="374.81779711" y="207.532263963" type="line"/>
      <point x="763.314166406" y="207.532263963" type="line"/>
      <point x="763.349762408" y="209.465844"/>
      <point x="763.385358409" y="210.744244025"/>
      <point x="763.385358409" y="212.725764062" type="curve" smooth="yes"/>
      <point x="763.385358409" y="331.864656338"/>
      <point x="675.443820738" y="416.366897952"/>
      <point x="561.107848576" y="416.366897952" type="curve" smooth="yes"/>
      <point x="473.122624921" y="416.366897952"/>
      <point x="401.121623563" y="365.806176986"/>
      <point x="373.259663029" y="289.04624552" type="curve"/>
      <point x="377.199493136" y="282.070975387" type="line"/>
      <point x="370.842371002" y="372.174207108"/>
      <point x="320.275016039" y="416.366897952"/>
      <point x="226.555600274" y="416.366897952" type="curve" smooth="yes"/>
      <point x="163.382407081" y="416.366897952"/>
      <point x="103.142647937" y="392.588657497"/>
      <point x="63.234677178" y="355.203446783" type="curve"/>
      <point x="75.5929614335" y="340.781496508" type="line"/>
      <point x="111.837780114" y="374.754977157"/>
      <point x="165.036003113" y="397.614367593"/>
      <point x="226.741670264" y="397.614367593" type="curve" smooth="yes"/>
      <point x="312.752933874" y="397.614367593"/>
      <point x="358.403186725" y="354.292586766"/>
      <point x="358.403186725" y="269.318935143" type="curve" smooth="yes"/>
      <point x="358.403186725" y="161.350063081" type="line" smooth="yes"/>
      <point x="358.403186725" y="67.2438412842"/>
      <point x="293.87087353" y="15.4207002945"/>
      <point x="201.308327812" y="15.4207002945" type="curve" smooth="yes"/>
      <point x="119.155994288" y="15.4207002945"/>
      <point x="71.3457114016" y="53.8526010284"/>
      <point x="71.3457114016" y="114.928162195" type="curve" smooth="yes"/>
      <point x="71.3457114016" y="168.373273215"/>
      <point x="108.114762085" y="207.532263963"/>
      <point x="201.539701821" y="207.532263963" type="curve" smooth="yes"/>
      <point x="363.435166824" y="207.532263963" type="line"/>
      <point x="363.435166824" y="224.870564294" type="line"/>
      <point x="201.69017581" y="224.870564294" type="line" smooth="yes"/>
      <point x="89.5142336822" y="224.870564294"/>
      <point x="51.7306969572" y="173.103353306"/>
      <point x="51.7306969572" y="113.937402176" type="curve" smooth="yes"/>
      <point x="51.7306969572" y="44.2086708443"/>
      <point x="106.343051996" y="-2.56479004898"/>
      <point x="200.756589789" y="-2.56479004898" type="curve" smooth="yes"/>
      <point x="290.573389484" y="-2.56479004898"/>
      <point x="368.130602944" y="42.3549908089"/>
    </contour>
  </outline>
</glyph>
<glyph name="eth" format="1">
  <advance width="500.780717463"/>
  <unicode hex="00F0"/>
  <outline>
    <contour>
      <point x="457.682050663" y="279.362365335" type="curve" smooth="yes"/>
      <point x="457.682050663" y="465.033988881"/>
      <point x="356.778714747" y="563.015360752"/>
      <point x="207.361265899" y="563.015360752" type="curve" smooth="yes"/>
      <point x="158.874658986" y="563.015360752"/>
      <point x="112.148436109" y="555.121240601"/>
      <point x="81.9484655333" y="546.332240434" type="curve"/>
      <point x="86.2782336211" y="527.699560078" type="line"/>
      <point x="119.429436246" y="537.311530261"/>
      <point x="162.164053049" y="544.406650397"/>
      <point x="207.112093889" y="544.406650397" type="curve" smooth="yes"/>
      <point x="346.392772501" y="544.406650397"/>
      <point x="437.711076204" y="452.849238648"/>
      <point x="437.711076204" y="282.086955387" type="curve" smooth="yes"/>
      <point x="437.711076204" y="254.777134866"/>
      <point x="435.33747016" y="210.144994013"/>
      <point x="422.678237928" y="170.139063249" type="curve"/>
      <point x="429.968946083" y="170.250923251" type="line"/>
      <point x="425.318813982" y="281.18408537"/>
      <point x="341.948126426" y="344.121316572"/>
      <point x="237.294266464" y="344.121316572" type="curve" smooth="yes"/>
      <point x="118.638234231" y="344.121316572"/>
      <point x="43.0986668002" y="275.335405258"/>
      <point x="43.0986668002" y="171.345553272" type="curve" smooth="yes"/>
      <point x="43.0986668002" y="67.0440912804"/>
      <point x="120.469810271" y="-2.70861005173"/>
      <point x="231.694368377" y="-2.70861005173" type="curve" smooth="yes"/>
      <point x="380.906331199" y="-2.70861005173"/>
      <point x="457.682050663" y="108.91169208"/>
    </contour>
    <contour>
      <point x="62.9094592525" y="171.081883267" type="curve" smooth="yes"/>
      <point x="62.9094592525" y="262.815075019"/>
      <point x="128.393156469" y="325.488636216"/>
      <point x="238.344348506" y="325.488636216" type="curve" smooth="yes"/>
      <point x="341.174722413" y="325.488636216"/>
      <point x="412.988035746" y="256.614834901"/>
      <point x="412.988035746" y="171.081883267" type="curve" smooth="yes"/>
      <point x="412.988035746" y="95.6243218262"/>
      <point x="349.877944573" y="15.9240703041"/>
      <point x="232.01473239" y="15.9240703041" type="curve" smooth="yes"/>
      <point x="130.766762513" y="15.9240703041"/>
      <point x="62.9094592525" y="79.3486915154"/>
    </contour>
    <contour>
      <point x="417.010383909" y="545.149720411" type="line"/>
      <point x="410.057837767" y="562.056560734" type="line"/>
      <point x="112.60147611" y="431.48397824" type="line"/>
      <point x="119.554022251" y="414.577137917" type="line"/>
    </contour>
  </outline>
</glyph>
<glyph name="divide" format="1">
  <advance width="454.107888588"/>
  <unicode hex="00F7"/>
  <outline>
    <contour>
      <point x="393.788847458" y="269.862255154" type="line"/>
      <point x="393.788847458" y="288.662725513" type="line"/>
      <point x="60.31904113" y="288.662725513" type="line"/>
      <point x="60.31904113" y="269.862255154" type="line"/>
    </contour>
    <contour>
      <point x="249.618572753" y="134.871202576" type="curve" smooth="yes"/>
      <point x="249.618572753" y="147.279672813"/>
      <point x="239.252046543" y="157.61074301"/>
      <point x="227.053944294" y="157.61074301" type="curve" smooth="yes"/>
      <point x="214.855842045" y="157.61074301"/>
      <point x="204.489315835" y="147.279672813"/>
      <point x="204.489315835" y="134.871202576" type="curve" smooth="yes"/>
      <point x="204.489315835" y="122.486702339"/>
      <point x="214.855842045" y="112.083722141"/>
      <point x="227.053944294" y="112.083722141" type="curve" smooth="yes"/>
      <point x="239.252046543" y="112.083722141"/>
      <point x="249.618572753" y="122.486702339"/>
    </contour>
    <contour>
      <point x="249.618572753" y="424.476748106" type="curve" smooth="yes"/>
      <point x="249.618572753" y="436.885218343"/>
      <point x="239.252046543" y="447.216288541"/>
      <point x="227.053944294" y="447.216288541" type="curve" smooth="yes"/>
      <point x="214.855842045" y="447.216288541"/>
      <point x="204.489315835" y="436.885218343"/>
      <point x="204.489315835" y="424.476748106" type="curve" smooth="yes"/>
      <point x="204.489315835" y="412.09224787"/>
      <point x="214.855842045" y="401.689267671"/>
      <point x="227.053944294" y="401.689267671" type="curve" smooth="yes"/>
      <point x="239.252046543" y="401.689267671"/>
      <point x="249.618572753" y="412.09224787"/>
    </contour>
  </outline>
</glyph>
<glyph name="oslash" format="1">
  <advance width="494.486697348"/>
  <unicode hex="00F8"/>
  <outline>
    <contour>
      <point x="247.243348674" y="413.802107903" type="move" name="top"/>
    </contour>
    <component base="slashlongcomb" xOffset="1.63579803124"/>
    <component base="o"/>
  </outline>
</glyph>
<glyph name="kgreenlandic" format="1">
  <advance width="452.980142595"/>
  <unicode hex="0138"/>
  <outline>
    <contour>
      <point x="217.790894129" y="413.802107903" type="move" name="top"/>
    </contour>
    <contour>
      <point x="217.790894129" y="0.0" type="move" name="bottom"/>
    </contour>
    <contour>
      <point x="233.86410643" y="236.384154514" type="line"/>
      <point x="248.534512744" y="247.865784734" type="line"/>
      <point x="431.004466195" y="413.802107903" type="line"/>
      <point x="403.307541581" y="413.802107903" type="line"/>
      <point x="105.616570037" y="146.488662798" type="line"/>
      <point x="105.527580033" y="121.511922321" type="line"/>
    </contour>
    <contour>
      <point x="111.724520162" y="0.0" type="line"/>
      <point x="111.724520162" y="413.802107903" type="line"/>
      <point x="91.8781317079" y="413.802107903" type="line"/>
      <point x="91.8781317079" y="0.0" type="line"/>
    </contour>
    <contour>
      <point x="449.522476543" y="0.0" type="line"/>
      <point x="245.084936674" y="253.562654842" type="line"/>
      <point x="229.951782341" y="240.163424586" type="line"/>
      <point x="424.092369968" y="0.0" type="line"/>
    </contour>
  </outline>
</glyph>
<glyph name="Eng" format="1">
  <advance width="659.930436443"/>
  <unicode hex="014A"/>
  <outline>
    <contour>
      <point x="126.161934431" y="0.0" type="line"/>
      <point x="126.161934431" y="534.906540215" type="line"/>
      <point x="115.856892206" y="534.906540215" type="line"/>
      <point x="536.782836081" y="0.0" type="line"/>
      <point x="544.073544236" y="24.3934704659" type="line"/>
      <point x="123.147600362" y="559.300010681" type="line"/>
      <point x="106.244353975" y="559.300010681" type="line"/>
      <point x="106.244353975" y="0.0" type="line"/>
    </contour>
    <contour>
      <point x="553.686082468" y="2.44494004669" type="curve" smooth="yes"/>
      <point x="553.686082468" y="559.300010681" type="line"/>
      <point x="533.768502011" y="559.300010681" type="line"/>
      <point x="533.768502011" y="3.15605006027" type="line" smooth="yes"/>
      <point x="533.768502011" y="-92.7639017715"/>
      <point x="494.519057279" y="-138.434742644"/>
      <point x="412.944349761" y="-138.434742644" type="curve" smooth="yes"/>
      <point x="360.297864784" y="-138.434742644"/>
      <point x="314.80779394" y="-112.643022151"/>
      <point x="284.332763371" y="-66.5327312706" type="curve"/>
      <point x="271.33375109" y="-79.6203515205" type="line"/>
      <point x="301.569317666" y="-128.535132455"/>
      <point x="354.981116674" y="-157.570793009"/>
      <point x="412.509107761" y="-157.570793009" type="curve" smooth="yes"/>
      <point x="506.052161554" y="-157.570793009"/>
      <point x="553.686082468" y="-104.165631989"/>
    </contour>
  </outline>
</glyph>
<glyph name="oe" format="1">
  <advance width="879.622480578"/>
  <unicode hex="0153"/>
  <outline>
    <contour>
      <point x="441.500432323" y="413.802107903" type="move" name="top"/>
    </contour>
    <contour>
      <point x="441.500432323" y="0.0" type="move" name="bottom"/>
    </contour>
    <contour>
      <point x="450.134080515" y="207.300553959" type="curve" smooth="yes"/>
      <point x="450.134080515" y="329.859166299"/>
      <point x="363.51768488" y="416.366897952"/>
      <point x="247.172156671" y="416.366897952" type="curve" smooth="yes"/>
      <point x="130.071022449" y="416.366897952"/>
      <point x="43.0986668002" y="329.859166299"/>
      <point x="43.0986668002" y="207.300553959" type="curve" smooth="yes"/>
      <point x="43.0986668002" y="84.7419416183"/>
      <point x="130.071022449" y="-2.56479004898"/>
      <point x="247.172156671" y="-2.56479004898" type="curve" smooth="yes"/>
      <point x="363.51768488" y="-2.56479004898"/>
      <point x="450.134080515" y="84.7419416183"/>
    </contour>
    <contour>
      <point x="62.8916612518" y="207.300553959" type="curve" smooth="yes"/>
      <point x="62.8916612518" y="319.831716108"/>
      <point x="141.914782719" y="397.42260759"/>
      <point x="247.243348674" y="397.42260759" type="curve" smooth="yes"/>
      <point x="352.571914629" y="397.42260759"/>
      <point x="431.595036096" y="319.831716108"/>
      <point x="431.595036096" y="207.300553959" type="curve" smooth="yes"/>
      <point x="431.595036096" y="94.7693918098"/>
      <point x="352.571914629" y="16.3795003128"/>
      <point x="247.243348674" y="16.3795003128" type="curve" smooth="yes"/>
      <point x="141.914782719" y="16.3795003128"/>
      <point x="62.8916612518" y="94.7693918098"/>
    </contour>
    <contour>
      <point x="810.475631284" y="65.4221212494" type="curve"/>
      <point x="797.334234996" y="79.1249715111" type="line"/>
      <point x="762.654022345" y="36.6261606995"/>
      <point x="708.336143335" y="16.1637703087"/>
      <point x="649.706294238" y="16.1637703087" type="curve" smooth="yes"/>
      <point x="536.038556121" y="16.1637703087"/>
      <point x="451.388030548" y="94.6016018066"/>
      <point x="451.388030548" y="207.132763956" type="curve" smooth="yes"/>
      <point x="451.388030548" y="211.04786403" type="line" smooth="yes"/>
      <point x="451.388030548" y="317.962056072"/>
      <point x="528.775353984" y="397.9499476"/>
      <point x="634.192909943" y="397.9499476" type="curve" smooth="yes"/>
      <point x="739.610465901" y="397.9499476"/>
      <point x="817.788991352" y="317.962056072"/>
      <point x="817.788991352" y="211.04786403" type="curve"/>
      <point x="824.866123499" y="224.870564294" type="line"/>
      <point x="447.956252479" y="224.870564294" type="line"/>
      <point x="447.956252479" y="207.532263963" type="line"/>
      <point x="836.452621775" y="207.532263963" type="line"/>
      <point x="836.488217777" y="209.465844"/>
      <point x="836.523813778" y="210.744244025"/>
      <point x="836.523813778" y="212.725764062" type="curve" smooth="yes"/>
      <point x="836.523813778" y="331.864656338"/>
      <point x="748.582276107" y="416.366897952"/>
      <point x="634.246303945" y="416.366897952" type="curve" smooth="yes"/>
      <point x="517.954169738" y="416.366897952"/>
      <point x="431.950996111" y="329.859166299"/>
      <point x="431.950996111" y="207.300553959" type="curve" smooth="yes"/>
      <point x="431.950996111" y="84.8138516197"/>
      <point x="524.301583855" y="-2.56479004898"/>
      <point x="649.581708233" y="-2.56479004898" type="curve" smooth="yes"/>
      <point x="713.182053444" y="-2.56479004898"/>
      <point x="772.328044561" y="20.630180394"/>
    </contour>
  </outline>
</glyph>
<glyph name="Uogonek" format="1">
  <advance width="642.168032108"/>
  <unicode hex="0172"/>
  <outline>
    <contour>
      <point x="520.824501767" y="235.577164499" type="line"/>
      <point x="520.824501767" y="88.0817616821"/>
      <point x="448.095400415" y="16.5952303169"/>
      <point x="321.119612056" y="16.5952303169" type="curve" smooth="yes"/>
      <point x="194.143823697" y="16.5952303169"/>
      <point x="121.414722344" y="88.0817616821"/>
      <point x="121.414722344" y="235.577164499" type="curve" smooth="yes"/>
      <point x="121.414722344" y="559.300010681" type="line"/>
      <point x="101.390353883" y="559.300010681" type="line"/>
      <point x="101.390353883" y="234.634344481" type="line" smooth="yes"/>
      <point x="101.390353883" y="76.1447014542"/>
      <point x="185.126709471" y="-2.70861005173"/>
      <point x="321.084016054" y="-2.70861005173" type="curve" smooth="yes"/>
      <point x="330.881006241" y="-2.70861005173"/>
      <point x="342.242602456" y="-1.90961003647"/>
      <point x="352.039592643" y="-1.11061002121" type="curve"/>
      <point x="364.609834872" y="12.0249502296" type="line"/>
      <point x="271.735015123" y="-23.6424104515"/>
      <point x="253.24289276" y="-70.008381337"/>
      <point x="253.24289276" y="-103.558391978" type="curve" smooth="yes"/>
      <point x="253.24289276" y="-145.657702782"/>
      <point x="285.132055368" y="-170.834193262"/>
      <point x="328.054360196" y="-170.834193262" type="curve" smooth="yes"/>
      <point x="350.973330634" y="-170.834193262"/>
      <point x="370.780887017" y="-164.394253139"/>
      <point x="388.614483354" y="-149.357072852" type="curve"/>
      <point x="379.430715174" y="-135.502412588" type="line"/>
      <point x="366.504512931" y="-147.295652813"/>
      <point x="347.915310581" y="-153.663682935"/>
      <point x="329.32610823" y="-153.663682935" type="curve" smooth="yes"/>
      <point x="296.228299608" y="-153.663682935"/>
      <point x="271.416269145" y="-136.956592616"/>
      <point x="271.416269145" y="-103.078991969" type="curve" smooth="yes"/>
      <point x="271.416269145" y="-73.6598114067"/>
      <point x="288.583249473" y="-28.7400305489"/>
      <point x="397.299907513" y="6.36803012161" type="curve" smooth="yes"/>
      <point x="487.961303224" y="35.347760675"/>
      <point x="540.777678225" y="105.875492022"/>
      <point x="540.777678225" y="234.634344481" type="curve" smooth="yes"/>
      <point x="540.777678225" y="559.300010681" type="line"/>
      <point x="520.824501767" y="559.300010681" type="line"/>
    </contour>
  </outline>
</glyph>
<glyph name="florin" format="1">
  <advance width="336.794796393"/>
  <unicode hex="0192"/>
  <outline>
    <contour>
      <point x="124.953288417" y="-53.5809410233" type="curve" smooth="yes"/>
      <point x="181.156137468" y="399.404127628" type="line"/>
      <point x="182.018531486" y="410.158667833" type="line"/>
      <point x="192.357551677" y="487.50985931" type="line" smooth="yes"/>
      <point x="200.358561826" y="545.141730411"/>
      <point x="231.660390411" y="576.598361012"/>
      <point x="287.614067451" y="576.598361012" type="curve" smooth="yes"/>
      <point x="314.044097944" y="576.598361012"/>
      <point x="338.082724392" y="567.929210846"/>
      <point x="353.38253268" y="551.485790532" type="curve"/>
      <point x="367.341018965" y="566.099500811" type="line"/>
      <point x="350.174038637" y="585.906711189"/>
      <point x="319.182866047" y="595.422801371"/>
      <point x="289.054087475" y="595.422801371" type="curve" smooth="yes"/>
      <point x="222.981438199" y="595.422801371"/>
      <point x="180.076931372" y="553.738970575"/>
      <point x="172.653547229" y="491.432949385" type="curve" smooth="yes"/>
      <point x="105.124697964" y="-49.6578509483" type="line" smooth="yes"/>
      <point x="97.9148898298" y="-107.289722049"/>
      <point x="65.0662532172" y="-138.74635265"/>
      <point x="11.5751722237" y="-138.74635265" type="curve" smooth="yes"/>
      <point x="-17.2284643126" y="-138.74635265"/>
      <point x="-40.4758887465" y="-130.101172485"/>
      <point x="-56.566899048" y="-113.63378217" type="curve"/>
      <point x="-69.7341833187" y="-128.247492449" type="line"/>
      <point x="-52.5316069897" y="-148.054702827"/>
      <point x="-21.5760304012" y="-157.570793009"/>
      <point x="11.0153442186" y="-157.570793009" type="curve" smooth="yes"/>
      <point x="76.207801476" y="-157.570793009"/>
      <point x="117.512106274" y="-115.886962213"/>
    </contour>
    <contour>
      <point x="320.711876074" y="394.402387532" type="line"/>
      <point x="323.441442132" y="413.083007889" type="line"/>
      <point x="82.6862735457" y="413.083007889" type="line"/>
      <point x="79.9567074876" y="394.402387532" type="line"/>
    </contour>
  </outline>
</glyph>
<glyph name="Ohorn" format="1">
  <advance width="676.537588765"/>
  <unicode hex="01A0"/>
  <outline>
    <contour>
      <point x="338.268794383" y="559.300010681" type="move" name="top"/>
    </contour>
    <contour>
      <point x="338.268794383" y="0.0" type="move" name="bottom"/>
    </contour>
    <contour>
      <point x="629.340527886" y="279.650005341" type="curve" smooth="yes"/>
      <point x="629.340527886" y="399.50799763"/>
      <point x="557.980254554" y="502.563019598"/>
      <point x="445.75253646" y="542.001660351" type="curve"/>
      <point x="430.839430083" y="538.621890286" type="line"/>
      <point x="454.763178545" y="534.578950209"/>
      <point x="488.199149181" y="532.01416016"/>
      <point x="506.762463548" y="532.01416016" type="curve" smooth="yes"/>
      <point x="578.124354915" y="532.01416016"/>
      <point x="613.712265604" y="560.019110695"/>
      <point x="613.712265604" y="615.573581756" type="curve" smooth="yes"/>
      <point x="613.712265604" y="636.803012161"/>
      <point x="606.342275463" y="659.390742593"/>
      <point x="595.647295257" y="675.586472902" type="curve"/>
      <point x="578.771554889" y="668.307582763" type="line"/>
      <point x="587.688353057" y="653.246432475"/>
      <point x="594.951555194" y="635.69240214"/>
      <point x="594.951555194" y="615.014281745" type="curve" smooth="yes"/>
      <point x="594.951555194" y="571.500740914"/>
      <point x="565.987736651" y="550.071560505"/>
      <point x="506.726867546" y="550.071560505" type="curve" smooth="yes"/>
      <point x="453.777816557" y="550.071560505"/>
      <point x="407.753805691" y="562.008620733"/>
      <point x="338.44677439" y="562.008620733" type="curve" smooth="yes"/>
      <point x="172.014437238" y="562.008620733"/>
      <point x="47.1970608786" y="441.287708427"/>
      <point x="47.1970608786" y="279.650005341" type="curve" smooth="yes"/>
      <point x="47.1970608786" y="118.012302254"/>
      <point x="172.014437238" y="-2.70861005173"/>
      <point x="338.268794383" y="-2.70861005173" type="curve" smooth="yes"/>
      <point x="504.523151527" y="-2.70861005173"/>
      <point x="629.340527886" y="118.012302254"/>
    </contour>
    <contour>
      <point x="67.2570253411" y="279.650005341" type="curve" smooth="yes"/>
      <point x="67.2570253411" y="428.743408188"/>
      <point x="184.018379514" y="542.704780364"/>
      <point x="338.268794383" y="542.704780364" type="curve" smooth="yes"/>
      <point x="492.519209251" y="542.704780364"/>
      <point x="609.280563424" y="428.743408188"/>
      <point x="609.280563424" y="279.650005341" type="curve" smooth="yes"/>
      <point x="609.280563424" y="130.556602493"/>
      <point x="492.519209251" y="16.5952303169"/>
      <point x="338.268794383" y="16.5952303169" type="curve" smooth="yes"/>
      <point x="184.018379514" y="16.5952303169"/>
      <point x="67.2570253411" y="130.556602493"/>
    </contour>
  </outline>
</glyph>
<glyph name="ohorn" format="1">
  <advance width="494.486697348"/>
  <unicode hex="01A1"/>
  <outline>
    <contour>
      <point x="247.243348674" y="413.802107903" type="move" name="top"/>
    </contour>
    <contour>
      <point x="247.243348674" y="0.0" type="move" name="bottom"/>
    </contour>
    <contour>
      <point x="451.388030548" y="207.300553959" type="curve" smooth="yes"/>
      <point x="451.388030548" y="303.931615804"/>
      <point x="397.202827526" y="378.238617223"/>
      <point x="317.005038012" y="404.869287732" type="curve"/>
      <point x="321.438358033" y="396.032347563" type="line"/>
      <point x="336.249530318" y="394.31449753"/>
      <point x="344.873470492" y="394.194647528"/>
      <point x="352.724006653" y="394.194647528" type="curve" smooth="yes"/>
      <point x="414.413493838" y="394.194647528"/>
      <point x="443.707384412" y="430.021808212"/>
      <point x="443.707384412" y="470.850708992" type="curve" smooth="yes"/>
      <point x="443.707384412" y="492.080139397"/>
      <point x="436.30179827" y="514.667869829"/>
      <point x="425.606818064" y="530.863600138" type="curve"/>
      <point x="408.731077696" y="523.584709999" type="line"/>
      <point x="417.647875864" y="508.523559711"/>
      <point x="424.946674002" y="490.969529376"/>
      <point x="424.946674002" y="470.291408981" type="curve" smooth="yes"/>
      <point x="424.946674002" y="440.728408417"/>
      <point x="402.490451583" y="412.252047873"/>
      <point x="352.057390643" y="412.252047873" type="curve" smooth="yes"/>
      <point x="308.042935824" y="412.252047873"/>
      <point x="291.702753512" y="416.366897952"/>
      <point x="247.296742676" y="416.366897952" type="curve" smooth="yes"/>
      <point x="130.071022449" y="416.366897952"/>
      <point x="43.0986668002" y="329.859166299"/>
      <point x="43.0986668002" y="207.300553959" type="curve" smooth="yes"/>
      <point x="43.0986668002" y="84.7419416183"/>
      <point x="130.071022449" y="-2.56479004898"/>
      <point x="247.243348674" y="-2.56479004898" type="curve" smooth="yes"/>
      <point x="364.415674899" y="-2.56479004898"/>
      <point x="451.388030548" y="84.7419416183"/>
    </contour>
    <contour>
      <point x="62.8916612518" y="207.300553959" type="curve" smooth="yes"/>
      <point x="62.8916612518" y="319.831716108"/>
      <point x="141.914782719" y="397.42260759"/>
      <point x="247.243348674" y="397.42260759" type="curve" smooth="yes"/>
      <point x="352.571914629" y="397.42260759"/>
      <point x="431.595036096" y="319.831716108"/>
      <point x="431.595036096" y="207.300553959" type="curve" smooth="yes"/>
      <point x="431.595036096" y="94.7693918098"/>
      <point x="352.571914629" y="16.3795003128"/>
      <point x="247.243348674" y="16.3795003128" type="curve" smooth="yes"/>
      <point x="141.914782719" y="16.3795003128"/>
      <point x="62.8916612518" y="94.7693918098"/>
    </contour>
  </outline>
</glyph>
<glyph name="acutecomb" format="1">
  <advance width="485.400009155"/>
  <unicode hex="0301"/>
  <outline>
    <contour>
      <point x="242.700004578" y="413.802107903" type="move" name="_top"/>
    </contour>
    <contour>
      <point x="242.700004578" y="529.737010117" type="move" name="top"/>
    </contour>
    <contour>
      <point x="231.632884392" y="484.993009262" type="line"/>
      <point x="353.819392715" y="574.081510963" type="line"/>
      <point x="318.344741978" y="574.081510963" type="line"/>
      <point x="205.227123848" y="484.993009262" type="line"/>
    </contour>
  </outline>
</glyph>
<glyph name="hookabovecomb" format="1">
  <advance width="485.400009155"/>
  <unicode hex="0309"/>
  <outline>
    <contour>
      <point x="242.700004578" y="413.802107903" type="move" name="_top"/>
    </contour>
    <contour>
      <point x="242.700004578" y="585.667011185" type="move" name="top"/>
    </contour>
    <contour>
      <point x="304.638663773" y="557.813870653" type="curve" smooth="yes"/>
      <point x="304.638663773" y="593.665001337"/>
      <point x="279.096915281" y="616.564341775"/>
      <point x="239.624186523" y="616.564341775" type="curve" smooth="yes"/>
      <point x="220.572236154" y="616.564341775"/>
      <point x="197.599871714" y="610.05249165"/>
      <point x="182.735305427" y="599.329911446" type="curve"/>
      <point x="189.883629576" y="584.140921156" type="line"/>
      <point x="206.063629882" y="594.551891354"/>
      <point x="221.416832171" y="599.345891446"/>
      <point x="239.952640519" y="599.345891446" type="curve" smooth="yes"/>
      <point x="267.298459031" y="599.345891446"/>
      <point x="286.589873392" y="581.184621099"/>
      <point x="286.589873392" y="556.583410629" type="curve" smooth="yes"/>
      <point x="286.589873392" y="529.800930118"/>
      <point x="269.041045067" y="509.99371974"/>
      <point x="235.925438443" y="495.611719465" type="curve"/>
      <point x="245.047722638" y="481.653189198" type="line"/>
      <point x="285.782491412" y="500.973009567"/>
      <point x="304.638663773" y="525.254620031"/>
    </contour>
  </outline>
</glyph>
<glyph name="dotbelowcomb" format="1">
  <advance width="485.400009155"/>
  <unicode hex="0323"/>
  <outline>
    <contour>
      <point x="242.700004578" y="0.0" type="move" name="_bottom"/>
    </contour>
    <contour>
      <point x="242.700004578" y="-92.1566617599" type="move" name="bottom"/>
    </contour>
    <contour>
      <point x="264.873077021" y="-119.586332284" type="curve" smooth="yes"/>
      <point x="264.873077021" y="-107.465502052"/>
      <point x="254.684530818" y="-97.3022218582"/>
      <point x="242.700004578" y="-97.3022218582" type="curve" smooth="yes"/>
      <point x="230.715478337" y="-97.3022218582"/>
      <point x="220.526932135" y="-107.465502052"/>
      <point x="220.526932135" y="-119.586332284" type="curve" smooth="yes"/>
      <point x="220.526932135" y="-131.707162515"/>
      <point x="230.715478337" y="-141.822502708"/>
      <point x="242.700004578" y="-141.822502708" type="curve" smooth="yes"/>
      <point x="254.684530818" y="-141.822502708"/>
      <point x="264.873077021" y="-131.707162515"/>
    </contour>
  </outline>
</glyph>
<glyph name="Delta" format="1">
  <advance width="558.692174583"/>
  <unicode hex="0394"/>
  <outline>
    <contour>
      <point x="269.369499063" y="559.300010681" type="line"/>
      <point x="6.78265611713" y="0.0" type="line"/>
      <point x="551.909518466" y="0.0" type="line"/>
      <point x="289.322675521" y="559.300010681" type="line"/>
    </contour>
    <contour>
      <point x="284.085209396" y="544.454590398" type="line"/>
      <point x="274.535773184" y="544.454590398" type="line"/>
      <point x="525.163977873" y="10.3470501976" type="line"/>
      <point x="530.009887982" y="19.112080365" type="line"/>
      <point x="27.8198925841" y="19.112080365" type="line"/>
      <point x="32.6658026929" y="10.3470501976" type="line"/>
    </contour>
  </outline>
</glyph>
<glyph name="Omega" format="1">
  <advance width="735.620477862"/>
  <unicode hex="03A9"/>
  <outline>
    <contour>
      <point x="10.2597382055" y="558.548950667" type="move" name="topleft"/>
    </contour>
    <contour>
      <point x="268.180269084" y="0.0" type="line"/>
      <point x="268.180269084" y="18.800470359" type="line"/>
      <point x="155.357126983" y="76.240581456"/>
      <point x="96.7984698898" y="173.271143309"/>
      <point x="96.7984698898" y="279.913675346" type="curve" smooth="yes"/>
      <point x="96.7984698898" y="430.485228221"/>
      <point x="213.559824063" y="542.704780364"/>
      <point x="367.810238931" y="542.704780364" type="curve" smooth="yes"/>
      <point x="522.0606538" y="542.704780364"/>
      <point x="638.822007973" y="430.485228221"/>
      <point x="638.822007973" y="279.913675346" type="curve" smooth="yes"/>
      <point x="638.822007973" y="173.295113309"/>
      <point x="580.28114888" y="76.2885214569"/>
      <point x="467.440208778" y="18.800470359" type="curve"/>
      <point x="467.440208778" y="0.0" type="line"/>
      <point x="727.566073711" y="0.0" type="line"/>
      <point x="727.566073711" y="19.8871103798" type="line"/>
      <point x="504.684951569" y="19.8871103798" type="line"/>
      <point x="607.586517478" y="79.2128615128"/>
      <point x="658.810780432" y="178.592483411"/>
      <point x="658.810780432" y="280.68071536" type="curve" smooth="yes"/>
      <point x="658.810780432" y="441.791078437"/>
      <point x="533.957808072" y="562.008620733"/>
      <point x="367.810238931" y="562.008620733" type="curve" smooth="yes"/>
      <point x="201.662669791" y="562.008620733"/>
      <point x="76.8096974302" y="441.791078437"/>
      <point x="76.8096974302" y="280.704685361" type="curve" smooth="yes"/>
      <point x="76.8096974302" y="178.616453411"/>
      <point x="128.033960384" y="79.2128615128"/>
      <point x="230.935526294" y="19.8871103798" type="curve"/>
      <point x="8.05440415114" y="19.8871103798" type="line"/>
      <point x="8.05440415114" y="0.0" type="line"/>
    </contour>
  </outline>
</glyph>
<glyph name="mu" format="1">
  <advance width="542.563950245"/>
  <unicode hex="03BC"/>
  <outline>
    <contour>
      <point x="111.724520162" y="-155.00600296" type="line"/>
      <point x="111.724520162" y="107.145902046" type="line"/>
      <point x="109.270014097" y="89.384131707" type="line"/>
      <point x="133.504418554" y="28.9158105522"/>
      <point x="188.773681584" y="-2.56479004898"/>
      <point x="264.774378999" y="-2.56479004898" type="curve" smooth="yes"/>
      <point x="350.572066601" y="-2.56479004898"/>
      <point x="412.651491767" y="41.7477507973"/>
      <point x="435.898916201" y="121.112422313" type="curve"/>
      <point x="431.391168106" y="121.448002319" type="line"/>
      <point x="431.391168106" y="0.0" type="line"/>
      <point x="450.685818537" y="0.0" type="line"/>
      <point x="450.685818537" y="413.802107903" type="line"/>
      <point x="430.839430083" y="413.802107903" type="line"/>
      <point x="430.839430083" y="189.858383626" type="line" smooth="yes"/>
      <point x="430.839430083" y="86.3878816498"/>
      <point x="367.658146908" y="16.7150803192"/>
      <point x="264.10776299" y="16.7150803192" type="curve" smooth="yes"/>
      <point x="167.589207199" y="16.7150803192"/>
      <point x="111.724520162" y="70.0403413376"/>
      <point x="111.724520162" y="171.113843268" type="curve" smooth="yes"/>
      <point x="111.724520162" y="413.802107903" type="line"/>
      <point x="91.8781317079" y="413.802107903" type="line"/>
      <point x="91.8781317079" y="-155.00600296" type="line"/>
    </contour>
  </outline>
</glyph>
<glyph name="pi" format="1">
  <advance width="581.128980967"/>
  <unicode hex="03C0"/>
  <outline>
    <contour>
      <point x="44.9593668931" y="223.911764276" type="line"/>
      <point x="28.9573465952" y="245.340944685"/>
      <point x="19.3205384149" y="270.765125171"/>
      <point x="18.5293364004" y="295.925635651" type="curve"/>
      <point x="17.7203363851" y="351.528046713"/>
      <point x="66.3040232849" y="394.562187535"/>
      <point x="131.627538495" y="394.562187535" type="curve"/>
      <point x="575.359192855" y="394.562187535" type="line"/>
      <point x="576.132596869" y="413.802107903" type="line"/>
      <point x="131.093598473" y="413.802107903" type="line"/>
      <point x="56.3630310573" y="413.802107903"/>
      <point x="-1.20055603113" y="361.81916691"/>
      <point x="-0.391556015872" y="296.836495669" type="curve"/>
      <point x="0.399645998665" y="267.832795115"/>
      <point x="11.7612422137" y="236.943454525"/>
      <point x="29.5592425494" y="214.13999409" type="curve"/>
    </contour>
    <contour>
      <point x="171.626117292" y="0.0" type="line"/>
      <point x="219.845754195" y="410.446307838" type="line"/>
      <point x="200.729083771" y="410.446307838" type="line"/>
      <point x="152.509446868" y="0.0" type="line"/>
    </contour>
    <contour>
      <point x="429.473838133" y="0.0" type="line"/>
      <point x="429.473838133" y="410.446307838" type="line"/>
      <point x="410.357167709" y="410.446307838" type="line"/>
      <point x="410.357167709" y="0.0" type="line"/>
    </contour>
  </outline>
</glyph>
<glyph name="figuredash" format="1">
  <advance width="566.300010681"/>
  <unicode hex="2012"/>
  <outline>
    <contour>
      <point x="526.027989925" y="275.111685254" type="line"/>
      <point x="526.027989925" y="292.953355595" type="line"/>
      <point x="40.2720207557" y="292.953355595" type="line"/>
      <point x="40.2720207557" y="275.111685254" type="line"/>
    </contour>
  </outline>
</glyph>
<glyph name="endash" format="1">
  <advance width="404.500007629"/>
  <unicode hex="2013"/>
  <outline>
    <contour>
      <point x="404.500007629" y="203.001933877" type="line"/>
      <point x="404.500007629" y="220.843604218" type="line"/>
      <point x="0.0" y="220.843604218" type="line"/>
      <point x="0.0" y="203.001933877" type="line"/>
    </contour>
  </outline>
</glyph>
<glyph name="emdash" format="1">
  <advance width="809.000015259"/>
  <unicode hex="2014"/>
  <outline>
    <contour>
      <point x="809.000015259" y="203.001933877" type="line"/>
      <point x="809.000015259" y="220.843604218" type="line"/>
      <point x="0.0" y="220.843604218" type="line"/>
      <point x="0.0" y="203.001933877" type="line"/>
    </contour>
  </outline>
</glyph>
<glyph name="quoteleft" format="1">
  <advance width="149.409358865"/>
  <unicode hex="2018"/>
  <outline>
    <contour>
      <point x="82.9985475759" y="592.858011322" type="line"/>
      <point x="55.6430210456" y="485.43245927" type="line"/>
      <point x="53.4376869913" y="475.109379073"/>
      <point x="51.7840909594" y="469.108888959"/>
      <point x="51.7840909594" y="459.816518781" type="curve" smooth="yes"/>
      <point x="51.7840909594" y="448.646498568"/>
      <point x="60.6927991451" y="436.597578338"/>
      <point x="74.7046794326" y="436.597578338" type="curve" smooth="yes"/>
      <point x="87.9253577054" y="436.597578338"/>
      <point x="97.6252679058" y="447.096438538"/>
      <point x="97.6252679058" y="459.816518781" type="curve" smooth="yes"/>
      <point x="97.6252679058" y="472.536599024"/>
      <point x="87.1697516924" y="482.963549223"/>
      <point x="73.1222754035" y="482.963549223" type="curve"/>
      <point x="73.7096094273" y="471.417999003" type="line"/>
      <point x="99.7319039386" y="592.858011322" type="line"/>
    </contour>
  </outline>
</glyph>
<glyph name="quoteright" format="1">
  <advance width="149.409358865"/>
  <unicode hex="2019"/>
  <outline>
    <contour>
      <point x="66.4108112892" y="439.162368387" type="line"/>
      <point x="93.7663378195" y="546.587920438" type="line"/>
      <point x="95.9716718738" y="556.911000636"/>
      <point x="97.6252679058" y="562.91149075"/>
      <point x="97.6252679058" y="572.203860928" type="curve" smooth="yes"/>
      <point x="97.6252679058" y="583.373881141"/>
      <point x="88.71655972" y="595.422801371"/>
      <point x="74.7046794326" y="595.422801371" type="curve" smooth="yes"/>
      <point x="61.4840011597" y="595.422801371"/>
      <point x="51.7840909594" y="584.923941171"/>
      <point x="51.7840909594" y="572.203860928" type="curve" smooth="yes"/>
      <point x="51.7840909594" y="559.483780685"/>
      <point x="62.2396071728" y="549.056830486"/>
      <point x="76.2870834616" y="549.056830486" type="curve"/>
      <point x="75.6997494378" y="560.602380706" type="line"/>
      <point x="49.6774549266" y="439.162368387" type="line"/>
    </contour>
  </outline>
</glyph>
<glyph name="quotesinglbase" format="1">
  <advance width="149.409358865"/>
  <unicode hex="201A"/>
  <outline>
    <contour>
      <point x="66.4108112892" y="-112.339402145" type="line"/>
      <point x="93.7663378195" y="-4.91385009384" type="line"/>
      <point x="95.9716718738" y="5.4092301033"/>
      <point x="97.6252679058" y="11.4097202179"/>
      <point x="97.6252679058" y="20.7020903954" type="curve" smooth="yes"/>
      <point x="97.6252679058" y="31.8721106087"/>
      <point x="88.71655972" y="43.9210308388"/>
      <point x="74.7046794326" y="43.9210308388" type="curve" smooth="yes"/>
      <point x="61.4840011597" y="43.9210308388"/>
      <point x="51.7840909594" y="33.4221706383"/>
      <point x="51.7840909594" y="20.7020903954" type="curve" smooth="yes"/>
      <point x="51.7840909594" y="7.98201015244"/>
      <point x="62.2396071728" y="-2.44494004669"/>
      <point x="76.2870834616" y="-2.44494004669" type="curve"/>
      <point x="75.6997494378" y="9.1006101738" type="line"/>
      <point x="49.6774549266" y="-112.339402145" type="line"/>
    </contour>
  </outline>
</glyph>
<glyph name="dagger" format="1">
  <advance width="422.584394012"/>
  <unicode hex="2020"/>
  <outline>
    <contour>
      <point x="221.15309823" y="-155.00600296" type="line"/>
      <point x="221.15309823" y="325.600496218" type="line"/>
      <point x="398.332191555" y="325.600496218" type="line"/>
      <point x="398.332191555" y="344.592726581" type="line"/>
      <point x="221.15309823" y="344.592726581" type="line"/>
      <point x="221.15309823" y="559.300010681" type="line"/>
      <point x="201.306709776" y="559.300010681" type="line"/>
      <point x="201.306709776" y="344.592726581" type="line"/>
      <point x="24.252202457" y="344.592726581" type="line"/>
      <point x="24.252202457" y="325.600496218" type="line"/>
      <point x="201.306709776" y="325.600496218" type="line"/>
      <point x="201.306709776" y="-155.00600296" type="line"/>
    </contour>
  </outline>
</glyph>
<glyph name="daggerdbl" format="1">
  <advance width="422.584394012"/>
  <unicode hex="2021"/>
  <outline>
    <contour>
      <point x="398.332191555" y="344.616696581" type="line"/>
      <point x="221.15309823" y="344.616696581" type="line"/>
      <point x="221.15309823" y="559.300010681" type="line"/>
      <point x="201.306709776" y="559.300010681" type="line"/>
      <point x="201.306709776" y="344.616696581" type="line"/>
      <point x="24.252202457" y="344.616696581" type="line"/>
      <point x="24.252202457" y="325.624466219" type="line"/>
      <point x="201.306709776" y="325.624466219" type="line"/>
      <point x="201.306709776" y="78.6695415024" type="line"/>
      <point x="24.252202457" y="78.6695415024" type="line"/>
      <point x="24.252202457" y="59.6773111397" type="line"/>
      <point x="201.306709776" y="59.6773111397" type="line"/>
      <point x="201.306709776" y="-155.00600296" type="line"/>
      <point x="221.15309823" y="-155.00600296" type="line"/>
      <point x="221.15309823" y="59.6773111397" type="line"/>
      <point x="398.332191555" y="59.6773111397" type="line"/>
      <point x="398.332191555" y="78.6695415024" type="line"/>
      <point x="221.15309823" y="78.6695415024" type="line"/>
      <point x="221.15309823" y="325.624466219" type="line"/>
      <point x="398.332191555" y="325.624466219" type="line"/>
    </contour>
  </outline>
</glyph>
<glyph name="bullet" format="1">
  <advance width="211.427300046"/>
  <unicode hex="2022"/>
  <outline>
    <contour>
      <point x="143.463208782" y="215.314524112" type="curve" smooth="yes"/>
      <point x="143.463208782" y="236.192394511"/>
      <point x="126.322116438" y="253.346924838"/>
      <point x="105.695852022" y="253.346924838" type="curve" smooth="yes"/>
      <point x="85.0695876072" y="253.346924838"/>
      <point x="67.9640912645" y="236.192394511"/>
      <point x="67.9640912645" y="215.314524112" type="curve" smooth="yes"/>
      <point x="67.9640912645" y="194.436653713"/>
      <point x="85.0695876072" y="177.234183385"/>
      <point x="105.695852022" y="177.234183385" type="curve" smooth="yes"/>
      <point x="126.322116438" y="177.234183385"/>
      <point x="143.463208782" y="194.436653713"/>
    </contour>
  </outline>
</glyph>
<glyph name="perthousand" format="1">
  <advance width="932.477687651"/>
  <unicode hex="2030"/>
  <outline>
    <contour>
      <point x="141.49733872" y="0.0" type="line"/>
      <point x="528.199346013" y="559.300010681" type="line"/>
      <point x="507.785039572" y="559.300010681" type="line"/>
      <point x="121.083032278" y="0.0" type="line"/>
    </contour>
    <contour>
      <point x="282.172733336" y="411.485007858" type="curve" smooth="yes"/>
      <point x="282.172733336" y="502.810709602"/>
      <point x="231.729964378" y="561.86480073"/>
      <point x="161.044397039" y="561.86480073" type="curve" smooth="yes"/>
      <point x="90.3588296989" y="561.86480073"/>
      <point x="39.9160607413" y="502.810709602"/>
      <point x="39.9160607413" y="411.485007858" type="curve" smooth="yes"/>
      <point x="39.9160607413" y="320.135336114"/>
      <point x="90.3588296989" y="261.105214986"/>
      <point x="161.044397039" y="261.105214986" type="curve" smooth="yes"/>
      <point x="231.729964378" y="261.105214986"/>
      <point x="282.172733336" y="320.135336114"/>
    </contour>
    <contour>
      <point x="58.1962251316" y="411.485007858" type="curve" smooth="yes"/>
      <point x="58.1962251316" y="494.469149443"/>
      <point x="100.521487918" y="544.550470399"/>
      <point x="161.044397039" y="544.550470399" type="curve" smooth="yes"/>
      <point x="221.567306159" y="544.550470399"/>
      <point x="263.892568946" y="494.469149443"/>
      <point x="263.892568946" y="411.485007858" type="curve" smooth="yes"/>
      <point x="263.892568946" y="328.500866273"/>
      <point x="221.567306159" y="278.419545317"/>
      <point x="161.044397039" y="278.419545317" type="curve" smooth="yes"/>
      <point x="100.521487918" y="278.419545317"/>
      <point x="58.1962251316" y="328.500866273"/>
    </contour>
    <contour>
      <point x="609.36631755" y="147.815002823" type="curve" smooth="yes"/>
      <point x="609.36631755" y="239.140704567"/>
      <point x="558.923548593" y="298.194795695"/>
      <point x="488.237981253" y="298.194795695" type="curve" smooth="yes"/>
      <point x="417.552413913" y="298.194795695"/>
      <point x="367.109644955" y="239.140704567"/>
      <point x="367.109644955" y="147.815002823" type="curve" smooth="yes"/>
      <point x="367.109644955" y="56.4653310783"/>
      <point x="417.552413913" y="-2.56479004898"/>
      <point x="488.237981253" y="-2.56479004898" type="curve" smooth="yes"/>
      <point x="558.923548593" y="-2.56479004898"/>
      <point x="609.36631755" y="56.4653310783"/>
    </contour>
    <contour>
      <point x="385.389809346" y="147.815002823" type="curve" smooth="yes"/>
      <point x="385.389809346" y="230.799144408"/>
      <point x="427.715072132" y="280.880465364"/>
      <point x="488.237981253" y="280.880465364" type="curve" smooth="yes"/>
      <point x="548.760890373" y="280.880465364"/>
      <point x="591.08615316" y="230.799144408"/>
      <point x="591.08615316" y="147.815002823" type="curve" smooth="yes"/>
      <point x="591.08615316" y="64.8308612381"/>
      <point x="548.760890373" y="14.7495402817"/>
      <point x="488.237981253" y="14.7495402817" type="curve" smooth="yes"/>
      <point x="427.715072132" y="14.7495402817"/>
      <point x="385.389809346" y="64.8308612381"/>
    </contour>
    <contour>
      <point x="892.56162691" y="147.815002823" type="curve" smooth="yes"/>
      <point x="892.56162691" y="239.140704567"/>
      <point x="842.118857953" y="298.194795695"/>
      <point x="771.433290613" y="298.194795695" type="curve" smooth="yes"/>
      <point x="700.747723273" y="298.194795695"/>
      <point x="650.304954315" y="239.140704567"/>
      <point x="650.304954315" y="147.815002823" type="curve" smooth="yes"/>
      <point x="650.304954315" y="56.4653310783"/>
      <point x="700.747723273" y="-2.56479004898"/>
      <point x="771.433290613" y="-2.56479004898" type="curve" smooth="yes"/>
      <point x="842.118857953" y="-2.56479004898"/>
      <point x="892.56162691" y="56.4653310783"/>
    </contour>
    <contour>
      <point x="668.585118706" y="147.815002823" type="curve" smooth="yes"/>
      <point x="668.585118706" y="230.799144408"/>
      <point x="710.910381492" y="280.880465364"/>
      <point x="771.433290613" y="280.880465364" type="curve" smooth="yes"/>
      <point x="831.956199733" y="280.880465364"/>
      <point x="874.28146252" y="230.799144408"/>
      <point x="874.28146252" y="147.815002823" type="curve" smooth="yes"/>
      <point x="874.28146252" y="64.8308612381"/>
      <point x="831.956199733" y="14.7495402817"/>
      <point x="771.433290613" y="14.7495402817" type="curve" smooth="yes"/>
      <point x="710.910381492" y="14.7495402817"/>
      <point x="668.585118706" y="64.8308612381"/>
    </contour>
  </outline>
</glyph>
<glyph name="second" format="1">
  <advance width="272.964695208"/>
  <unicode hex="2033"/>
  <outline>
    <contour>
      <point x="83.5955896176" y="358.351506844" type="line"/>
      <point x="85.4449636575" y="559.300010681" type="line"/>
      <point x="64.6568992006" y="559.300010681" type="line"/>
      <point x="66.5062732405" y="358.351506844" type="line"/>
    </contour>
    <contour>
      <point x="206.458421968" y="358.351506844" type="line"/>
      <point x="208.307796008" y="559.300010681" type="line"/>
      <point x="187.519731551" y="559.300010681" type="line"/>
      <point x="189.369105591" y="358.351506844" type="line"/>
    </contour>
  </outline>
</glyph>
<glyph name="guilsinglleft" format="1">
  <advance width="222.725794241"/>
  <unicode hex="2039"/>
  <outline>
    <contour>
      <point x="186.854733576" y="59.1260011292" type="line"/>
      <point x="68.972105358" y="207.300553959" type="line"/>
      <point x="186.854733576" y="355.475106789" type="line"/>
      <point x="165.097487098" y="355.475106789" type="line"/>
      <point x="46.3346668612" y="207.300553959" type="line"/>
      <point x="165.097487098" y="59.1260011292" type="line"/>
    </contour>
  </outline>
</glyph>
<glyph name="guilsinglright" format="1">
  <advance width="222.725794241"/>
  <unicode hex="203A"/>
  <outline>
    <contour>
      <point x="176.39112738" y="207.300553959" type="line"/>
      <point x="57.6283071437" y="355.475106789" type="line"/>
      <point x="35.871060665" y="355.475106789" type="line"/>
      <point x="153.753688883" y="207.300553959" type="line"/>
      <point x="35.871060665" y="59.1260011292" type="line"/>
      <point x="57.6283071437" y="59.1260011292" type="line"/>
    </contour>
  </outline>
</glyph>
<glyph name="fraction" format="1">
  <advance width="130.098528468"/>
  <unicode hex="2044"/>
  <outline>
    <contour>
      <point x="-118.094586192" y="0.0" type="line"/>
      <point x="268.607421102" y="559.300010681" type="line"/>
      <point x="248.19311466" y="559.300010681" type="line"/>
      <point x="-138.508892634" y="0.0" type="line"/>
    </contour>
  </outline>
</glyph>
<glyph name="franc" format="1">
  <advance width="512.053323675"/>
  <unicode hex="20A3"/>
  <outline>
    <contour>
      <point x="312.570099954" y="123.117912351" type="line"/>
      <point x="312.570099954" y="139.753092669" type="line"/>
      <point x="18.1976463344" y="139.753092669" type="line"/>
      <point x="18.1976463344" y="123.117912351" type="line"/>
    </contour>
    <contour>
      <point x="126.856056459" y="0.0" type="line"/>
      <point x="126.856056459" y="258.029064928" type="line"/>
      <point x="437.457050281" y="258.029064928" type="line"/>
      <point x="437.457050281" y="277.02129529" type="line"/>
      <point x="126.856056459" y="277.02129529" type="line"/>
      <point x="126.856056459" y="540.307780318" type="line"/>
      <point x="473.790858965" y="540.307780318" type="line"/>
      <point x="473.790858965" y="559.300010681" type="line"/>
      <point x="106.831687998" y="559.300010681" type="line"/>
      <point x="106.831687998" y="0.0" type="line"/>
    </contour>
  </outline>
</glyph>
<glyph name="lira" format="1">
  <advance width="482.583071129"/>
  <unicode hex="20A4"/>
  <outline>
    <contour>
      <point x="459.824282697" y="0.0" type="line"/>
      <point x="459.824282697" y="18.9922303627" type="line"/>
      <point x="5.53841410176" y="18.9922303627" type="line"/>
      <point x="5.53841410176" y="0.0" type="line"/>
    </contour>
    <contour>
      <point x="122.108844372" y="8.22970015717" type="line"/>
      <point x="122.108844372" y="380.947227275" type="line" smooth="yes"/>
      <point x="122.108844372" y="482.140579208"/>
      <point x="178.418481427" y="542.704780364"/>
      <point x="302.638815745" y="542.704780364" type="curve" smooth="yes"/>
      <point x="361.828492847" y="542.704780364"/>
      <point x="414.848735838" y="529.313540108"/>
      <point x="456.685362623" y="497.033939492" type="curve"/>
      <point x="468.181252861" y="513.70107981" type="line"/>
      <point x="425.339848053" y="546.899530444"/>
      <point x="367.038452953" y="562.008620733"/>
      <point x="302.28285573" y="562.008620733" type="curve" smooth="yes"/>
      <point x="166.111973139" y="562.008620733"/>
      <point x="102.084475911" y="489.547309349"/>
      <point x="102.084475911" y="383.152467317" type="curve" smooth="yes"/>
      <point x="102.084475911" y="8.22970015717" type="line"/>
    </contour>
    <contour>
      <point x="362.41582687" y="216.201414129" type="line"/>
      <point x="362.41582687" y="232.836594447" type="line"/>
      <point x="5.53841410176" y="232.836594447" type="line"/>
      <point x="5.53841410176" y="216.201414129" type="line"/>
    </contour>
    <contour>
      <point x="362.41582687" y="326.463416235" type="line"/>
      <point x="362.41582687" y="343.098596552" type="line"/>
      <point x="5.53841410176" y="343.098596552" type="line"/>
      <point x="5.53841410176" y="326.463416235" type="line"/>
    </contour>
  </outline>
</glyph>
<glyph name="dong" format="1">
  <advance width="543.337354259"/>
  <unicode hex="20AB"/>
  <outline>
    <contour>
      <point x="453.04162658" y="-98.8762518883" type="line"/>
      <point x="453.04162658" y="-81.5139815567" type="line"/>
      <point x="59.3676571089" y="-81.5139815567" type="line"/>
      <point x="59.3676571089" y="-98.8762518883" type="line"/>
    </contour>
    <contour>
      <point x="446.291330394" y="207.300553959" type="curve" smooth="yes"/>
      <point x="446.291330394" y="330.530326312"/>
      <point x="361.284844807" y="416.366897952"/>
      <point x="246.424640641" y="416.366897952" type="curve" smooth="yes"/>
      <point x="131.546638474" y="416.366897952"/>
      <point x="43.1876568038" y="330.098866304"/>
      <point x="43.1876568038" y="207.300553959" type="curve" smooth="yes"/>
      <point x="43.1876568038" y="84.5022416138"/>
      <point x="131.546638474" y="-2.56479004898"/>
      <point x="246.424640641" y="-2.56479004898" type="curve" smooth="yes"/>
      <point x="361.427228813" y="-2.56479004898"/>
      <point x="446.291330394" y="83.9988716042"/>
    </contour>
    <contour>
      <point x="62.9806512554" y="207.300553959" type="curve" smooth="yes"/>
      <point x="62.9806512554" y="319.831716108"/>
      <point x="142.003772723" y="397.42260759"/>
      <point x="247.332338678" y="397.42260759" type="curve" smooth="yes"/>
      <point x="352.660904633" y="397.42260759"/>
      <point x="431.6840261" y="319.831716108"/>
      <point x="431.6840261" y="207.300553959" type="curve" smooth="yes"/>
      <point x="431.6840261" y="94.7693918098"/>
      <point x="352.660904633" y="16.3795003128"/>
      <point x="247.332338678" y="16.3795003128" type="curve" smooth="yes"/>
      <point x="142.003772723" y="16.3795003128"/>
      <point x="62.9806512554" y="94.7693918098"/>
    </contour>
    <contour>
      <point x="451.459222551" y="0.0" type="line"/>
      <point x="451.459222551" y="592.858011322" type="line"/>
      <point x="431.612834097" y="592.858011322" type="line"/>
      <point x="431.612834097" y="267.121685101" type="line"/>
      <point x="439.70283425" y="208.075583974" type="line"/>
      <point x="431.808612105" y="149.029482846" type="line"/>
      <point x="431.808612105" y="0.0" type="line"/>
    </contour>
    <contour>
      <point x="543.35515226" y="495.316089459" type="line"/>
      <point x="543.35515226" y="512.678359791" type="line"/>
      <point x="236.663246456" y="512.678359791" type="line"/>
      <point x="236.663246456" y="495.316089459" type="line"/>
    </contour>
  </outline>
</glyph>
<glyph name="trademark" format="1">
  <advance width="814.939693394"/>
  <unicode hex="2122"/>
  <outline>
    <contour>
      <point x="361.35927288" y="227.715004349" type="line"/>
      <point x="361.35927288" y="531.958230159" type="line"/>
      <point x="355.322514758" y="531.958230159" type="line"/>
      <point x="521.237091854" y="272.754635209" type="line"/>
      <point x="531.186174064" y="272.754635209" type="line"/>
      <point x="695.411559127" y="531.958230159" type="line"/>
      <point x="691.046195037" y="531.958230159" type="line"/>
      <point x="691.081791039" y="227.715004349" type="line"/>
      <point x="708.69533942" y="227.715004349" type="line"/>
      <point x="708.659743418" y="559.300010681" type="line"/>
      <point x="692.895569077" y="559.300010681" type="line"/>
      <point x="522.081687871" y="289.413785527" type="line"/>
      <point x="530.430568051" y="289.413785527" type="line"/>
      <point x="359.527696841" y="559.300010681" type="line"/>
      <point x="343.745724499" y="559.300010681" type="line"/>
      <point x="343.745724499" y="227.715004349" type="line"/>
    </contour>
    <contour>
      <point x="154.751994959" y="227.715004349" type="line"/>
      <point x="154.751994959" y="542.616890363" type="line"/>
      <point x="287.614067451" y="542.616890363" type="line"/>
      <point x="287.614067451" y="559.300010681" type="line"/>
      <point x="3.23600006104" y="559.300010681" type="line"/>
      <point x="3.23600006104" y="542.616890363" type="line"/>
      <point x="136.080274553" y="542.616890363" type="line"/>
      <point x="136.080274553" y="227.715004349" type="line"/>
    </contour>
  </outline>
</glyph>
<glyph name="estimated" format="1">
  <advance width="728.65013372"/>
  <unicode hex="212E"/>
  <outline>
    <contour>
      <point x="615.11507159" y="107.066002045" type="curve"/>
      <point x="569.002070721" y="107.066002045" type="line"/>
      <point x="520.462069805" y="51.1360009766"/>
      <point x="446.843068416" y="14.3820002747"/>
      <point x="365.134066875" y="14.3820002747" type="curve" smooth="yes"/>
      <point x="289.088065441" y="14.3820002747"/>
      <point x="214.660064037" y="42.3470008087"/>
      <point x="170.165063198" y="97.4780018616" type="curve" smooth="yes"/>
      <point x="166.929063137" y="102.272001953"/>
      <point x="162.884063061" y="107.86500206"/>
      <point x="162.884063061" y="115.855002213" type="curve" smooth="yes"/>
      <point x="162.884063061" y="269.263005142" type="line"/>
      <point x="162.884063061" y="271.660005188"/>
      <point x="164.502063091" y="272.459005203"/>
      <point x="167.738063152" y="272.459005203" type="curve" smooth="yes"/>
      <point x="681.453072842" y="272.459005203" type="line"/>
      <point x="681.453072842" y="278.851005325" type="line"/>
      <point x="681.453072842" y="435.455008316"/>
      <point x="539.878070171" y="561.697010727"/>
      <point x="364.32506686" y="561.697010727" type="curve" smooth="yes"/>
      <point x="189.581063564" y="561.697010727"/>
      <point x="47.1970608786" y="435.455008316"/>
      <point x="47.1970608786" y="278.851005325" type="curve" smooth="yes"/>
      <point x="47.1970608786" y="123.845002365"/>
      <point x="189.581063564" y="-2.39700004578"/>
      <point x="364.32506686" y="-2.39700004578" type="curve" smooth="yes"/>
      <point x="465.450068767" y="-2.39700004578"/>
      <point x="558.485070522" y="41.5480007935"/>
    </contour>
    <contour>
      <point x="162.884063061" y="292.434005585" type="curve" smooth="yes"/>
      <point x="162.884063061" y="443.445008469" type="line"/>
      <point x="162.884063061" y="451.435008621"/>
      <point x="166.929063137" y="457.827008743"/>
      <point x="170.974063213" y="462.621008835" type="curve" smooth="yes"/>
      <point x="221.132064159" y="512.159009781"/>
      <point x="289.088065441" y="544.918010406"/>
      <point x="365.134066875" y="544.918010406" type="curve" smooth="yes"/>
      <point x="440.371068294" y="544.918010406"/>
      <point x="508.327069576" y="513.757009811"/>
      <point x="557.676070507" y="465.018008881" type="curve" smooth="yes"/>
      <point x="562.530070598" y="461.023008804"/>
      <point x="566.575070675" y="453.832008667"/>
      <point x="566.575070675" y="446.64100853" type="curve" smooth="yes"/>
      <point x="566.575070675" y="292.434005585" type="line"/>
      <point x="566.575070675" y="289.238005524"/>
      <point x="564.148070629" y="287.640005493"/>
      <point x="561.721070583" y="287.640005493" type="curve" smooth="yes"/>
      <point x="167.738063152" y="287.640005493" type="line"/>
      <point x="164.502063091" y="287.640005493"/>
      <point x="162.884063061" y="289.238005524"/>
    </contour>
  </outline>
</glyph>
<glyph name="emptyset" format="1">
  <advance width="454.107888588"/>
  <unicode hex="2205"/>
  <outline>
    <contour>
      <point x="414.280817851" y="415.879507942" type="line"/>
      <point x="402.225099607" y="428.144158176" type="line"/>
      <point x="39.8270707377" y="93.8425517921" type="line"/>
      <point x="51.8827889809" y="81.5779015579" type="line"/>
    </contour>
    <contour>
      <point x="384.419009289" y="256.447044897" type="curve" smooth="yes"/>
      <point x="384.419009289" y="342.683116544"/>
      <point x="313.51986594" y="412.020337868"/>
      <point x="227.107338296" y="412.020337868" type="curve" smooth="yes"/>
      <point x="139.903608638" y="412.020337868"/>
      <point x="69.8134653044" y="342.683116544"/>
      <point x="69.8134653044" y="256.447044897" type="curve" smooth="yes"/>
      <point x="69.8134653044" y="170.986003265"/>
      <point x="139.903608638" y="100.849781926"/>
      <point x="227.107338296" y="100.849781926" type="curve" smooth="yes"/>
      <point x="313.51986594" y="100.849781926"/>
      <point x="384.419009289" y="170.986003265"/>
    </contour>
    <contour>
      <point x="88.2538117012" y="256.447044897" type="curve" smooth="yes"/>
      <point x="88.2538117012" y="331.537066331"/>
      <point x="150.048468856" y="393.187907509"/>
      <point x="227.107338296" y="393.187907509" type="curve" smooth="yes"/>
      <point x="304.166207737" y="393.187907509"/>
      <point x="365.978662892" y="331.537066331"/>
      <point x="365.978662892" y="256.447044897" type="curve" smooth="yes"/>
      <point x="365.978662892" y="181.333053463"/>
      <point x="304.166207737" y="119.682212286"/>
      <point x="227.107338296" y="119.682212286" type="curve" smooth="yes"/>
      <point x="150.048468856" y="119.682212286"/>
      <point x="88.2538117012" y="181.333053463"/>
    </contour>
  </outline>
</glyph>
<glyph name="product" format="1">
  <advance width="659.930436443"/>
  <unicode hex="220F"/>
  <outline>
    <contour>
      <point x="126.268722436" y="-155.00600296" type="line"/>
      <point x="126.268722436" y="539.924260311" type="line"/>
      <point x="533.661714007" y="539.924260311" type="line"/>
      <point x="533.661714007" y="-155.00600296" type="line"/>
      <point x="553.686082468" y="-155.00600296" type="line"/>
      <point x="553.686082468" y="559.300010681" type="line"/>
      <point x="106.244353975" y="559.300010681" type="line"/>
      <point x="106.244353975" y="-155.00600296" type="line"/>
    </contour>
  </outline>
</glyph>
<glyph name="summation" format="1">
  <advance width="517.805313785"/>
  <unicode hex="2211"/>
  <outline>
    <contour>
      <point x="486.734859209" y="-155.00600296" type="line"/>
      <point x="486.734859209" y="-135.893922595" type="line"/>
      <point x="58.8288631748" y="-135.893922595" type="line"/>
      <point x="62.5810052567" y="-143.116882733" type="line"/>
      <point x="347.311796591" y="194.995953724" type="line"/>
      <point x="347.311796591" y="210.097054012" type="line"/>
      <point x="70.8489854165" y="547.482800455" type="line"/>
      <point x="67.0256513317" y="540.187930316" type="line"/>
      <point x="482.600869129" y="540.187930316" type="line"/>
      <point x="482.600869129" y="559.300010681" type="line"/>
      <point x="48.3264249069" y="559.300010681" type="line"/>
      <point x="48.3264249069" y="544.198910393" type="line"/>
      <point x="333.600864281" y="195.651133736" type="line"/>
      <point x="333.636460282" y="210.192934014" type="line"/>
      <point x="40.12963675" y="-139.904902672" type="line"/>
      <point x="40.12963675" y="-155.00600296" type="line"/>
    </contour>
  </outline>
</glyph>
<glyph name="minus" format="1">
  <advance width="454.107888588"/>
  <unicode hex="2212"/>
  <outline>
    <contour>
      <point x="393.788847458" y="269.862255154" type="line"/>
      <point x="393.788847458" y="288.662725513" type="line"/>
      <point x="60.31904113" y="288.662725513" type="line"/>
      <point x="60.31904113" y="269.862255154" type="line"/>
    </contour>
  </outline>
</glyph>
<glyph name="radical" format="1">
  <advance width="633.670295974"/>
  <unicode hex="221A"/>
  <outline>
    <contour>
      <point x="339.940188415" y="-138.442732644" type="line"/>
      <point x="347.017320562" y="-138.442732644" type="line"/>
      <point x="179.573733439" y="288.662725513" type="line"/>
      <point x="60.31904113" y="288.662725513" type="line"/>
      <point x="60.31904113" y="269.862255154" type="line"/>
      <point x="164.733437101" y="269.862255154" type="line"/>
      <point x="333.484368259" y="-155.00600296" type="line"/>
      <point x="353.473140718" y="-155.00600296" type="line"/>
      <point x="626.096437843" y="592.858011322" type="line"/>
      <point x="604.196807358" y="592.858011322" type="line"/>
    </contour>
  </outline>
</glyph>
<glyph name="infinity" format="1">
  <advance width="739.728579959"/>
  <unicode hex="221E"/>
  <outline>
    <contour>
      <point x="696.629913159" y="280.425035355" type="curve" smooth="yes"/>
      <point x="696.629913159" y="361.092076896"/>
      <point x="633.189749955" y="421.52044805"/>
      <point x="549.417798365" y="421.52044805" type="curve" smooth="yes"/>
      <point x="337.28181436" y="421.52044805"/>
      <point x="388.692147304" y="156.148572982"/>
      <point x="190.666741608" y="156.148572982" type="curve" smooth="yes"/>
      <point x="116.373034227" y="156.148572982"/>
      <point x="62.0195592164" y="208.866593989"/>
      <point x="62.0195592164" y="279.650005341" type="curve" smooth="yes"/>
      <point x="62.0195592164" y="350.433416692"/>
      <point x="116.373034227" y="403.151437699"/>
      <point x="190.666741608" y="403.151437699" type="curve" smooth="yes"/>
      <point x="388.692147304" y="403.151437699"/>
      <point x="337.28181436" y="137.779562631"/>
      <point x="549.417798365" y="137.779562631" type="curve" smooth="yes"/>
      <point x="633.189749955" y="137.779562631"/>
      <point x="696.629913159" y="199.781963815"/>
    </contour>
    <contour>
      <point x="549.061838351" y="403.151437699" type="curve" smooth="yes"/>
      <point x="623.373343732" y="403.151437699"/>
      <point x="677.709020742" y="351.208446707"/>
      <point x="677.709020742" y="280.425035355" type="curve" smooth="yes"/>
      <point x="677.709020742" y="209.641624004"/>
      <point x="623.373343732" y="156.148572982"/>
      <point x="549.061838351" y="156.148572982" type="curve" smooth="yes"/>
      <point x="351.036432655" y="156.148572982"/>
      <point x="402.446765599" y="421.52044805"/>
      <point x="190.310781594" y="421.52044805" type="curve" smooth="yes"/>
      <point x="106.538830004" y="421.52044805"/>
      <point x="43.0986668002" y="360.317046881"/>
      <point x="43.0986668002" y="279.650005341" type="curve" smooth="yes"/>
      <point x="43.0986668002" y="199.006933801"/>
      <point x="106.538830004" y="137.779562631"/>
      <point x="190.310781594" y="137.779562631" type="curve" smooth="yes"/>
      <point x="402.446765599" y="137.779562631"/>
      <point x="351.036432655" y="403.151437699"/>
    </contour>
  </outline>
</glyph>
<glyph name="integral" format="1">
  <advance width="290.139765519"/>
  <unicode hex="222B"/>
  <outline>
    <contour>
      <point x="154.993076986" y="-53.5809410233" type="curve" smooth="yes"/>
      <point x="154.993076986" y="487.653679313" type="line" smooth="yes"/>
      <point x="154.993076986" y="545.285550414"/>
      <point x="183.832309524" y="576.742181014"/>
      <point x="237.323390518" y="576.742181014" type="curve" smooth="yes"/>
      <point x="266.127027054" y="576.742181014"/>
      <point x="290.974653517" y="568.097000849"/>
      <point x="308.648067848" y="551.629610535" type="curve"/>
      <point x="320.685988091" y="566.243320814" type="line"/>
      <point x="301.074209716" y="586.050531192"/>
      <point x="268.518431098" y="595.566621374"/>
      <point x="235.927056478" y="595.566621374" type="curve" smooth="yes"/>
      <point x="170.734599221" y="595.566621374"/>
      <point x="135.146688532" y="553.858820577"/>
      <point x="135.146688532" y="491.576769388" type="curve" smooth="yes"/>
      <point x="135.146688532" y="-49.6578509483" type="line" smooth="yes"/>
      <point x="135.146688532" y="-107.289722049"/>
      <point x="106.307455995" y="-138.74635265"/>
      <point x="52.8163750012" y="-138.74635265" type="curve" smooth="yes"/>
      <point x="24.0127384649" y="-138.74635265"/>
      <point x="-0.834887998774" y="-130.101172485"/>
      <point x="-18.5083023294" y="-113.63378217" type="curve"/>
      <point x="-30.5462225719" y="-128.247492449" type="line"/>
      <point x="-10.9344441978" y="-148.054702827"/>
      <point x="21.6213344205" y="-157.570793009"/>
      <point x="54.2127090403" y="-157.570793009" type="curve" smooth="yes"/>
      <point x="119.405166298" y="-157.570793009"/>
      <point x="154.993076986" y="-115.862992213"/>
    </contour>
  </outline>
</glyph>
<glyph name="approxequal" format="1">
  <advance width="454.107888588"/>
  <unicode hex="2248"/>
  <outline>
    <contour>
      <point x="398.803029556" y="417.014087964" type="curve"/>
      <point x="382.105269195" y="417.014087964" type="line"/>
      <point x="379.69606715" y="365.678336983"/>
      <point x="353.230440656" y="332.575766351"/>
      <point x="309.198187835" y="332.575766351" type="curve" smooth="yes"/>
      <point x="243.518712611" y="332.575766351"/>
      <point x="221.373146187" y="419.626818014"/>
      <point x="144.58933674" y="419.626818014" type="curve" smooth="yes"/>
      <point x="93.7728097671" y="419.626818014"/>
      <point x="58.5052630915" y="381.234867281"/>
      <point x="55.3048590319" y="317.450696062" type="curve"/>
      <point x="72.0026193932" y="317.450696062" type="line"/>
      <point x="74.4118214382" y="368.786447043"/>
      <point x="100.877447932" y="401.889017675"/>
      <point x="144.909700753" y="401.889017675" type="curve" smooth="yes"/>
      <point x="210.589175977" y="401.889017675"/>
      <point x="232.734742402" y="314.837966013"/>
      <point x="309.518551848" y="314.837966013" type="curve" smooth="yes"/>
      <point x="360.335078821" y="314.837966013"/>
      <point x="395.602625497" y="353.229916746"/>
    </contour>
    <contour>
      <point x="398.803029556" y="241.849314619" type="curve"/>
      <point x="382.105269195" y="241.849314619" type="line"/>
      <point x="379.69606715" y="190.513563638"/>
      <point x="353.230440656" y="157.410993006"/>
      <point x="309.198187835" y="157.410993006" type="curve" smooth="yes"/>
      <point x="243.518712611" y="157.410993006"/>
      <point x="221.373146187" y="244.462044669"/>
      <point x="144.58933674" y="244.462044669" type="curve" smooth="yes"/>
      <point x="93.7728097671" y="244.462044669"/>
      <point x="58.5052630915" y="206.070093935"/>
      <point x="55.3048590319" y="142.285922717" type="curve"/>
      <point x="72.0026193932" y="142.285922717" type="line"/>
      <point x="74.4118214382" y="193.621673698"/>
      <point x="100.877447932" y="226.72424433"/>
      <point x="144.909700753" y="226.72424433" type="curve" smooth="yes"/>
      <point x="210.589175977" y="226.72424433"/>
      <point x="232.734742402" y="139.673192667"/>
      <point x="309.518551848" y="139.673192667" type="curve" smooth="yes"/>
      <point x="360.335078821" y="139.673192667"/>
      <point x="395.602625497" y="178.065143401"/>
    </contour>
  </outline>
</glyph>
<glyph name="notequal" format="1">
  <advance width="454.107888588"/>
  <unicode hex="2260"/>
  <outline>
    <contour>
      <point x="120.57821631" y="78.3419514961" type="line"/>
      <point x="354.139756728" y="480.958059185" type="line"/>
      <point x="333.529672278" y="480.958059185" type="line"/>
      <point x="99.9681318605" y="78.3419514961" type="line"/>
    </contour>
    <contour>
      <point x="393.788847458" y="182.267883481" type="line"/>
      <point x="393.788847458" y="201.06835384" type="line"/>
      <point x="60.31904113" y="201.06835384" type="line"/>
      <point x="60.31904113" y="182.267883481" type="line"/>
    </contour>
    <contour>
      <point x="393.788847458" y="358.231656841" type="line"/>
      <point x="393.788847458" y="377.0321272" type="line"/>
      <point x="60.31904113" y="377.0321272" type="line"/>
      <point x="60.31904113" y="358.231656841" type="line"/>
    </contour>
  </outline>
</glyph>
<glyph name="greaterequal" format="1">
  <advance width="454.107888588"/>
  <unicode hex="2265"/>
  <outline>
    <contour>
      <point x="393.788847458" y="271.436285184" type="line"/>
      <point x="393.788847458" y="292.657725589" type="line"/>
      <point x="60.31904113" y="429.214818197" type="line"/>
      <point x="60.31904113" y="408.137197794" type="line"/>
      <point x="382.399745225" y="277.5086853" type="line"/>
      <point x="382.399745225" y="286.585325473" type="line"/>
      <point x="60.31904113" y="155.956812978" type="line"/>
      <point x="60.31904113" y="134.879192576" type="line"/>
    </contour>
    <contour>
      <point x="393.788847458" y="18.800470359" type="line"/>
      <point x="60.31904113" y="18.800470359" type="line"/>
      <point x="60.31904113" y="0.0" type="line"/>
      <point x="393.788847458" y="0.0" type="line"/>
    </contour>
  </outline>
</glyph>
<glyph name="A.ss01" format="1">
  <advance width="650.222436259"/>
  <outline>
    <contour>
      <point x="72.9070813597" y="559.300010681" type="move" name="topleft"/>
    </contour>
    <contour>
      <point x="325.11121813" y="559.300010681" type="move" name="top"/>
    </contour>
    <contour>
      <point x="548.832082376" y="0.0" type="move" name="ogonek"/>
    </contour>
    <contour>
      <point x="325.11121813" y="0.0" type="move" name="bottom"/>
    </contour>
    <contour>
      <point x="121.414722344" y="0.0" type="line"/>
      <point x="121.414722344" y="326.407486234" type="line" smooth="yes"/>
      <point x="121.414722344" y="471.170308998"/>
      <point x="198.171025772" y="542.704780364"/>
      <point x="325.11121813" y="542.704780364" type="curve" smooth="yes"/>
      <point x="452.051410487" y="542.704780364"/>
      <point x="528.807713915" y="471.170308998"/>
      <point x="528.807713915" y="326.407486234" type="curve" smooth="yes"/>
      <point x="528.807713915" y="0.0" type="line"/>
      <point x="548.832082376" y="0.0" type="line"/>
      <point x="548.832082376" y="324.378026195" type="line" smooth="yes"/>
      <point x="548.832082376" y="483.083399226"/>
      <point x="460.872746705" y="562.008620733"/>
      <point x="325.11121813" y="562.008620733" type="curve" smooth="yes"/>
      <point x="189.349689555" y="562.008620733"/>
      <point x="101.390353883" y="483.083399226"/>
      <point x="101.390353883" y="324.378026195" type="curve" smooth="yes"/>
      <point x="101.390353883" y="0.0" type="line"/>
    </contour>
    <contour>
      <point x="537.423564107" y="182.411703484" type="line"/>
      <point x="537.423564107" y="201.403933846" type="line"/>
      <point x="115.101286193" y="201.403933846" type="line"/>
      <point x="115.101286193" y="182.411703484" type="line"/>
    </contour>
  </outline>
</glyph>
